<svg width="27" height="27" viewBox="0 0 27 27" fill="none" xmlns="http://www.w3.org/2000/svg">
<path d="M16.3184 26.9998C17.2211 26.9998 18.0084 26.2126 18.0084 25.3098V21.3629H19.1369C19.814 21.3629 20.2653 20.9114 20.2653 20.2344V8.96143H6.73457V20.2345C6.73457 20.9116 7.18598 21.363 7.86303 21.363H8.9916V25.3099C8.9916 26.2127 9.77865 26.9999 10.6816 26.9999C11.5843 26.9999 12.3715 26.2127 12.3715 25.3099V21.363H14.6285V25.3099C14.6284 26.2126 15.4156 26.9998 16.3184 26.9998Z" fill="#081131"/>
<path d="M23.0839 20.2345C23.9866 20.2345 24.7737 19.4474 24.7737 18.5445V10.6507C24.7737 9.7527 23.9867 8.96143 23.0839 8.96143C22.181 8.96143 21.3938 9.75275 21.3938 10.6507V18.5445C21.3938 19.4472 22.1809 20.2345 23.0839 20.2345Z" fill="#081131"/>
<path d="M3.91609 20.2345C4.81895 20.2345 5.60612 19.4474 5.60612 18.5445V10.6507C5.60612 9.7527 4.81906 8.96143 3.91609 8.96143C3.01334 8.96143 2.22623 9.75275 2.22623 10.6507V18.5445C2.22628 19.4472 3.01334 20.2345 3.91609 20.2345Z" fill="#081131"/>
<path d="M18.9111 0.170265C18.6855 -0.0567552 18.3496 -0.0567552 18.124 0.170265L16.6105 1.67873L16.5407 1.74844C15.6432 1.29904 14.637 1.0746 13.5165 1.07244C13.511 1.07244 13.5056 1.07228 13.5001 1.07228H13.4999C13.4943 1.07228 13.489 1.07244 13.4834 1.07244C12.3629 1.0746 11.3568 1.29904 10.4594 1.74844L10.3894 1.67873L8.8759 0.170265C8.65014 -0.0567552 8.31444 -0.0567552 8.08884 0.170265C7.86309 0.39602 7.86309 0.731093 8.08884 0.95669L9.5529 2.42101C9.08114 2.73599 8.65336 3.12143 8.28137 3.56229C7.3908 4.61792 6.82269 5.9918 6.74459 7.48038C6.74386 7.49589 6.74233 7.51118 6.74164 7.52668C6.73684 7.62804 6.73463 7.72992 6.73463 7.83222H20.2653C20.2653 7.72997 20.2629 7.62809 20.2583 7.52668C20.2576 7.51118 20.256 7.49589 20.2551 7.48038C20.1772 5.9918 19.609 4.61787 18.7184 3.56239C18.3465 3.12153 17.9186 2.7361 17.4468 2.42112L18.9111 0.956796C19.1369 0.731093 19.1369 0.396073 18.9111 0.170265ZM10.6795 5.86192C10.2126 5.86192 9.83408 5.48344 9.83408 5.01654C9.83408 4.54963 10.2126 4.17115 10.6795 4.17115C11.1463 4.17115 11.5248 4.54963 11.5248 5.01654C11.5248 5.48344 11.1463 5.86192 10.6795 5.86192ZM16.3204 5.86192C15.8536 5.86192 15.4751 5.48344 15.4751 5.01654C15.4751 4.54963 15.8535 4.17115 16.3204 4.17115C16.7873 4.17115 17.1658 4.54963 17.1658 5.01654C17.1658 5.48344 16.7873 5.86192 16.3204 5.86192Z" fill="#081131"/>
</svg>
