<svg width="106" height="106" viewBox="0 0 106 106" fill="none" xmlns="http://www.w3.org/2000/svg">
<circle cx="53" cy="53" r="53" fill="#F9F9F9"/>
<path d="M53.4447 56.1795C59.6035 56.1795 64.5963 51.2144 64.5963 45.0897C64.5963 38.965 59.6035 34 53.4447 34C47.2858 34 42.293 38.965 42.293 45.0897C42.293 51.2144 47.2858 56.1795 53.4447 56.1795Z" fill="#FFE7B9"/>
<path d="M68.8893 45.0899H38C35.2386 45.0899 33 47.3285 33 50.0899V67.8142C33 70.5757 35.2386 72.8142 38 72.8142H68.8893C71.6508 72.8142 73.8893 70.5757 73.8893 67.8142V50.0899C73.8893 47.3285 71.6508 45.0899 68.8893 45.0899Z" fill="url(#paint0_linear_31_16920)"/>
<path d="M73.8893 48.7863H33V54.3312H73.8893V48.7863Z" fill="#FFE7B9"/>
<path d="M46.0103 65.421H36.7172V68.1934H46.0103V65.421Z" fill="#FFE7B9"/>
<path d="M53.4447 65.421H47.8688V68.1934H53.4447V65.421Z" fill="#FFE7B9"/>
<defs>
<linearGradient id="paint0_linear_31_16920" x1="29.5057" y1="61.7932" x2="81.0624" y2="85.2839" gradientUnits="userSpaceOnUse">
<stop stop-color="#FFA500"/>
<stop offset="1" stop-color="#FF5C00"/>
</linearGradient>
</defs>
</svg>
