<svg width="106" height="106" viewBox="0 0 106 106" fill="none" xmlns="http://www.w3.org/2000/svg">
<circle cx="53" cy="53" r="53" fill="#F9F9F9"/>
<path d="M58.9793 36.557C58.8052 36.5337 58.6281 36.5509 58.4617 36.6072C58.2954 36.6635 58.1442 36.7574 58.02 36.8816C57.8958 37.0058 57.8019 37.157 57.7456 37.3233C57.6893 37.4897 57.6721 37.6668 57.6954 37.8409V46.8284H55.1275C54.8821 46.836 54.644 46.9138 54.4415 47.0527C54.239 47.1915 54.0805 47.3855 53.9848 47.6116C53.9224 47.8268 53.9073 48.053 53.9406 48.2746C53.9738 48.4963 54.0546 48.7081 54.1774 48.8955L60.5971 56.5991C60.7099 56.7462 60.8532 56.8671 61.0172 56.9536C61.1813 57.04 61.362 57.0899 61.5472 57.0998C61.7376 57.1125 61.9281 57.0768 62.101 56.996C62.2739 56.9152 62.4234 56.7919 62.5358 56.6376L68.9554 48.934C69.1117 48.7464 69.2112 48.5181 69.2423 48.2759C69.2735 48.0337 69.2349 47.7877 69.1311 47.5667C69.0273 47.3456 68.8627 47.1588 68.6564 47.028C68.4502 46.8972 68.211 46.828 67.9668 46.8284H65.3989V37.8409C65.3989 37.5004 65.2637 37.1738 65.0229 36.933C64.7821 36.6923 64.4555 36.557 64.115 36.557H58.9793Z" fill="#FFE7B9"/>
<path d="M62.8311 59.8474C62.6832 60.0467 62.4891 60.207 62.2654 60.3143C62.0416 60.4217 61.7952 60.473 61.5472 60.4637C61.3002 60.4667 61.0558 60.4127 60.8331 60.3058C60.6175 60.2023 60.4279 60.052 60.278 59.866C60.2681 59.8537 60.2646 59.8492 60.255 59.8367C59.952 59.4414 51.4044 48.2921 51.417 48.2921C47.7748 48.5552 44.3207 50.011 41.5889 52.4343C38.8571 54.8576 36.9998 58.1135 36.3042 61.6983C35.6086 65.2832 36.1135 68.9974 37.7408 72.2665C39.3681 75.5356 42.0271 78.1775 45.3067 79.7837C48.5862 81.3898 52.3036 81.8707 55.8839 81.152C59.4642 80.4333 62.708 78.555 65.1136 75.8076C67.5192 73.0602 68.9527 69.5967 69.1922 65.9529C69.3096 64.167 69.1371 62.3865 68.6922 60.6774C67.9918 57.9869 64.6431 57.7389 62.8311 59.8474ZM51.2758 63.5195H53.8436C54.8652 63.5195 55.8449 63.9253 56.5672 64.6476C57.2896 65.37 57.6954 66.3497 57.6954 67.3713C57.6954 68.3928 57.2896 69.3725 56.5672 70.0949C56.1511 70.511 55.6496 70.822 55.1039 71.011C54.4339 71.243 53.8436 71.7979 53.8436 72.507C53.8436 72.8475 53.7084 73.1741 53.4676 73.4148C53.2268 73.6556 52.9002 73.7909 52.5597 73.7909C52.2192 73.7909 51.8926 73.6556 51.6518 73.4148C51.411 73.1741 51.2758 72.8475 51.2758 72.507C51.2758 71.7979 50.7009 71.223 49.9919 71.223H48.7079C48.3674 71.223 48.0408 71.0878 47.8001 70.847C47.5593 70.6062 47.424 70.2796 47.424 69.9391C47.424 69.5986 47.5593 69.272 47.8001 69.0312C48.0408 68.7905 48.3674 68.6552 48.7079 68.6552H53.8436C54.1842 68.6552 54.5107 68.5199 54.7515 68.2791C54.9923 68.0383 55.1276 67.7118 55.1276 67.3713C55.1276 67.0307 54.9923 66.7042 54.7515 66.4634C54.5107 66.2226 54.1842 66.0873 53.8436 66.0873H51.2758C50.2542 66.0873 49.2745 65.6815 48.5522 64.9592C47.8298 64.2368 47.424 63.2571 47.424 62.2356C47.424 61.214 47.8298 60.2343 48.5522 59.5119C48.9683 59.0958 49.4698 58.7848 50.0155 58.5958C50.6855 58.3638 51.2758 57.8089 51.2758 57.0998C51.2758 56.7593 51.411 56.4328 51.6518 56.192C51.8926 55.9512 52.2192 55.8159 52.5597 55.8159C52.9002 55.8159 53.2268 55.9512 53.4676 56.192C53.7084 56.4328 53.8436 56.7593 53.8436 57.0998C53.8436 57.8089 54.4185 58.3838 55.1276 58.3838H56.4115C56.752 58.3838 57.0786 58.519 57.3194 58.7598C57.5601 59.0006 57.6954 59.3272 57.6954 59.6677C57.6954 60.0082 57.5601 60.3348 57.3194 60.5756C57.0786 60.8164 56.752 60.9516 56.4115 60.9516H51.2758C50.9353 60.9516 50.6087 61.0869 50.3679 61.3277C50.1271 61.5685 49.9919 61.895 49.9919 62.2356C49.9919 62.5761 50.1271 62.9026 50.3679 63.1434C50.6087 63.3842 50.9353 63.5195 51.2758 63.5195Z" fill="url(#paint0_linear_31_16972)"/>
<path d="M49.9918 45.5445C49.8177 45.5678 49.6406 45.5506 49.4742 45.4943C49.3079 45.438 49.1567 45.3441 49.0325 45.2199C48.9083 45.0957 48.8144 44.9446 48.7581 44.7782C48.7018 44.6118 48.6846 44.4347 48.7079 44.2606V35.2731H46.14C45.8946 35.2655 45.6565 35.1877 45.454 35.0489C45.2515 34.91 45.093 34.7161 44.9973 34.4899C44.9323 34.275 44.9158 34.0483 44.9491 33.8263C44.9824 33.6042 45.0647 33.3924 45.1899 33.206L51.6096 25.5024C51.7224 25.3553 51.8657 25.2344 52.0297 25.148C52.1937 25.0615 52.3745 25.0116 52.5597 25.0017C52.7498 24.9913 52.9395 25.0281 53.112 25.1088C53.2845 25.1894 53.4343 25.3114 53.5483 25.4639L59.9679 33.1675C60.1215 33.3554 60.2187 33.5829 60.2483 33.8238C60.2778 34.0647 60.2385 34.309 60.1348 34.5284C60.0326 34.7493 59.8697 34.9366 59.6651 35.0685C59.4605 35.2003 59.2227 35.2713 58.9793 35.2731H56.4114V44.2606C56.4114 44.6011 56.2762 44.9277 56.0354 45.1685C55.7946 45.4093 55.468 45.5445 55.1275 45.5445H49.9918Z" fill="#FFE7B9"/>
<defs>
<linearGradient id="paint0_linear_31_16972" x1="33.1604" y1="68.2852" x2="79.3363" y2="82.569" gradientUnits="userSpaceOnUse">
<stop stop-color="#FFA500"/>
<stop offset="1" stop-color="#FF5C00"/>
</linearGradient>
</defs>
</svg>
