<svg width="106" height="106" viewBox="0 0 106 106" fill="none" xmlns="http://www.w3.org/2000/svg">
<circle cx="53" cy="53" r="53" fill="#F9F9F9"/>
<path d="M58.6614 54.3858C60.9386 54.9193 60.6678 57.8189 59.014 59.4727L54.4867 64C54.0914 64.3953 53.825 64.9281 53.7562 65.4867L53.1633 69.9555C53.0894 70.5464 52.6665 71.1586 52.071 71.1586H35.0734C32.7445 71.1586 31.0859 68.8899 31.7992 66.6727L34.6265 57.8383C35.5375 55.0024 38.6398 53.5328 41.407 54.607C43.2461 55.3203 45.6094 55.8789 48.5055 55.8789C51.4016 55.8789 53.7648 55.3203 55.6039 54.607C56.6197 54.2104 57.6802 54.1559 58.6614 54.3858Z" fill="url(#paint0_linear_31_16974)"/>
<path d="M48.514 52.5703C53.4074 52.5703 57.3742 48.6035 57.3742 43.7102C57.3742 38.8168 53.4074 34.85 48.514 34.85C43.6207 34.85 39.6539 38.8168 39.6539 43.7102C39.6539 48.6035 43.6207 52.5703 48.514 52.5703Z" fill="#FFE7B9"/>
<path d="M71.064 60.0211L60.7859 70.3078C60.657 70.4367 60.4765 70.5227 60.2875 70.5484L55.8187 71.1414C55.2601 71.2188 54.7789 70.7375 54.8562 70.1789L55.4492 65.7102C55.475 65.5211 55.5609 65.3492 55.6898 65.2117L65.9765 54.9336L71.064 60.0211Z" fill="#FFE7B9"/>
<path d="M73.7367 57.357L72.2414 58.8438L67.1539 53.7563L68.6492 52.2609C69.4914 51.4188 70.8492 51.4188 71.6914 52.2609L73.7453 54.3063C74.5703 55.157 74.5703 56.5149 73.7367 57.357Z" fill="#FF8601"/>
<path d="M65.6044 55.302L67.3664 53.54L72.4518 58.6254L70.6899 60.3874L65.6044 55.302Z" fill="#FFA500"/>
<defs>
<linearGradient id="paint0_linear_31_16974" x1="29.0502" y1="64.4371" x2="64.3084" y2="83.8986" gradientUnits="userSpaceOnUse">
<stop stop-color="#FFA500"/>
<stop offset="1" stop-color="#FF5C00"/>
</linearGradient>
</defs>
</svg>
