<svg width="106" height="106" viewBox="0 0 106 106" fill="none" xmlns="http://www.w3.org/2000/svg">
<circle cx="53" cy="53" r="53" fill="#F9F9F9"/>
<path d="M43.315 46.5H48.6667C51.4721 46.4995 54.1668 45.4052 56.1783 43.4495C56.7595 44.3816 57.5681 45.1505 58.5282 45.6842C59.4883 46.2178 60.5683 46.4985 61.6667 46.5H62.685C62.8409 46.498 62.9945 46.4629 63.1358 46.397C63.2771 46.3312 63.4028 46.2361 63.5046 46.118C63.6064 46 63.682 45.8616 63.7263 45.7122C63.7707 45.5628 63.7828 45.4056 63.7618 45.2511C63.4555 42.6117 62.1898 40.1769 60.2056 38.4096C58.2213 36.6424 55.6568 35.6659 52.9997 35.6659C50.3425 35.6659 47.778 36.6424 45.7938 38.4096C43.8095 40.1769 42.5439 42.6117 42.2375 45.2511C42.2166 45.4057 42.2287 45.5629 42.2731 45.7124C42.3175 45.8618 42.3931 46.0002 42.4949 46.1183C42.5968 46.2363 42.7226 46.3314 42.864 46.3972C43.0053 46.463 43.1591 46.4981 43.315 46.5Z" fill="#FFE7B9"/>
<path d="M66 31.875H68.1666C69.1719 31.8763 70.1356 32.2761 70.8464 32.9869C71.5572 33.6977 71.9571 34.6614 71.9583 35.6667V37.8333C71.9583 37.977 72.0154 38.1148 72.117 38.2163C72.2185 38.3179 72.3563 38.375 72.5 38.375C72.6436 38.375 72.7814 38.3179 72.883 38.2163C72.9846 38.1148 73.0416 37.977 73.0416 37.8333V35.6667C73.0402 34.3742 72.5261 33.135 71.6122 32.2211C70.6983 31.3072 69.4591 30.7931 68.1666 30.7917H66C65.8563 30.7917 65.7185 30.8487 65.617 30.9503C65.5154 31.0519 65.4583 31.1897 65.4583 31.3333C65.4583 31.477 65.5154 31.6148 65.617 31.7163C65.7185 31.8179 65.8563 31.875 66 31.875Z" fill="#FFE7B9"/>
<path d="M66 62.2083H68.1666C69.4591 62.2069 70.6983 61.6928 71.6122 60.7789C72.5261 59.865 73.0402 58.6258 73.0416 57.3333V55.1667C73.0416 55.023 72.9846 54.8852 72.883 54.7837C72.7814 54.6821 72.6436 54.625 72.5 54.625C72.3563 54.625 72.2185 54.6821 72.117 54.7837C72.0154 54.8852 71.9583 55.023 71.9583 55.1667V57.3333C71.9571 58.3386 71.5572 59.3023 70.8464 60.0131C70.1356 60.7239 69.1719 61.1237 68.1666 61.125H66C65.8563 61.125 65.7185 61.1821 65.617 61.2837C65.5154 61.3852 65.4583 61.523 65.4583 61.6667C65.4583 61.8103 65.5154 61.9481 65.617 62.0497C65.7185 62.1513 65.8563 62.2083 66 62.2083Z" fill="#FFE7B9"/>
<path d="M37.8333 62.2083H40C40.1436 62.2083 40.2814 62.1513 40.383 62.0497C40.4846 61.9481 40.5416 61.8103 40.5416 61.6667C40.5416 61.523 40.4846 61.3852 40.383 61.2837C40.2814 61.1821 40.1436 61.125 40 61.125H37.8333C36.8281 61.1237 35.8644 60.7239 35.1536 60.0131C34.4428 59.3023 34.0429 58.3386 34.0416 57.3333V55.1667C34.0416 55.023 33.9846 54.8852 33.883 54.7837C33.7814 54.6821 33.6436 54.625 33.5 54.625C33.3563 54.625 33.2185 54.6821 33.117 54.7837C33.0154 54.8852 32.9583 55.023 32.9583 55.1667V57.3333C32.9597 58.6258 33.4738 59.865 34.3878 60.7789C35.3017 61.6928 36.5408 62.2069 37.8333 62.2083Z" fill="#FFE7B9"/>
<path d="M33.5 38.375C33.6436 38.375 33.7814 38.3179 33.883 38.2163C33.9846 38.1148 34.0416 37.977 34.0416 37.8333V35.6667C34.0429 34.6614 34.4428 33.6977 35.1536 32.9869C35.8644 32.2761 36.8281 31.8763 37.8333 31.875H40C40.1436 31.875 40.2814 31.8179 40.383 31.7163C40.4846 31.6148 40.5416 31.477 40.5416 31.3333C40.5416 31.1897 40.4846 31.0519 40.383 30.9503C40.2814 30.8487 40.1436 30.7917 40 30.7917H37.8333C36.5408 30.7931 35.3017 31.3072 34.3878 32.2211C33.4738 33.135 32.9597 34.3742 32.9583 35.6667V37.8333C32.9583 37.977 33.0154 38.1148 33.117 38.2163C33.2185 38.3179 33.3563 38.375 33.5 38.375Z" fill="#FFE7B9"/>
<path d="M61.414 54.7318C61.5102 54.1724 61.5944 53.5951 61.6667 53C61.8727 51.28 61.9527 49.5474 61.9064 47.8159C61.9029 47.6862 61.7964 47.5833 61.6667 47.5833C60.5969 47.5846 59.5392 47.3576 58.5642 46.9174C56.9311 46.18 54.9209 45.9577 53.2699 46.6541C51.8228 47.2644 50.2586 47.5846 48.6667 47.5833C46.1207 47.5833 43.9998 49.6096 44.2413 52.1441C44.2685 52.4297 44.2992 52.715 44.3333 53C44.4056 53.5947 44.4898 54.172 44.5862 54.7318C44.9659 56.6846 46.0131 58.4445 47.5482 59.7098C49.0833 60.9752 51.0107 61.6671 53.0001 61.6671C54.9895 61.6671 56.9169 60.9752 58.452 59.7098C59.9871 58.4445 61.0343 56.6846 61.414 54.7318Z" fill="url(#paint0_linear_31_16973)"/>
<path d="M62.9743 49.1498C62.9623 50.335 62.9054 51.5005 62.7823 52.6462C63.0847 52.4736 63.3391 52.2279 63.5221 51.9316C63.7052 51.6354 63.8111 51.298 63.8302 50.9503C63.8493 50.6026 63.7809 50.2556 63.6314 49.9411C63.4819 49.6266 63.256 49.3546 62.9743 49.1498Z" fill="#FF7B01"/>
<path d="M43.2177 52.6462C43.0947 51.5002 43.0377 50.335 43.0258 49.1498C42.744 49.3546 42.5181 49.6266 42.3686 49.9411C42.2191 50.2556 42.1507 50.6026 42.1698 50.9503C42.1889 51.298 42.2948 51.6354 42.4779 51.9316C42.6609 52.2279 42.9153 52.4736 43.2177 52.6462Z" fill="#FF7B01"/>
<path d="M48.6667 61.7154V63.8799C48.6446 64.778 48.9119 65.6595 49.4291 66.3942C49.9462 67.1288 50.6858 67.6777 51.5388 67.9599C52.0136 68.0978 52.5056 68.1674 53 68.1666C53.2788 68.1631 53.5569 68.1365 53.8314 68.0871C54.8214 67.901 55.7145 67.3729 56.3546 66.595C56.9948 65.8172 57.3412 64.8391 57.3333 63.8318V61.7156C55.9901 62.3957 54.5056 62.7501 53 62.7501C51.4944 62.7501 50.0099 62.3955 48.6667 61.7154Z" fill="#FFE7B9"/>
<path d="M71.1259 66.5503L68.1666 66C65.4132 65.4716 62.8228 64.3025 60.605 62.5873C60.5361 62.534 60.4657 62.483 60.394 62.4341C59.4549 61.7945 58.4166 62.6971 58.4166 63.8333C58.4302 65.0975 57.9957 66.3256 57.1901 67.2999C56.3845 68.2742 55.2599 68.9318 54.0157 69.156C53.6804 69.2159 53.3406 69.2474 53 69.25C52.4041 69.2501 51.8111 69.1664 51.2385 69.0015C50.1596 68.6542 49.2214 67.9684 48.563 67.0459C47.9046 66.1233 47.561 65.0131 47.5833 63.8799C47.5833 62.7188 46.5202 61.7967 45.5676 62.4604C45.5091 62.5012 45.4515 62.5434 45.395 62.5871C43.1773 64.3025 40.5868 65.4717 37.8333 66L34.8741 66.5503C33.8795 66.7354 32.9809 67.2626 32.3342 68.0406C31.6875 68.8186 31.3334 69.7983 31.3333 70.81C31.3333 71.8329 31.7396 72.8138 32.4629 73.5371C33.1862 74.2603 34.1671 74.6667 35.19 74.6667H70.81C71.8328 74.6667 72.8138 74.2603 73.5371 73.5371C74.2603 72.8138 74.6666 71.8329 74.6666 70.81C74.6665 69.7983 74.3124 68.8186 73.6657 68.0406C73.019 67.2626 72.1205 66.7354 71.1259 66.5503Z" fill="url(#paint1_linear_31_16973)"/>
<defs>
<linearGradient id="paint0_linear_31_16973" x1="42.5564" y1="55.0537" x2="67.0321" y2="63.1612" gradientUnits="userSpaceOnUse">
<stop stop-color="#FFA500"/>
<stop offset="1" stop-color="#FF5C00"/>
</linearGradient>
<linearGradient id="paint1_linear_31_16973" x1="27.6301" y1="69.514" x2="59.5568" y2="102.487" gradientUnits="userSpaceOnUse">
<stop stop-color="#FFA500"/>
<stop offset="1" stop-color="#FF5C00"/>
</linearGradient>
</defs>
</svg>
