<svg width="20" height="20" viewBox="0 0 20 20" fill="none" xmlns="http://www.w3.org/2000/svg">
<path d="M16.1296 16.1276L17.071 17.0729C15.1751 18.9603 12.6641 20 10 20C7.63932 20 5.39648 19.1719 3.5957 17.6654L3.59505 18.681H2.26172L2.26237 15.4616H5.48112V16.7949H4.63086C6.16081 18.0065 8.03451 18.6667 10 18.6667C12.3086 18.6667 14.4857 17.765 16.1296 16.1276ZM10 1.33333C11.9655 1.33333 13.8392 1.99349 15.3691 3.20508H14.5189V4.53841H17.7376V1.31901H16.4043V2.33464C14.6035 0.828125 12.3607 0 10 0C7.33594 0 4.82487 1.03971 2.92904 2.92708L3.87044 3.8724C5.51432 2.23503 7.69141 1.33333 10 1.33333ZM19.985 9.10872L18.6517 9.13346L18.6667 10C18.6667 10.1419 18.6628 10.2826 18.6562 10.4225L18.6243 11.0885L19.9564 11.1523L19.9883 10.4863C19.9961 10.3255 20 10.1628 20 9.99414L19.985 9.10872ZM18.1888 12.8464C18.1217 13.0417 18.0475 13.2337 17.9661 13.4219L17.7018 14.0345L18.9264 14.5625L19.1901 13.9505C19.2845 13.7311 19.3704 13.5091 19.4492 13.2826L19.6667 12.6523L18.4069 12.2168L18.1888 12.8464ZM18.2598 7.37109L18.4642 8.00586L19.7337 7.59701L19.5293 6.96224C19.4557 6.73438 19.3737 6.50977 19.2845 6.28971L19.0332 5.67188L17.7982 6.17383L18.0488 6.79102C18.1263 6.98112 18.1966 7.17448 18.2598 7.37109ZM1.33333 10C1.33333 9.85807 1.33724 9.71745 1.34375 9.57747L1.37565 8.91146L0.0436198 8.84766L0.0117188 9.51367C0.00390628 9.67448 0 9.83724 0 10.0059L0.014974 10.8913L1.34831 10.8665L1.33333 10ZM1.74023 12.6289L1.53581 11.9941L0.266276 12.403L0.470703 13.0378C0.544271 13.2656 0.626302 13.4902 0.715495 13.7103L0.966797 14.3281L2.20182 13.8262L1.95117 13.209C1.8737 13.0189 1.80339 12.8255 1.74023 12.6289ZM1.8112 7.15365C1.87826 6.95833 1.95247 6.76628 2.03385 6.57812L2.29818 5.9655L1.07357 5.4375L0.809896 6.04948C0.715495 6.26888 0.629557 6.49089 0.550781 6.71745L0.333333 7.34766L1.5931 7.7832L1.8112 7.15365ZM10.6667 8H9.33333V9.33333H10.6667C11.0345 9.33333 11.3333 9.03451 11.3333 8.66667C11.3333 8.29883 11.0345 8 10.6667 8ZM10.6667 10.6667H9.33333V12H10.6667C11.0345 12 11.3333 11.7012 11.3333 11.3333C11.3333 10.9655 11.0345 10.6667 10.6667 10.6667ZM16.6667 10C16.6667 13.6758 13.6758 16.6667 10 16.6667C6.32422 16.6667 3.33333 13.6758 3.33333 10C3.33333 6.32422 6.32422 3.33333 10 3.33333C13.6758 3.33333 16.6667 6.32422 16.6667 10ZM12.1465 10C12.4661 9.64518 12.6667 9.18099 12.6667 8.66667C12.6667 7.5638 11.7695 6.66667 10.6667 6.66667V6H9.33333V6.66667H7.33333V8H8V12H7.33333V13.3333H9.33333V14H10.6667V13.3333C11.7695 13.3333 12.6667 12.4362 12.6667 11.3333C12.6667 10.819 12.4661 10.3548 12.1465 10Z" fill="#324054"/>
</svg>
