<svg width="30" height="30" viewBox="0 0 30 30" fill="none" xmlns="http://www.w3.org/2000/svg">
<path opacity="0.4" fill-rule="evenodd" clip-rule="evenodd" d="M28.75 19.0249C29.2678 19.0249 29.6875 19.4446 29.6875 19.9624C29.6875 25.3177 25.3553 29.6499 20 29.6499C19.6622 29.6499 19.3506 29.4682 19.1842 29.1743C19.0178 28.8804 19.0223 28.5197 19.1961 28.2301L20.5086 26.0426C20.775 25.5986 21.3509 25.4546 21.7948 25.721C22.2388 25.9874 22.3828 26.5633 22.1164 27.0072L21.7773 27.5725C25.2386 26.7694 27.8125 23.6706 27.8125 19.9624C27.8125 19.4446 28.2322 19.0249 28.75 19.0249Z" fill="#FF5353"/>
<path opacity="0.4" fill-rule="evenodd" clip-rule="evenodd" d="M8.22274 2.35232C4.76137 3.15536 2.1875 6.25418 2.1875 9.9624C2.1875 10.4802 1.76777 10.8999 1.25 10.8999C0.732233 10.8999 0.3125 10.4802 0.3125 9.9624C0.3125 4.60714 4.64473 0.274902 10 0.274902C10.3378 0.274902 10.6494 0.456583 10.8158 0.750497C10.9822 1.04441 10.9777 1.40512 10.8039 1.69474L9.4914 3.88224C9.22501 4.32622 8.64914 4.47019 8.20516 4.2038C7.76118 3.93741 7.61721 3.36154 7.8836 2.91756L8.22274 2.35232Z" fill="#FF5353"/>
<path opacity="0.4" d="M18.5625 19.1625C18.5625 23.425 15.1125 26.875 10.85 26.875C6.58751 26.875 3.13751 23.425 3.13751 19.1625C3.13751 14.9 6.58751 11.45 10.85 11.45C11.05 11.45 11.2375 11.4625 11.45 11.475C15.2375 11.7625 18.2625 14.7875 18.55 18.575C18.55 18.7625 18.5625 18.95 18.5625 19.1625Z" fill="#FF5353"/>
<path d="M26.875 10.8375C26.875 15.1 23.425 18.55 19.1625 18.55H18.55C18.2625 14.7625 15.2375 11.7375 11.45 11.45V10.8375C11.45 6.57498 14.9 3.125 19.1625 3.125C23.425 3.125 26.875 6.57498 26.875 10.8375Z" fill="#FF7676"/>
<path d="M13.9 18.7626C14.05 18.4501 14.1375 18.1126 14.1375 17.7501C14.1375 16.5001 13.0375 15.4001 11.7875 15.4001H11.4625V14.925C11.4625 14.4125 11.0375 13.9875 10.525 13.9875C10.0125 13.9875 9.58749 14.4125 9.58749 14.925V15.4001H8.27499C7.76249 15.4001 7.33749 15.8251 7.33749 16.3376V19.1501V21.9626C7.33749 22.4751 7.76249 22.9001 8.27499 22.9001H9.58749V23.3751C9.58749 23.8876 10.0125 24.3126 10.525 24.3126C11.0375 24.3126 11.4625 23.8876 11.4625 23.3751V22.9001H12.2875C13.6875 22.9001 14.8375 21.85 14.8375 20.55C14.8375 19.8375 14.4625 19.1876 13.9 18.7626ZM9.21249 17.2751H11.7875C12.05 17.2751 12.2625 17.5626 12.2625 17.7501C12.2625 18.0126 12.05 18.2251 11.7875 18.2251H9.21249V17.2751ZM12.2875 21.0376H9.2V20.1001H11.775H12.275C12.675 20.1001 12.95 20.3501 12.95 20.5751C12.95 20.8001 12.6875 21.0376 12.2875 21.0376Z" fill="#FF5353"/>
</svg>
