<svg width="35" height="35" viewBox="0 0 35 35" fill="none" xmlns="http://www.w3.org/2000/svg">
<path d="M17.5 35C27.1653 35 35 27.1653 35 17.5C35 7.83475 27.1653 0 17.5 0C7.83475 0 0 7.83475 0 17.5C0 27.1653 7.83475 35 17.5 35Z" fill="#F3BA2F"/>
<path d="M17.5 10.65L12.6448 15.5052L9.82 12.68L17.5 5L25.1825 12.6823L22.3575 15.5073L17.5 10.65Z" fill="#312A64"/>
<path d="M7.8251 14.6745L5 17.5L7.8249 20.3245L10.65 17.4994L7.8251 14.6745Z" fill="#312A64"/>
<path d="M17.5 24.35L12.6448 19.4951L9.816 22.316L17.5 30L25.1825 22.3178L25.1839 22.3163L22.3574 19.4928L17.5 24.35Z" fill="#312A64"/>
<path d="M27.1751 14.6761L24.35 17.5012L27.175 20.3261L30 17.501L27.1751 14.6761Z" fill="#312A64"/>
<path d="M20.3664 17.4985H20.3654L20.368 17.4999L20.3666 17.5015L17.5 20.3681L14.6359 17.5036L14.6319 17.4995L14.6359 17.4956L17.5 14.6319L20.3664 17.4985Z" fill="#312A64"/>
</svg>
