<svg width="35" height="35" viewBox="0 0 35 35" fill="none" xmlns="http://www.w3.org/2000/svg">
<path d="M34.4762 21.7337C32.1386 31.1088 22.6422 36.8143 13.265 34.4764C3.89168 32.1391 -1.81447 22.6431 0.524214 13.2686C2.86071 3.89244 12.3571 -1.81366 21.7316 0.523685C31.1082 2.86103 36.8138 12.3581 34.4762 21.7337Z" fill="#F7931A"/>
<path d="M25.2161 15.0068C25.5645 12.6782 23.7915 11.4264 21.3672 10.5913L22.1536 7.43695L20.2335 6.95844L19.4679 10.0297C18.9631 9.90391 18.4447 9.78523 17.9295 9.66766L18.7006 6.57617L16.7817 6.09766L15.9947 9.25094C15.5769 9.15578 15.1667 9.06172 14.7686 8.96273L14.7708 8.95289L12.1228 8.29172L11.612 10.3425C11.612 10.3425 13.0367 10.669 13.0066 10.6892C13.7842 10.8834 13.9248 11.398 13.9013 11.8059L13.0055 15.3995C13.0591 15.4131 13.1285 15.4328 13.2051 15.4634C13.1411 15.4476 13.0727 15.4301 13.0022 15.4131L11.7466 20.4471C11.6514 20.6834 11.4102 21.0377 10.8667 20.9032C10.8858 20.9311 9.47103 20.5548 9.47103 20.5548L8.51782 22.7527L11.0165 23.3756C11.4813 23.4921 11.9369 23.6141 12.3853 23.7289L11.5907 26.9194L13.5086 27.3979L14.2956 24.2413C14.8195 24.3835 15.3281 24.5148 15.8257 24.6384L15.0415 27.7802L16.9616 28.2587L17.7562 25.0742C21.0303 25.6938 23.4924 25.4439 24.5287 22.4826C25.3638 20.0982 24.4871 18.7228 22.7645 17.8259C24.019 17.5366 24.964 16.7114 25.2161 15.0068ZM20.8291 21.1586C20.2357 23.543 16.2211 22.254 14.9195 21.9308L15.9739 17.704C17.2755 18.0288 21.4492 18.672 20.8291 21.1586ZM21.423 14.9723C20.8816 17.1413 17.5402 16.0393 16.4563 15.7691L17.4122 11.9355C18.4961 12.2057 21.9868 12.7099 21.423 14.9723Z" fill="white"/>
</svg>
