<svg width="30" height="30" viewBox="0 0 30 30" fill="none" xmlns="http://www.w3.org/2000/svg">
<path d="M27.5 10.625C27.5 15.1125 23.8625 18.75 19.375 18.75C19.1625 18.75 18.9375 18.7375 18.725 18.725C18.4125 14.7625 15.2375 11.5875 11.275 11.275C11.2625 11.0625 11.25 10.8375 11.25 10.625C11.25 6.1375 14.8875 2.5 19.375 2.5C23.8625 2.5 27.5 6.1375 27.5 10.625Z" fill="#FFA500"/>
<path opacity="0.4" d="M18.75 19.375C18.75 23.8625 15.1125 27.5 10.625 27.5C6.1375 27.5 2.5 23.8625 2.5 19.375C2.5 14.8875 6.1375 11.25 10.625 11.25C10.8375 11.25 11.0625 11.2625 11.275 11.275C15.2375 11.5875 18.4125 14.7625 18.725 18.725C18.7375 18.9375 18.75 19.1625 18.75 19.375Z" fill="#FFA500"/>
<path d="M9.52499 18.275L10.625 16.25L11.725 18.275L13.75 19.375L11.725 20.475L10.625 22.5L9.52499 20.475L7.5 19.375L9.52499 18.275Z" fill="#FFA500"/>
</svg>
