<svg width="15" height="15" viewBox="0 0 15 15" fill="none" xmlns="http://www.w3.org/2000/svg">
<path d="M7.38751 4.3125C9.17501 3.925 10.9875 3.86875 12.7813 4.1625C11.675 2.4125 9.72501 1.25 7.50001 1.25C5.55626 1.25 3.81876 2.1375 2.66876 3.53125C2.94376 4.34375 3.29376 5.11875 3.71251 5.85625C3.95001 6.28125 4.55626 6.2625 4.80001 5.84375C5.33126 4.95 6.28751 4.35 7.38751 4.3125Z" fill="#FFA500"/>
<path d="M4.82501 9.20002C3.57501 7.86252 2.60001 6.33752 1.93126 4.65002C0.993761 6.50002 1.00001 8.76877 2.14376 10.675C3.14376 12.3438 4.79376 13.3813 6.58126 13.65C7.13751 12.9938 7.62501 12.2938 8.04376 11.5625C8.28751 11.1375 7.95626 10.6313 7.46876 10.6313C6.42501 10.6375 5.41876 10.125 4.82501 9.20002Z" fill="#FFA500"/>
<path d="M5.35626 7.50002C5.35626 7.88127 5.45001 8.23752 5.64376 8.57502C6.02501 9.23127 6.73126 9.64377 7.49376 9.64377C8.25626 9.64377 8.96876 9.23127 9.34376 8.57502C9.53751 8.23752 9.63751 7.88127 9.63751 7.50002C9.63751 6.31877 8.67501 5.36252 7.49376 5.36252C6.31876 5.35627 5.35626 6.31877 5.35626 7.50002Z" fill="#FFA500"/>
<path d="M13.3375 5.26249C12.4813 5.08124 11.6125 4.98124 10.75 4.96874C10.2563 4.96249 9.97501 5.49999 10.2188 5.93124C10.4688 6.37499 10.6125 6.88749 10.6125 7.43124C10.6125 7.95624 10.475 8.47499 10.2188 8.93749C9.63126 10.7375 8.75626 12.3375 7.60001 13.75C11.0063 13.6937 13.75 10.9187 13.75 7.49999C13.75 6.71249 13.6063 5.95624 13.3375 5.26249Z" fill="#FFA500"/>
</svg>
