<svg width="28" height="19" viewBox="0 0 28 19" fill="none" xmlns="http://www.w3.org/2000/svg">
<path d="M6.16892 15.212C12.2582 17.5624 17.4402 18.0203 23.3125 14.3617C23.2695 14.4256 22.1079 16.1277 19.0532 17C19.6985 17.8724 20.5806 18.8723 20.5806 18.8723C22.5381 18.8723 24.4527 18.3191 26.109 17.2553C27.3997 16.4042 28.1311 14.9362 27.9805 13.4043C27.7224 10.7872 27.0985 8.23405 26.1305 5.78729C24.9044 2.59582 21.9573 0.383032 18.5369 0.0638598C18.2358 0.0425732 18.0207 0.0425734 17.8916 0.0425734L17.5475 0.382969C21.4841 1.48937 23.4417 3.21276 23.4846 3.27662C17.4399 0.255312 10.298 0.212802 4.21019 3.14896C4.21019 3.14896 6.14625 1.25534 10.427 0.255313L10.1689 0C9.71713 0 9.28689 0.042573 8.83519 0.10637C5.67296 0.638281 3.02707 2.78721 1.88693 5.74466C0.897379 8.29785 0.252046 10.9787 0.0154353 13.7021C-0.113631 15.1489 0.574745 16.5745 1.77939 17.4043C3.37123 18.4468 5.26424 19 7.17878 19C7.17878 19 7.95318 18 8.72764 17.1064C5.82355 16.2553 4.64043 14.5532 4.61891 14.4893L5.16545 14.7654C5.49217 14.9305 5.82713 15.08 6.16892 15.212ZM9.54508 13.3617C8.14681 13.3191 7.04972 12.1489 7.09276 10.7447C7.1358 9.42553 8.21138 8.36171 9.54508 8.31913C10.9434 8.36171 12.0405 9.5319 11.9974 10.9362C11.9328 12.2554 10.8788 13.3192 9.54508 13.3617ZM18.3218 13.3617C16.9235 13.3191 15.8264 12.1489 15.8695 10.7447C15.9125 9.42553 16.9881 8.36171 18.3218 8.31913C19.7201 8.36171 20.8172 9.5319 20.7741 10.9362C20.7311 12.2554 19.6555 13.3192 18.3218 13.3617Z" fill="#7289DA"/>
</svg>
