<svg width="35" height="35" viewBox="0 0 35 35" fill="none" xmlns="http://www.w3.org/2000/svg">
<path d="M29.8274 29.9583C28.1986 31.5903 26.2585 32.8774 24.1226 33.743C21.9867 34.6086 19.6987 35.035 17.3948 34.9969C15.1043 35.0411 12.8288 34.6171 10.7074 33.7508C8.58604 32.8845 6.66341 31.594 5.05704 29.9583C3.41317 28.3556 2.11623 26.4313 1.2469 24.3051C0.377579 22.1789 -0.0455369 19.8963 0.00387969 17.5993C0.00387969 12.5695 1.68826 8.37933 5.05704 5.02895C6.6645 3.39559 8.58763 2.10753 10.7089 1.24346C12.8302 0.379381 15.1052 -0.0425663 17.3948 0.00338807C19.6978 -0.0364909 21.9852 0.387872 24.1211 1.25123C26.2569 2.11459 28.1975 3.39931 29.8274 5.02895C33.2737 8.37933 34.9969 12.5695 34.9969 17.5993C35.0415 19.9062 34.6048 22.197 33.7147 24.3251C32.8245 26.4533 31.5005 28.372 29.8274 29.9583Z" fill="#C8C8C8"/>
<path d="M17.5 5.5L10.5 17.4287L17.5 14.1597V5.5Z" fill="#8B8B8B"/>
<path d="M17.5 14.1597L10.5 17.4287L17.5 21.6756V14.1597Z" fill="#393939"/>
<path d="M17.5 5.5V14.1597L24.4933 17.4287L17.5 5.5Z" fill="#343434"/>
<path d="M17.5 14.1597V21.6756L24.4933 17.4287L17.5 14.1597Z" fill="#161616"/>
<path d="M10.5 18.7902L17.5 28.922V23.0405L10.5 18.7902Z" fill="#8B8B8B"/>
<path d="M24.5 18.7902L17.5 23.0405V28.922L24.5 18.7902Z" fill="#343434"/>
</svg>
