<svg width="22" height="22" viewBox="0 0 22 22" fill="none" xmlns="http://www.w3.org/2000/svg">
<path fill-rule="evenodd" clip-rule="evenodd" d="M11 0C13.0488 0.0233791 14.8997 0.526908 16.5526 1.51059C18.1859 2.47463 19.5445 3.84156 20.4986 5.48066C21.4763 7.14358 21.9768 9.00566 22.0001 11.0669C21.942 13.8872 21.0525 16.296 19.3314 18.2933C17.6104 20.2907 15.4062 21.5263 13.1244 22V14.0928H15.2816L15.7695 10.9854H12.5029V8.9502C12.4848 8.52828 12.6182 8.1138 12.8791 7.78169C13.1403 7.44868 13.6003 7.27365 14.2592 7.25661H16.2317V4.53464C16.2034 4.52553 15.9349 4.48952 15.426 4.42661C14.849 4.35909 14.2687 4.32303 13.6877 4.31858C12.3728 4.32464 11.3328 4.69556 10.5679 5.43134C9.80291 6.1669 9.41214 7.23111 9.39558 8.62396V10.9854H6.9097V14.0928H9.39558V22C6.59386 21.5263 4.38963 20.2907 2.6686 18.2933C0.947574 16.296 0.058072 13.8872 0 11.0669C0.0232341 9.00557 0.523719 7.14348 1.50146 5.48066C2.45554 3.84156 3.81417 2.47463 5.44743 1.51059C7.10034 0.527097 8.9512 0.0235685 11 0Z" fill="#71839B"/>
</svg>
