<svg width="128" height="30" viewBox="0 0 128 30" fill="none" xmlns="http://www.w3.org/2000/svg">
<path d="M26.9252 8.37H31.6536C32.6776 8.37 33.5285 8.445 34.1986 8.6025C34.8687 8.7525 35.4108 8.9925 35.8023 9.3075C36.2014 9.6225 36.48 10.02 36.6381 10.485C36.8038 10.9575 36.8791 11.505 36.8791 12.135C36.8791 12.8625 36.7285 13.4625 36.4348 13.95C36.1412 14.43 35.6066 14.7825 34.8386 14.9925V15.075C36.48 15.4875 37.3007 16.5675 37.3007 18.315C37.3007 18.945 37.2179 19.515 37.0598 20.0175C36.8941 20.52 36.6155 20.9475 36.224 21.285C35.8249 21.6225 35.2903 21.8925 34.6202 22.0725C33.9501 22.2525 33.0993 22.3425 32.0753 22.3425H26.9252V8.37ZM31.0287 14.13C31.5256 14.13 31.9548 14.1075 32.3087 14.0625C32.6701 14.01 32.9562 13.9275 33.1896 13.8075C33.4231 13.6875 33.5887 13.5225 33.6941 13.305C33.7995 13.0875 33.8598 12.81 33.8598 12.4575C33.8598 12.0975 33.8071 11.805 33.6941 11.595C33.5887 11.3775 33.4231 11.2125 33.1972 11.0925C32.9788 10.9725 32.6852 10.8975 32.3162 10.86C31.9548 10.8225 31.5181 10.8075 31.0212 10.8075H29.9896V14.13H31.0287ZM31.4127 19.8825C31.9473 19.8825 32.3991 19.8525 32.7529 19.8C33.1143 19.7475 33.4005 19.6575 33.6113 19.53C33.8296 19.4025 33.9802 19.2225 34.0631 18.9975C34.1534 18.7725 34.1911 18.4725 34.1911 18.1125C34.1911 17.79 34.1459 17.52 34.0631 17.2875C33.9727 17.0625 33.8296 16.875 33.6188 16.7325C33.408 16.59 33.1219 16.4925 32.7605 16.4325C32.3991 16.3725 31.9473 16.3425 31.4052 16.3425H29.9896V19.89H31.4127V19.8825Z" fill="#081131"/>
<path d="M42.7068 11.475H39.7779V22.3425H42.7068V11.475Z" fill="#081131"/>
<path d="M48.8659 13.7624V18.6149C48.8659 18.9374 48.881 19.1999 48.9186 19.3949C48.9487 19.5974 49.0165 19.7549 49.1068 19.8674C49.1972 19.9874 49.3252 20.0624 49.4908 20.1074C49.6565 20.1524 49.8598 20.1749 50.1158 20.1749C50.4621 20.1749 50.7558 20.1449 50.9817 20.0924V22.3499C50.7633 22.3724 50.5374 22.4024 50.2965 22.4174C50.0555 22.4399 49.8146 22.4474 49.5661 22.4474C48.896 22.4474 48.3238 22.3949 47.857 22.2899C47.3901 22.1849 47.0212 21.9974 46.7351 21.7274C46.449 21.4574 46.2457 21.0899 46.1177 20.6249C45.9897 20.1599 45.9294 19.5674 45.9294 18.8549V13.7624H44.4988V11.4749H45.937V8.8949H48.8659V11.4749H51.1247V13.7699H48.8659V13.7624Z" fill="#081131"/>
<path d="M72.8471 11.2875C73.7657 11.2875 74.5337 11.3625 75.1586 11.52C75.7835 11.67 76.288 11.9025 76.672 12.195C77.056 12.4875 77.3346 12.855 77.5002 13.29C77.6734 13.725 77.7562 14.235 77.7562 14.805V22.335H75.1285L74.8499 21.0675C74.6165 21.4725 74.2099 21.8175 73.6151 22.1025C73.0202 22.3875 72.2748 22.5375 71.3713 22.5375C70.144 22.5375 69.2179 22.2675 68.5854 21.72C67.9529 21.18 67.6367 20.34 67.6367 19.215C67.6367 17.955 68.0132 17.07 68.7812 16.56C69.5417 16.05 70.656 15.795 72.1242 15.795H74.8348V15.5175C74.8348 15.195 74.8047 14.9175 74.7445 14.6925C74.6842 14.4675 74.5638 14.28 74.3906 14.1375C74.2174 13.995 73.984 13.89 73.6828 13.8225C73.3817 13.755 72.9977 13.725 72.5082 13.725C72.1167 13.725 71.7252 13.74 71.3337 13.7775C70.9421 13.815 70.5581 13.86 70.1817 13.9275V11.4525C70.6033 11.4 71.0475 11.3625 71.537 11.3325C72.0188 11.3025 72.4555 11.2875 72.8471 11.2875ZM72.1167 20.3025C72.7944 20.3025 73.3591 20.1825 73.8334 19.95C74.3078 19.71 74.6315 19.41 74.8198 19.035V17.7675H72.5534C71.8231 17.7675 71.3035 17.8575 70.9873 18.03C70.6711 18.2025 70.513 18.5625 70.513 19.1175C70.513 19.5525 70.6334 19.8525 70.8894 20.0325C71.1454 20.2125 71.552 20.3025 72.1167 20.3025Z" fill="#081131"/>
<path d="M83.7571 22.4549C83.1247 22.4549 82.5148 22.4249 81.92 22.3649C81.3251 22.3049 80.7906 22.2224 80.3011 22.1099V19.6724C80.8282 19.8374 81.3779 19.9574 81.9651 20.0474C82.5524 20.1374 83.0946 20.1824 83.5915 20.1824C84.224 20.1824 84.6833 20.1074 84.9694 19.9649C85.2555 19.8149 85.4061 19.5299 85.4061 19.1024C85.4061 18.8849 85.376 18.7049 85.3233 18.5624C85.2706 18.4124 85.1651 18.2924 85.007 18.1799C84.8564 18.0749 84.6381 17.9774 84.3746 17.8874C84.1035 17.7974 83.7496 17.6999 83.3054 17.5949C82.7256 17.4599 82.2513 17.3099 81.8748 17.1449C81.4983 16.9799 81.1971 16.7774 80.9863 16.5449C80.768 16.3049 80.6249 16.0274 80.5421 15.6974C80.4593 15.3674 80.4216 14.9774 80.4216 14.5199C80.4216 14.0099 80.4969 13.5524 80.655 13.1549C80.8056 12.7499 81.0616 12.4124 81.4155 12.1349C81.7619 11.8574 82.2136 11.6474 82.7708 11.4974C83.3204 11.3474 83.9981 11.2799 84.7887 11.2799C85.3986 11.2799 85.9708 11.3174 86.5129 11.3849C87.055 11.4524 87.4842 11.5349 87.7779 11.6474L87.6574 13.8824C87.5068 13.8449 87.3261 13.7999 87.1153 13.7549C86.8969 13.7099 86.6635 13.6649 86.415 13.6199C86.1666 13.5824 85.9106 13.5449 85.647 13.5149C85.3835 13.4924 85.135 13.4774 84.8866 13.4774C84.2089 13.4774 83.7571 13.5524 83.5237 13.6949C83.2828 13.8449 83.1699 14.1074 83.1699 14.4824C83.1699 14.6549 83.1924 14.7974 83.2376 14.9099C83.2828 15.0149 83.3807 15.1124 83.5313 15.1874C83.6819 15.2699 83.8851 15.3524 84.1487 15.4274C84.4122 15.5099 84.7586 15.5999 85.1877 15.7124C85.7826 15.8624 86.272 16.0199 86.6635 16.2074C87.055 16.3874 87.3637 16.6049 87.5971 16.8524C87.8306 17.0999 87.9811 17.3999 88.0715 17.7599C88.1543 18.1124 88.1995 18.5399 88.1995 19.0349C88.1995 19.6799 88.1016 20.2199 87.8983 20.6549C87.695 21.0899 87.4089 21.4424 87.0324 21.7124C86.656 21.9824 86.1891 22.1774 85.6395 22.2974C85.0823 22.4024 84.4574 22.4549 83.7571 22.4549Z" fill="#081131"/>
<path d="M100.661 7.04248V22.335H98.0179L97.7995 20.8275C97.5812 21.3225 97.2198 21.7275 96.7228 22.05C96.2184 22.3725 95.4654 22.5375 94.4715 22.5375C93.5831 22.5375 92.8527 22.4025 92.288 22.1475C91.7233 21.885 91.2791 21.51 90.9553 21.0225C90.6315 20.5275 90.4132 19.935 90.2927 19.2375C90.1722 18.54 90.112 17.76 90.112 16.905C90.112 16.125 90.1722 15.3975 90.2927 14.715C90.4132 14.0325 90.6315 13.4325 90.9553 12.9225C91.2791 12.4125 91.7233 12.0075 92.288 11.715C92.8527 11.4225 93.5831 11.2725 94.4715 11.2725C95.4654 11.2725 96.2108 11.415 96.7002 11.7075C97.1896 11.9925 97.5435 12.3825 97.7619 12.8625V7.04248H100.661ZM95.3901 20.325C95.8871 20.325 96.3012 20.25 96.6249 20.1075C96.9487 19.9575 97.2047 19.74 97.3929 19.4475C97.5812 19.155 97.7167 18.7875 97.7845 18.3675C97.8598 17.94 97.8974 17.46 97.8974 16.905C97.8974 16.38 97.8598 15.9075 97.7845 15.4875C97.7092 15.06 97.5812 14.7 97.3929 14.4C97.2047 14.1 96.9487 13.86 96.6249 13.695C96.3012 13.5225 95.8946 13.44 95.3901 13.44C94.8781 13.44 94.4715 13.53 94.1704 13.725C93.8692 13.9125 93.6358 14.1675 93.4852 14.475C93.3346 14.79 93.2292 15.1575 93.184 15.57C93.1388 15.99 93.1162 16.4325 93.1162 16.8975C93.1162 17.3925 93.1388 17.85 93.184 18.2775C93.2292 18.6975 93.3346 19.0575 93.5002 19.365C93.6584 19.665 93.8918 19.8975 94.2005 20.07C94.4941 20.2425 94.8932 20.325 95.3901 20.325Z" fill="#081131"/>
<path d="M108.175 11.2875C109.094 11.2875 109.862 11.3625 110.487 11.52C111.112 11.67 111.616 11.9025 112 12.195C112.384 12.4875 112.663 12.855 112.828 13.29C113.001 13.725 113.084 14.235 113.084 14.805V22.335H110.456L110.178 21.0675C109.944 21.4725 109.538 21.8175 108.943 22.1025C108.348 22.3875 107.603 22.5375 106.699 22.5375C105.472 22.5375 104.546 22.2675 103.913 21.72C103.281 21.18 102.965 20.34 102.965 19.215C102.965 17.955 103.341 17.07 104.109 16.56C104.87 16.05 105.984 15.795 107.452 15.795H110.163V15.5175C110.163 15.195 110.133 14.9175 110.072 14.6925C110.012 14.4675 109.892 14.28 109.719 14.1375C109.545 13.995 109.312 13.89 109.011 13.8225C108.717 13.755 108.326 13.725 107.836 13.725C107.445 13.725 107.053 13.74 106.662 13.7775C106.27 13.815 105.886 13.86 105.51 13.9275V11.4525C105.931 11.4 106.376 11.3625 106.865 11.3325C107.347 11.3025 107.784 11.2875 108.175 11.2875ZM107.452 20.3025C108.13 20.3025 108.695 20.1825 109.169 19.95C109.643 19.71 109.967 19.41 110.155 19.035V17.7675H107.889C107.159 17.7675 106.639 17.8575 106.323 18.03C106.007 18.2025 105.848 18.5625 105.848 19.1175C105.848 19.5525 105.969 19.8525 106.225 20.0325C106.481 20.2125 106.888 20.3025 107.452 20.3025Z" fill="#081131"/>
<path d="M126.118 11.475V26.3625H123.189V20.8275C122.97 21.3375 122.616 21.75 122.127 22.065C121.638 22.38 120.892 22.5375 119.898 22.5375C119.01 22.5375 118.28 22.4025 117.715 22.1475C117.15 21.885 116.706 21.51 116.382 21.0225C116.058 20.5275 115.84 19.935 115.72 19.2375C115.599 18.54 115.539 17.76 115.539 16.905C115.539 16.125 115.599 15.3975 115.72 14.715C115.84 14.0325 116.058 13.4325 116.382 12.9225C116.706 12.4125 117.15 12.0075 117.715 11.715C118.28 11.4225 119.01 11.2725 119.898 11.2725C120.892 11.2725 121.638 11.415 122.127 11.7075C122.616 12 122.97 12.3825 123.189 12.8625V11.475H126.118ZM120.824 20.325C121.321 20.325 121.736 20.25 122.059 20.1075C122.383 19.9575 122.639 19.74 122.827 19.4475C123.016 19.155 123.151 18.7875 123.219 18.3675C123.294 17.94 123.332 17.46 123.332 16.905C123.332 16.38 123.294 15.9075 123.219 15.4875C123.144 15.06 123.016 14.7 122.827 14.4C122.639 14.1 122.383 13.86 122.059 13.695C121.736 13.5225 121.329 13.44 120.824 13.44C120.312 13.44 119.906 13.53 119.605 13.725C119.304 13.9125 119.07 14.1675 118.92 14.475C118.769 14.79 118.664 15.1575 118.618 15.57C118.573 15.99 118.551 16.4325 118.551 16.8975C118.551 17.3925 118.573 17.85 118.618 18.2775C118.664 18.6975 118.769 19.0575 118.935 19.365C119.093 19.665 119.326 19.8975 119.635 20.07C119.928 20.2425 120.328 20.325 120.824 20.325Z" fill="#081131"/>
<path d="M56.0565 12.0525H58.7897L62.3285 18.8175H62.4264L67.2377 6.69751H69.6546L64.0377 22.2H61.5454L57.5548 14.8875H57.4569L55.3186 22.2H52.8866L56.0565 12.0525Z" fill="#081131"/>
<path d="M69.5944 3.63745L64.8508 6.97495L71.1529 9.20995L69.5944 3.63745Z" fill="#081131"/>
<path d="M41.2461 4.97241L38.1666 9.78741H44.3256L41.2461 4.97241Z" fill="#081131"/>
<path d="M64.0376 22.2074L64.0753 22.0874L62.3586 18.8249H62.3209L59.3092 13.0574L58.7821 12.0599H56.0565L57.8485 15.4349L61.5454 22.2074H64.0376Z" fill="#081131"/>
<path d="M18.7633 14.4225L23.3863 8.59501L16.256 0.0150146H1.12939V29.9775H18.2362L24.832 20.9475L18.7633 14.4225ZM13.696 4.72501L16.655 8.66251L14.5769 10.38L10.4508 4.72501H13.696ZM5.61692 7.55251H6.8141L10.4433 12.8775H5.61692V7.55251ZM5.61692 25.59C5.4061 25.59 5.61692 19.1625 5.61692 19.1625H6.78398L11.0833 25.59C11.0833 25.59 5.82775 25.59 5.61692 25.59ZM16.0602 23.9025L11.3317 17.2275H15.1416L18.3492 21.6525L16.0602 23.9025Z" fill="url(#paint0_linear_0_594)"/>
<defs>
<linearGradient id="paint0_linear_0_594" x1="12.9784" y1="0.0183896" x2="12.9784" y2="29.9816" gradientUnits="userSpaceOnUse">
<stop offset="5.20186e-07" stop-color="#FFA700"/>
<stop offset="1" stop-color="#FF7F00"/>
</linearGradient>
</defs>
</svg>
