<svg width="60" height="60" viewBox="0 0 60 60" fill="none" xmlns="http://www.w3.org/2000/svg">
<path d="M29.9246 52.1542L10.2622 35.6555C9.81052 35.2765 9.7516 34.603 10.1306 34.1513C10.5096 33.6996 11.1831 33.6407 11.6348 34.0197L31.2971 50.5184C31.7488 50.8974 31.8077 51.5709 31.4287 52.0226C31.0497 52.4743 30.3763 52.5332 29.9246 52.1542Z" fill="url(#paint0_linear_1_1113)"/>
<path d="M13.3332 45.9722L21.111 53.75H5.55542L13.3332 45.9722Z" fill="#FFA500"/>
<path d="M35.6944 43.0555C45.8963 43.0555 54.1666 34.7852 54.1666 24.5833C54.1666 14.3814 45.8963 6.11111 35.6944 6.11111C25.4925 6.11111 17.2222 14.3814 17.2222 24.5833C17.2222 34.7852 25.4925 43.0555 35.6944 43.0555Z" fill="url(#paint1_linear_1_1113)"/>
<defs>
<linearGradient id="paint0_linear_1_1113" x1="8.45118" y1="32.4565" x2="16.7101" y2="26.4475" gradientUnits="userSpaceOnUse">
<stop stop-color="#FFA500"/>
<stop offset="1" stop-color="#FF5C00"/>
</linearGradient>
<linearGradient id="paint1_linear_1_1113" x1="14.065" y1="28.3693" x2="65.4171" y2="44.2336" gradientUnits="userSpaceOnUse">
<stop stop-color="#FFA500"/>
<stop offset="1" stop-color="#FF5C00"/>
</linearGradient>
</defs>
</svg>
