<svg width="27" height="27" viewBox="0 0 27 27" fill="none" xmlns="http://www.w3.org/2000/svg">
<path d="M1.86653 0.417266C1.56125 0.740369 1.38074 1.24203 1.38074 1.89204V25.1079C1.38074 25.7585 1.5613 26.2596 1.86653 26.5827L1.9442 26.6584L14.9493 13.6534V13.5V13.3466L1.9442 0.341064L1.86653 0.417266Z" fill="#081131" fill-opacity="0.35"/>
<path d="M19.2841 17.9902L14.9493 13.6533V13.5V13.3465L19.2851 9.01074L19.3828 9.06648L24.5189 11.9849C25.986 12.8183 25.986 14.1821 24.5189 15.0161L19.3828 17.9345L19.2841 17.9902Z" fill="#A5A8B3"/>
<path d="M19.3828 17.934L14.9493 13.5L1.86653 26.5827C2.35026 27.0946 3.14845 27.158 4.04799 26.6471L19.3828 17.934Z" fill="#081131"/>
<path d="M19.3828 9.06598L4.04799 0.352837C3.14845 -0.158054 2.35026 -0.0946673 1.86653 0.417278L14.9493 13.5L19.3828 9.06598Z" fill="#081131"/>
</svg>
