<svg width="60" height="60" viewBox="0 0 60 60" fill="none" xmlns="http://www.w3.org/2000/svg">
<path d="M29.7854 46.4584C39.9548 46.4584 48.1987 38.2969 48.1987 28.2292C48.1987 18.1615 39.9548 10 29.7854 10C19.616 10 11.3721 18.1615 11.3721 28.2292C11.3721 38.2969 19.616 46.4584 29.7854 46.4584Z" fill="url(#paint0_linear_1_1121)"/>
<path d="M49.9871 40.0919H9.58306C7.66541 40.0919 6.11084 41.6465 6.11084 43.5641V46.4576C6.11084 48.3753 7.66541 49.9298 9.58306 49.9298H49.9871C51.9048 49.9298 53.4593 48.3753 53.4593 46.4576V43.5641C53.4593 41.6465 51.9048 40.0919 49.9871 40.0919Z" fill="#FFA500"/>
<path fill-rule="evenodd" clip-rule="evenodd" d="M43.7663 40.092C40.3893 43.9893 35.3784 46.4583 29.785 46.4583C24.1916 46.4583 19.1807 43.9893 15.8037 40.092H43.7663Z" fill="#FFC98A"/>
<path fill-rule="evenodd" clip-rule="evenodd" d="M22.2837 28.4276C22.2837 29.3864 23.061 30.1637 24.0198 30.1637C24.9786 30.1637 25.7559 29.3864 25.7559 28.4276V24.1585C25.7559 23.1996 24.9786 22.4224 24.0198 22.4224C23.061 22.4224 22.2837 23.1996 22.2837 24.1585V28.4276ZM33.1988 28.4276C33.1988 29.3864 33.9761 30.1637 34.9349 30.1637C35.8938 30.1637 36.671 29.3864 36.671 28.4276V24.1585C36.671 23.1996 35.8938 22.4224 34.9349 22.4224C33.9761 22.4224 33.1988 23.1996 33.1988 24.1585V28.4276Z" fill="white"/>
<defs>
<linearGradient id="paint0_linear_1_1121" x1="8.22496" y1="31.9654" x2="59.3229" y2="47.9106" gradientUnits="userSpaceOnUse">
<stop stop-color="#FFA500"/>
<stop offset="1" stop-color="#FF5C00"/>
</linearGradient>
</defs>
</svg>
