<svg width="27" height="24" viewBox="0 0 27 24" fill="none" xmlns="http://www.w3.org/2000/svg">
<path d="M26.9467 12.2095C26.8794 10.5925 25.5319 9.31236 23.8812 9.34605C23.1401 9.37973 22.4663 9.68292 21.961 10.1545C19.6703 8.57124 16.9416 7.72906 14.1456 7.66168L15.4594 1.36217L19.805 2.23804C19.9398 3.34972 20.9167 4.15821 22.0284 4.02346C23.1401 3.88871 23.9486 2.91178 23.8138 1.8001C23.6791 0.688425 22.7021 -0.120069 21.5905 0.0146796C20.9504 0.0820541 20.3777 0.452614 20.0745 0.99161L15.1225 0.0146796C14.7856 -0.0526949 14.4488 0.149429 14.3814 0.486301L12.8991 7.52694C10.0694 7.56062 7.34075 8.43649 4.98265 10.0198C3.80359 8.90811 1.91711 8.9418 0.805427 10.1545C-0.306252 11.3336 -0.272564 13.2201 0.940177 14.3318C1.17599 14.5339 1.44549 14.736 1.74867 14.8708C1.71498 15.1739 1.71498 15.4771 1.74867 15.7466C1.74867 20.2944 7.03757 24 13.5729 24C20.1082 24 25.3971 20.3281 25.3971 15.7466C25.4308 15.4434 25.4308 15.1403 25.3971 14.8708C26.3404 14.3991 26.9804 13.3548 26.9467 12.2095ZM6.63332 14.2644C6.63332 13.1527 7.54288 12.2432 8.65456 12.2432C9.76624 12.2432 10.6758 13.1527 10.6758 14.2644C10.6758 15.3761 9.76624 16.2856 8.65456 16.2856C7.54288 16.2856 6.63332 15.3761 6.63332 14.2644ZM18.4239 19.8565C16.9753 20.9345 15.2236 21.5071 13.4381 21.4061C11.6527 21.4735 9.8673 20.9345 8.45243 19.8565C8.25031 19.6207 8.284 19.2838 8.51981 19.0817C8.72193 18.9132 8.99143 18.9132 9.22724 19.0817C10.44 19.9575 11.9222 20.4292 13.4381 20.3618C14.9541 20.4292 16.4363 20.0249 17.6827 19.1153C17.9186 18.9132 18.2554 18.9132 18.4912 19.1153C18.6934 19.3512 18.6934 19.688 18.4912 19.9238V19.8565H18.4239ZM18.087 16.3867C16.9753 16.3867 16.0658 15.4771 16.0658 14.3654C16.0658 13.2538 16.9753 12.3442 18.087 12.3442C19.1987 12.3442 20.1082 13.2538 20.1082 14.3654C20.1419 15.4771 19.2997 16.4204 18.1544 16.4541C18.1207 16.4541 18.087 16.4541 18.0533 16.4541L18.087 16.3867Z" fill="#71839B"/>
</svg>
