<svg width="21" height="21" viewBox="0 0 21 21" fill="none" xmlns="http://www.w3.org/2000/svg">
<path d="M2.6964 0.000488281H18.3049C19.7877 0.000488281 21 1.21317 21 2.69605V18.3045C21 19.787 19.7877 20.9988 18.3049 20.9988H2.6964C1.21352 20.9988 0 19.7869 0 18.3045V2.69605C0 1.21317 1.21352 0.000488281 2.6964 0.000488281ZM15.2982 2.33268C14.7776 2.33268 14.3529 2.75905 14.3529 3.27943V5.54141C14.3529 6.062 14.7776 6.48739 15.2982 6.48739H17.6714C18.1912 6.48739 18.6168 6.062 18.6168 5.54141V3.27943C18.6168 2.75905 18.1912 2.33268 17.6714 2.33268H15.2982ZM18.6259 8.88041H16.7782C16.9534 9.45266 17.0484 10.0561 17.0484 10.6835C17.0484 14.1753 14.1247 17.0073 10.5197 17.0073C6.91565 17.0073 3.99196 14.1753 3.99196 10.6835C3.99196 10.0561 4.08786 9.45266 4.26223 8.88041H2.3345V17.7516C2.3345 18.2111 2.70963 18.5848 3.16862 18.5848H17.7921C18.2515 18.5848 18.6259 18.2111 18.6259 17.7516V8.88041ZM10.5198 6.36811C8.19161 6.36811 6.30301 8.19707 6.30301 10.4553C6.30301 12.7112 8.19161 14.5415 10.5198 14.5415C12.8493 14.5415 14.7379 12.7112 14.7379 10.4553C14.7379 8.197 12.8493 6.36811 10.5198 6.36811Z" fill="#71839B"/>
</svg>
