<svg width="24" height="29" viewBox="0 0 24 29" fill="none" xmlns="http://www.w3.org/2000/svg">
<path fill-rule="evenodd" clip-rule="evenodd" d="M16.9699 0.823242C17.2133 2.48466 16.5403 4.11229 15.6527 5.26386C14.7029 6.49907 13.0658 7.45443 11.4797 7.40456C11.1902 5.81391 11.9315 4.17502 12.8336 3.0733C13.8231 1.8574 15.5189 0.924571 16.9699 0.823242ZM21.7213 24.2032C22.539 22.9439 22.8446 22.3086 23.4793 20.8868C18.8625 19.1224 18.1228 12.5267 22.6918 9.99512C21.2982 8.23882 19.3398 7.22073 17.4912 7.22073C16.1592 7.22073 15.2465 7.57005 14.4169 7.88761C13.7255 8.15225 13.0917 8.39483 12.3208 8.39483C11.4878 8.39483 10.7501 8.12903 9.9777 7.85072C9.12892 7.54489 8.23818 7.22395 7.13288 7.22395C5.05835 7.22395 2.8502 8.49776 1.45021 10.6754C-0.51772 13.7425 -0.182046 19.5085 3.00928 24.4202C4.14995 26.1782 5.67403 28.1532 7.66742 28.171C8.49452 28.1792 9.04491 27.9311 9.64051 27.6627C10.3223 27.3554 11.0632 27.0214 12.3463 27.0145C13.6367 27.0067 14.366 27.3448 15.0387 27.6566C15.6191 27.9256 16.1573 28.175 16.9774 28.1661C18.9724 28.1501 20.5807 25.961 21.7213 24.2032Z" fill="#081131"/>
</svg>
