<svg width="28" height="28" viewBox="0 0 28 28" fill="none" xmlns="http://www.w3.org/2000/svg">
<mask id="mask0_1_992" style="mask-type:alpha" maskUnits="userSpaceOnUse" x="0" y="0" width="28" height="28">
<rect width="28" height="28" fill="#D9D9D9"/>
</mask>
<g mask="url(#mask0_1_992)">
<path fill-rule="evenodd" clip-rule="evenodd" d="M19.4185 0C19.6677 1.70072 18.9788 3.36685 18.0702 4.54566C17.0979 5.8101 15.4221 6.78805 13.7985 6.73701C13.5022 5.10873 14.2609 3.43107 15.1844 2.30329C16.1973 1.05862 17.9333 0.103726 19.4185 0ZM24.2824 23.933C25.1195 22.6439 25.4322 21.9936 26.082 20.5382C21.356 18.732 20.5988 11.9803 25.2759 9.38885C23.8493 7.591 21.8446 6.54883 19.9522 6.54883C18.5887 6.54883 17.6545 6.90641 16.8052 7.23148C16.0974 7.50238 15.4486 7.7507 14.6596 7.7507C13.8068 7.7507 13.0517 7.47861 12.261 7.19372C11.3921 6.88065 10.4803 6.55212 9.34888 6.55212C7.22528 6.55212 4.96489 7.85606 3.53178 10.0853C1.5173 13.2249 1.86091 19.1273 5.12773 24.1552C6.29539 25.9548 7.85551 27.9765 9.89606 27.9947C10.7427 28.0031 11.3061 27.7492 11.9158 27.4744C12.6137 27.1598 13.3722 26.8179 14.6856 26.8109C16.0066 26.8029 16.7531 27.1489 17.4418 27.4681C18.0358 27.7434 18.5868 27.9988 19.4263 27.9897C21.4684 27.9733 23.1148 25.7324 24.2824 23.933Z" fill="#081131"/>
</g>
</svg>
