<svg width="28" height="28" viewBox="0 0 28 28" fill="none" xmlns="http://www.w3.org/2000/svg">
<path d="M9.06604 18.7602L5.34543 12.3159L2.49028 13.962C0.712703 14.9929 0.101794 17.2668 1.1327 19.0486C2.15937 20.8262 4.43331 21.4371 6.21513 20.4105L9.06604 18.7602Z" fill="#FFA500"/>
<path d="M21.5472 7.45824C21.6278 7.594 21.7678 7.67036 21.9163 7.67036C21.9884 7.67036 22.0606 7.65339 22.1284 7.61521L25.5563 5.634C25.76 5.51521 25.8278 5.25642 25.7133 5.05278C25.5945 4.84915 25.3357 4.78127 25.1321 4.89581L21.7042 6.87703C21.5006 6.99581 21.4284 7.2546 21.5472 7.45824Z" fill="#FFA500"/>
<path d="M26.9266 10.3304L22.9727 10.5043C22.7393 10.5128 22.5569 10.7122 22.5654 10.9455C22.5739 11.1746 22.7648 11.3528 22.9897 11.3528H23.0066L26.9606 11.1789C27.1939 11.1704 27.3763 10.971 27.3678 10.7377C27.3593 10.5001 27.1642 10.3262 26.9266 10.3304Z" fill="#FFA500"/>
<path d="M19.0357 4.8322C19.1078 4.87887 19.1842 4.90008 19.2648 4.90008C19.4048 4.90008 19.5406 4.8322 19.6212 4.70493L21.7509 1.36614C21.8781 1.16674 21.8187 0.907957 21.6236 0.780684C21.4242 0.653411 21.1654 0.712805 21.0381 0.912199L18.9084 4.25099C18.7812 4.44614 18.8406 4.70493 19.0357 4.8322Z" fill="#FFA500"/>
<path d="M8.91754 19.825L6.63512 21.1443C6.32966 21.3183 6.00724 21.4498 5.67633 21.5516C6.0836 23.5795 7.123 25.4292 8.64603 26.8292C9.21451 27.351 10.0545 27.4359 10.7206 27.0498C10.7375 27.0413 10.7503 27.0328 10.7672 27.0243C11.7388 26.4643 11.9594 25.1492 11.2085 24.3177C10.0715 23.0492 9.27815 21.5007 8.91754 19.825Z" fill="#FFA500"/>
<path d="M14.5939 11.2722C13.2109 8.87523 12.0909 6.50796 11.4418 4.60311C11.0727 3.51281 10.8733 2.64735 10.8479 1.97705C9.97817 3.12251 9.53272 5.00614 8.93878 6.62675C8.23878 8.82008 7.27575 10.5595 6.00726 11.7601L9.8806 18.4716C11.5564 17.971 13.5461 18.0092 15.7945 18.497C17.5042 18.7898 19.3751 19.354 20.8048 19.1631C18.3145 17.6231 15.0182 12.0019 14.5939 11.2722Z" fill="#FFA500"/>
<path d="M11.9848 1.04379C11.2 1.49773 12.0612 4.51833 13.9363 8.2644C15.2897 7.62803 16.9272 8.12015 17.6866 9.43955C18.4503 10.7589 18.0557 12.4262 16.8254 13.2789C19.1503 16.8129 21.3606 19.1038 22.1497 18.6456C23.1085 18.0898 21.6151 13.6989 18.8066 8.83712C15.9982 3.9753 12.9479 0.488032 11.9848 1.04379Z" fill="#FF4D00"/>
</svg>
