<svg width="60" height="60" viewBox="0 0 60 60" fill="none" xmlns="http://www.w3.org/2000/svg">
<path d="M29.4081 31.8145C35.4484 31.8145 40.345 26.9402 40.345 20.9274C40.345 14.9146 35.4484 10.0403 29.4081 10.0403C23.3678 10.0403 18.4712 14.9146 18.4712 20.9274C18.4712 26.9402 23.3678 31.8145 29.4081 31.8145Z" fill="#FFE7B9"/>
<path d="M44.4591 20.9274H14.3571C11.5957 20.9274 9.35712 23.166 9.35712 25.9274V43.1452C9.35712 45.9066 11.5957 48.1452 14.3571 48.1452H44.4591C47.2205 48.1452 49.4591 45.9066 49.4591 43.1452V25.9274C49.4591 23.166 47.2205 20.9274 44.4591 20.9274Z" fill="url(#paint0_linear_1_1071)"/>
<path d="M49.4591 24.5565H9.35712V30H49.4591V24.5565Z" fill="#FFE7B9"/>
<path d="M22.1168 40.8871H13.0027V43.6089H22.1168V40.8871Z" fill="#FFE7B9"/>
<path d="M29.4081 40.8871H23.9397V43.6089H29.4081V40.8871Z" fill="#FFE7B9"/>
<defs>
<linearGradient id="paint0_linear_1_1071" x1="5.93006" y1="37.3255" x2="56.5115" y2="60.3488" gradientUnits="userSpaceOnUse">
<stop stop-color="#FFA500"/>
<stop offset="1" stop-color="#FF5C00"/>
</linearGradient>
</defs>
</svg>
