<svg width="23" height="27" viewBox="0 0 23 27" fill="none" xmlns="http://www.w3.org/2000/svg">
<path fill-rule="evenodd" clip-rule="evenodd" d="M14.7434 2.76481L15.0251 2.33842L15.3067 1.91825L15.9342 0.973609C16.0123 0.857542 15.9802 0.700513 15.8639 0.62417C15.749 0.545975 15.5914 0.578239 15.5164 0.694932L14.5582 2.13174L14.2704 2.56435C13.3597 2.20995 12.3449 2.01196 11.2734 2.01196C10.2035 2.01196 9.18709 2.20995 8.27642 2.56435L7.99016 2.13174L7.03351 0.694932C6.95544 0.578239 6.79932 0.547215 6.68299 0.62417C6.56817 0.700513 6.53604 0.857542 6.61257 0.973609L7.24013 1.91825L7.52178 2.33842L7.80495 2.76481C5.66662 3.76346 4.22016 5.65397 4.22016 7.81819H18.3267C18.3267 5.65397 16.8802 3.76346 14.7434 2.76481ZM14.2965 5.79858C13.8787 5.79858 13.5404 5.4597 13.5404 5.04076C13.5404 4.62244 13.8787 4.2848 14.2965 4.2848C14.7143 4.2848 15.0526 4.62244 15.0526 5.04076C15.0526 5.4597 14.7143 5.79858 14.2965 5.79858ZM7.49424 5.04076C7.49424 5.4597 7.83251 5.79858 8.25034 5.79858C8.66831 5.79858 9.00647 5.4597 9.00647 5.04076C9.00647 4.62244 8.66831 4.2848 8.25034 4.2848C7.83251 4.2848 7.49424 4.62244 7.49424 5.04076ZM18.3267 8.82676H4.22016V19.9327C4.22016 20.8147 4.93497 21.5322 5.81664 21.5322H6.96769C6.92788 21.6656 6.90645 21.8053 6.90645 21.9524V25.15C6.90645 25.986 7.58452 26.6638 8.4187 26.6638C9.25295 26.6638 9.93096 25.986 9.93096 25.15V21.9524C9.93096 21.8053 9.90814 21.6656 9.86979 21.5322H12.677C12.6387 21.6656 12.6173 21.8053 12.6173 21.9524V25.15C12.6173 25.986 13.2939 26.6638 14.1281 26.6638C14.9638 26.6638 15.642 25.986 15.642 25.15V21.9524C15.642 21.8053 15.619 21.6656 15.5791 21.5322H16.7317C17.6134 21.5322 18.3267 20.8147 18.3267 19.9327V8.82676ZM1.70071 8.82676C0.864965 8.82676 0.188416 9.50451 0.188416 10.3405V16.8195C0.188416 17.6556 0.864965 18.3333 1.70071 18.3333C2.53491 18.3333 3.21146 17.6556 3.21146 16.8195V10.3405C3.21146 9.50451 2.53491 8.82676 1.70071 8.82676ZM20.8477 8.82676C20.0119 8.82676 19.3353 9.50451 19.3353 10.3405V16.8195C19.3353 17.6556 20.0119 18.3333 20.8477 18.3333C21.6818 18.3333 22.3584 17.6556 22.3584 16.8195V10.3405C22.3584 9.50451 21.6818 8.82676 20.8477 8.82676Z" fill="#081131"/>
</svg>
