<svg width="21" height="21" viewBox="0 0 21 21" fill="none" xmlns="http://www.w3.org/2000/svg">
<g clip-path="url(#clip0_0_628)">
<path d="M13.1586 9.69552C14.3586 9.69552 15.3349 8.71918 15.3349 7.51911V2.17633C15.3349 0.976295 14.3586 0 13.1586 0C11.9585 0 10.9821 0.976295 10.9821 2.17633V7.51915C10.9822 8.71918 11.9585 9.69552 13.1586 9.69552Z" fill="#E01E5A"/>
<path d="M17.2625 9.69552H18.8237C20.0237 9.69552 21 8.71918 21 7.5191C21 6.31907 20.0237 5.34277 18.8237 5.34277C17.6236 5.34277 16.6473 6.31907 16.6473 7.5191V9.08028C16.6473 9.42005 16.9228 9.69552 17.2625 9.69552Z" fill="black"/>
<path d="M2.17633 10.0177H7.51911C8.71914 10.0177 9.69544 9.04141 9.69544 7.84133C9.69544 6.64133 8.71914 5.66504 7.51911 5.66504H2.17633C0.976295 5.66508 0 6.64138 0 7.84137C0 9.0414 0.976295 10.0177 2.17633 10.0177Z" fill="#EBB22F"/>
<path d="M7.51907 4.35266H9.08016C9.41993 4.35266 9.6954 4.0772 9.6954 3.73743V2.17633C9.6954 0.976295 8.7191 0 7.51907 0C6.31903 0 5.34274 0.976295 5.34274 2.17633C5.34274 3.37637 6.31903 4.35266 7.51907 4.35266Z" fill="#E01E5A"/>
<path d="M7.84145 11.3044C6.64142 11.3044 5.66512 12.2808 5.66512 13.4809V18.8236C5.66512 20.0237 6.64142 21 7.84145 21C9.04157 21 10.0179 20.0237 10.0179 18.8236V13.4809C10.0179 12.2808 9.04153 11.3044 7.84145 11.3044Z" fill="#30B57E"/>
<path d="M3.73747 11.3044H2.17633C0.976295 11.3044 0 12.2808 0 13.4809C0 14.6809 0.976295 15.6572 2.17633 15.6572C3.37641 15.6572 4.35274 14.6809 4.35274 13.4809V11.9197C4.3527 11.5799 4.07724 11.3044 3.73747 11.3044Z" fill="#36C5F1"/>
<path d="M18.8237 10.9822H13.4809C12.2809 10.9822 11.3046 11.9585 11.3046 13.1586C11.3046 14.3586 12.2809 15.3349 13.4809 15.3349H18.8237C20.0237 15.3349 21 14.3586 21 13.1586C21 11.9585 20.0237 10.9822 18.8237 10.9822Z" fill="#4A154B"/>
<path d="M13.4809 16.6472H11.9198C11.5801 16.6472 11.3046 16.9227 11.3046 17.2625V18.8236C11.3046 20.0237 12.2809 21 13.4809 21C14.681 21 15.6573 20.0237 15.6573 18.8236C15.6573 17.6236 14.681 16.6472 13.4809 16.6472Z" fill="#EBB22F"/>
</g>
<defs>
<clipPath id="clip0_0_628">
<rect width="21" height="21" fill="white"/>
</clipPath>
</defs>
</svg>
