<svg width="26" height="26" viewBox="0 0 26 26" fill="none" xmlns="http://www.w3.org/2000/svg">
<path opacity="0.4" d="M18.2375 0.5H7.7625C3.2125 0.5 0.5 3.2125 0.5 7.7625V18.225C0.5 22.7875 3.2125 25.5 7.7625 25.5H18.225C22.775 25.5 25.4875 22.7875 25.4875 18.2375V7.7625C25.5 3.2125 22.7875 0.5 18.2375 0.5Z" fill="#0ECB81" fill-opacity="0.38"/>
<path d="M6.60001 21.6251C6.08751 21.6251 5.66251 21.2001 5.66251 20.6876V18.1001C5.66251 17.5876 6.08751 17.1626 6.60001 17.1626C7.11251 17.1626 7.53751 17.5876 7.53751 18.1001V20.6876C7.53751 21.2126 7.11251 21.6251 6.60001 21.6251Z" fill="#0ECB81"/>
<path d="M13 21.625C12.4875 21.625 12.0625 21.2 12.0625 20.6875V15.5C12.0625 14.9875 12.4875 14.5625 13 14.5625C13.5125 14.5625 13.9375 14.9875 13.9375 15.5V20.6875C13.9375 21.2125 13.5125 21.625 13 21.625Z" fill="#0ECB81"/>
<path d="M19.4 21.6251C18.8875 21.6251 18.4625 21.2001 18.4625 20.6876V12.9126C18.4625 12.4001 18.8875 11.9751 19.4 11.9751C19.9125 11.9751 20.3375 12.4001 20.3375 12.9126V20.6876C20.3375 21.2126 19.925 21.6251 19.4 21.6251Z" fill="#0ECB81"/>
<path d="M20.3375 5.275C20.3375 5.2125 20.3125 5.1375 20.3 5.075C20.2875 5.025 20.275 4.9625 20.2625 4.9125C20.2375 4.8625 20.2 4.825 20.175 4.775C20.1375 4.725 20.1 4.6625 20.05 4.625C20.0375 4.6125 20.0375 4.6 20.025 4.6C19.9875 4.575 19.95 4.5625 19.9125 4.5375C19.8625 4.5 19.8 4.4625 19.7375 4.4375C19.675 4.4125 19.6125 4.4125 19.55 4.4C19.5 4.3875 19.4625 4.375 19.4125 4.375H15.75C15.2375 4.375 14.8125 4.8 14.8125 5.3125C14.8125 5.825 15.2375 6.25 15.75 6.25H17.3125C14.3375 9.375 10.5875 11.575 6.37501 12.6375C5.87501 12.7625 5.56251 13.275 5.68751 13.775C5.78751 14.2 6.17501 14.4875 6.60001 14.4875C6.67501 14.4875 6.75001 14.475 6.82501 14.4625C11.2875 13.35 15.275 11.0375 18.4625 7.7625V8.975C18.4625 9.4875 18.8875 9.9125 19.4 9.9125C19.9125 9.9125 20.3375 9.4875 20.3375 8.975V5.3125C20.3375 5.3 20.3375 5.2875 20.3375 5.275Z" fill="#0ECB81"/>
</svg>
