<svg width="26" height="21" viewBox="0 0 26 21" fill="none" xmlns="http://www.w3.org/2000/svg">
<path d="M25.8064 2.48387C24.8387 2.90323 23.8387 3.19355 22.7742 3.32258C23.871 2.67742 24.7097 1.64516 25.0968 0.387097C24.0645 1 22.9355 1.41936 21.7419 1.67742C20.7742 0.645161 19.3871 0 17.871 0C14.9355 0 12.5806 2.3871 12.5806 5.29032C12.5806 5.70968 12.6129 6.09677 12.7097 6.48387C8.32258 6.29032 4.45161 4.16129 1.83871 0.967742C-0.0322579 4.32258 2.06452 7.09678 3.45161 8.03226C2.6129 8.03226 1.77419 7.7742 1.06452 7.3871C1.06452 10 2.90323 12.1613 5.29032 12.6452C4.77419 12.8065 3.6129 12.9032 2.90323 12.7419C3.58064 14.8387 5.54839 16.3871 7.83871 16.4194C6.03226 17.8387 3.3871 18.9677 0 18.6129C2.35484 20.129 5.12903 21 8.12903 21C17.871 21 23.1613 12.9355 23.1613 5.96774C23.1613 5.74194 23.1613 5.51613 23.129 5.29032C24.2258 4.48387 25.129 3.54839 25.8064 2.48387Z" fill="#71839B"/>
</svg>
