<svg width="10" height="13" viewBox="0 0 10 13" fill="none" xmlns="http://www.w3.org/2000/svg">
<path d="M9.75847 4.23324L6.17514 0.658239C5.86287 0.34782 5.44045 0.173584 5.00014 0.173584C4.55983 0.173584 4.13741 0.34782 3.82514 0.658239L0.241808 4.23324C0.0865991 4.38937 -0.000518799 4.60058 -0.000518799 4.82074C-0.000518799 5.04089 0.0865991 5.2521 0.241808 5.40824C0.319277 5.48635 0.411445 5.54834 0.512994 5.59065C0.614544 5.63296 0.723465 5.65474 0.833475 5.65474C0.943485 5.65474 1.05241 5.63296 1.15396 5.59065C1.2555 5.54834 1.34767 5.48635 1.42514 5.40824L4.16681 2.66657V11.8332C4.16681 12.0543 4.25461 12.2662 4.41089 12.4225C4.56717 12.5788 4.77913 12.6666 5.00014 12.6666C5.22115 12.6666 5.43312 12.5788 5.5894 12.4225C5.74568 12.2662 5.83347 12.0543 5.83347 11.8332V2.66657L8.57514 5.40824C8.73096 5.56516 8.94272 5.65375 9.16386 5.65454C9.385 5.65532 9.59739 5.56822 9.75431 5.41241C9.91123 5.25659 9.99982 5.04482 10.0006 4.82369C10.0014 4.60255 9.91429 4.39016 9.75847 4.23324Z" fill="#0ECB81"/>
</svg>
