<svg width="6" height="9" viewBox="0 0 6 9" fill="none" xmlns="http://www.w3.org/2000/svg">
<path d="M4.62488 3.17501L1.75613 0.306257C1.63903 0.18985 1.48062 0.124512 1.3155 0.124512C1.15039 0.124512 0.991978 0.18985 0.874876 0.306257C0.816296 0.364359 0.7698 0.433485 0.738069 0.509647C0.706339 0.585809 0.690002 0.6675 0.690002 0.750007C0.690002 0.832515 0.706339 0.914206 0.738069 0.990368C0.7698 1.06653 0.816296 1.13566 0.874876 1.19376L3.74988 4.05626C3.80846 4.11436 3.85495 4.18349 3.88668 4.25965C3.91841 4.33581 3.93475 4.4175 3.93475 4.50001C3.93475 4.58251 3.91841 4.66421 3.88668 4.74037C3.85495 4.81653 3.80846 4.88566 3.74988 4.94376L0.874876 7.80626C0.757187 7.92312 0.69074 8.08194 0.690154 8.2478C0.689568 8.41365 0.754891 8.57294 0.871752 8.69063C0.988613 8.80832 1.14744 8.87477 1.31329 8.87536C1.47914 8.87594 1.63844 8.81062 1.75613 8.69376L4.62488 5.82501C4.976 5.47344 5.17323 4.99688 5.17323 4.50001C5.17323 4.00313 4.976 3.52657 4.62488 3.17501Z" fill="#222138"/>
</svg>
