<svg width="28" height="19" viewBox="0 0 28 19" fill="none" xmlns="http://www.w3.org/2000/svg">
<path d="M26.5775 2.97305C26.2648 1.81049 25.3482 0.894067 24.1859 0.581028C22.0623 0 13.568 0 13.568 0C13.568 0 5.07405 0 2.95052 0.558999C1.81049 0.871707 0.871541 1.81066 0.558833 2.97305C0 5.09641 0 9.5 0 9.5C0 9.5 0 13.9258 0.558833 16.027C0.871873 17.1893 1.78813 18.1058 2.95069 18.4188C5.09641 19 13.5684 19 13.5684 19C13.5684 19 22.0623 19 24.1859 18.441C25.3484 18.1281 26.2648 17.2117 26.5779 16.0493C27.1365 13.9258 27.1365 9.52236 27.1365 9.52236C27.1365 9.52236 27.1589 5.09641 26.5775 2.97305ZM10.8636 13.5682V5.43181L17.9271 9.5L10.8636 13.5682Z" fill="#71839B"/>
</svg>
