<svg width="284" height="283" viewBox="0 0 284 283" fill="none" xmlns="http://www.w3.org/2000/svg">
<g filter="url(#filter0_f_44_17303)">
<circle cx="141.984" cy="141.85" r="74.0467" fill="white"/>
</g>
<path d="M211.584 113.914C211.55 113.609 211.487 113.278 211.402 112.928C211.314 112.577 211.2 112.204 211.06 111.808C210.921 111.412 210.772 111.047 210.619 110.717C210.465 110.384 210.302 110.082 210.134 109.814C209.966 109.543 209.789 109.304 209.604 109.096C209.422 108.888 209.228 108.708 209.032 108.563C208.903 108.472 208.772 108.398 208.636 108.341C208.499 108.284 208.356 108.241 208.208 108.218C208.06 108.193 207.909 108.187 207.75 108.196C207.593 108.204 207.428 108.23 207.26 108.273C207.14 108.304 207.026 108.341 206.921 108.384C206.815 108.426 206.718 108.475 206.63 108.532C206.542 108.589 206.462 108.649 206.388 108.717C206.317 108.785 206.251 108.859 206.197 108.939L168.021 157.714C168.046 157.677 168.077 157.64 168.112 157.608C168.146 157.577 168.183 157.546 168.223 157.52C168.263 157.494 168.308 157.472 168.357 157.452C168.405 157.432 168.456 157.415 168.511 157.4C168.587 157.38 168.662 157.369 168.733 157.366C168.804 157.363 168.872 157.366 168.941 157.38C169.006 157.392 169.072 157.415 169.132 157.443C169.194 157.472 169.251 157.509 169.308 157.551C169.397 157.623 169.479 157.708 169.559 157.811C169.639 157.91 169.713 158.027 169.787 158.158C169.858 158.289 169.926 158.435 169.992 158.594C170.058 158.754 170.117 158.927 170.171 159.118C170.228 159.309 170.274 159.486 170.305 159.654C170.34 159.822 170.36 159.979 170.371 160.124C170.382 160.269 170.379 160.406 170.368 160.529C170.354 160.654 170.331 160.765 170.294 160.868C170.285 160.89 170.277 160.91 170.268 160.93C170.26 160.95 170.248 160.97 170.24 160.99C170.228 161.01 170.217 161.027 170.206 161.044C170.194 161.061 170.18 161.078 170.166 161.096L190.687 138.532C197.998 130.848 205.305 123.161 211.208 115.968C211.237 115.933 211.265 115.896 211.291 115.859C211.317 115.822 211.339 115.782 211.362 115.743C211.385 115.703 211.405 115.66 211.425 115.617C211.445 115.574 211.462 115.532 211.476 115.486C211.547 115.272 211.593 115.033 211.613 114.774C211.63 114.515 211.624 114.23 211.587 113.925L211.584 113.914Z" fill="url(#paint0_linear_44_17303)"/>
<path d="M214.881 118.181C214.57 118.424 214.234 118.646 213.866 118.848C213.499 119.05 213.103 119.233 212.678 119.395C212.254 119.557 211.801 119.7 211.319 119.822C210.898 119.931 210.482 120.013 210.074 120.073C209.667 120.133 209.262 120.167 208.869 120.179C208.473 120.19 208.086 120.179 207.704 120.141C207.322 120.104 206.946 120.045 206.576 119.962C206.208 119.879 205.852 119.774 205.513 119.649C205.174 119.523 204.849 119.372 204.539 119.204C204.228 119.033 203.935 118.842 203.656 118.626C203.376 118.412 203.111 118.176 202.861 117.916C202.61 117.66 202.376 117.392 202.163 117.116C201.946 116.84 201.75 116.555 201.567 116.261C201.385 115.968 201.223 115.666 201.074 115.352C200.929 115.042 200.798 114.72 200.687 114.392C200.573 114.062 200.482 113.731 200.411 113.404C200.339 113.073 200.285 112.746 200.254 112.418C200.223 112.09 200.211 111.76 200.22 111.432C200.228 111.105 200.257 110.777 200.305 110.446C200.334 110.25 200.371 110.056 200.419 109.868C200.468 109.68 200.522 109.495 200.59 109.315C200.656 109.136 200.73 108.959 200.815 108.788C200.901 108.617 200.995 108.449 201.097 108.287L165.721 157.366C165.673 157.443 165.627 157.523 165.588 157.606C165.548 157.688 165.511 157.771 165.476 157.856C165.445 157.942 165.417 158.03 165.391 158.121C165.365 158.212 165.348 158.304 165.331 158.398C165.305 158.554 165.286 158.711 165.277 158.868C165.268 159.024 165.268 159.181 165.277 159.338C165.286 159.495 165.305 159.651 165.334 159.811C165.362 159.967 165.399 160.127 165.445 160.284C165.491 160.44 165.545 160.594 165.607 160.742C165.67 160.891 165.739 161.036 165.815 161.175C165.892 161.315 165.978 161.452 166.072 161.586C166.166 161.717 166.266 161.845 166.374 161.97C166.482 162.093 166.599 162.207 166.721 162.309C166.844 162.412 166.975 162.506 167.112 162.586C167.248 162.668 167.391 162.739 167.542 162.802C167.693 162.865 167.85 162.913 168.015 162.956C168.18 162.996 168.348 163.027 168.519 163.044C168.69 163.064 168.864 163.07 169.043 163.067C169.22 163.064 169.402 163.047 169.587 163.022C169.773 162.996 169.961 162.959 170.152 162.908C170.371 162.851 170.576 162.788 170.77 162.711C170.964 162.637 171.143 162.551 171.314 162.457C171.482 162.363 171.639 162.258 171.781 162.147C171.924 162.033 172.055 161.91 172.174 161.779L215.727 117.387C215.476 117.669 215.194 117.931 214.883 118.173L214.881 118.181Z" fill="url(#paint1_linear_44_17303)"/>
<path d="M156.132 153.187L179.85 99.8745C179.85 99.8745 179.85 99.8688 179.852 99.8659C179.852 99.8631 179.852 99.8602 179.855 99.8574C179.855 99.8545 179.855 99.8517 179.858 99.8488C179.858 99.846 179.858 99.8431 179.861 99.8403C179.912 99.7064 179.975 99.5867 180.055 99.4756C180.134 99.3645 180.226 99.2676 180.334 99.1793C180.442 99.091 180.565 99.0169 180.701 98.9514C180.838 98.8859 180.989 98.8346 181.154 98.7918C181.32 98.7491 181.479 98.7235 181.633 98.7149C181.787 98.7064 181.935 98.7149 182.075 98.7377C182.217 98.7605 182.351 98.8032 182.482 98.8602C182.613 98.9172 182.736 98.9913 182.855 99.0824C183.046 99.2249 183.226 99.3958 183.399 99.5981C183.573 99.8004 183.738 100.031 183.895 100.293C184.052 100.555 184.203 100.846 184.342 101.168C184.485 101.49 184.616 101.84 184.741 102.222C184.867 102.607 184.969 102.968 185.043 103.31C185.12 103.652 185.169 103.971 185.194 104.268C185.22 104.564 185.22 104.84 185.194 105.094C185.169 105.347 185.117 105.578 185.04 105.786L158.445 156.085C158.482 155.985 158.508 155.874 158.522 155.752C158.536 155.629 158.539 155.495 158.531 155.353C158.522 155.207 158.502 155.054 158.471 154.888C158.439 154.723 158.397 154.546 158.343 154.358C158.288 154.173 158.231 154.002 158.172 153.846C158.112 153.689 158.046 153.546 157.975 153.418C157.907 153.29 157.833 153.176 157.756 153.079C157.679 152.98 157.596 152.897 157.511 152.826C157.457 152.78 157.402 152.743 157.343 152.715C157.283 152.686 157.223 152.666 157.157 152.652C157.092 152.64 157.026 152.635 156.955 152.638C156.884 152.64 156.813 152.652 156.736 152.672C156.659 152.692 156.59 152.717 156.528 152.746C156.465 152.777 156.408 152.811 156.357 152.854C156.306 152.897 156.263 152.942 156.226 152.997C156.189 153.051 156.157 153.108 156.135 153.173C156.135 153.173 156.135 153.176 156.135 153.179C156.135 153.179 156.135 153.182 156.135 153.185C156.135 153.188 156.135 153.187 156.135 153.19C156.135 153.19 156.135 153.193 156.135 153.196L156.132 153.187Z" fill="url(#paint2_linear_44_17303)"/>
<mask id="mask0_44_17303" style="mask-type:luminance" maskUnits="userSpaceOnUse" x="156" y="98" width="30" height="59">
<path d="M156.132 153.188L179.85 99.8749C179.85 99.8749 179.85 99.8692 179.852 99.8664C179.852 99.8635 179.852 99.8607 179.855 99.8579C179.855 99.855 179.855 99.8522 179.858 99.8493C179.858 99.8465 179.858 99.8436 179.861 99.8408C179.912 99.7069 179.975 99.5872 180.055 99.4761C180.135 99.365 180.226 99.2681 180.334 99.1798C180.442 99.0915 180.565 99.0174 180.701 98.9519C180.838 98.8863 180.989 98.8351 181.154 98.7923C181.32 98.7496 181.479 98.724 181.633 98.7154C181.787 98.7069 181.935 98.7154 182.075 98.7382C182.217 98.761 182.351 98.8037 182.482 98.8607C182.613 98.9177 182.736 98.9918 182.855 99.0829C183.046 99.2254 183.226 99.3963 183.399 99.5986C183.573 99.8009 183.738 100.032 183.895 100.294C184.052 100.556 184.203 100.846 184.342 101.168C184.485 101.49 184.616 101.841 184.741 102.223C184.867 102.607 184.969 102.969 185.043 103.311C185.12 103.653 185.169 103.972 185.194 104.268C185.22 104.564 185.22 104.841 185.194 105.094C185.169 105.348 185.117 105.579 185.04 105.787L158.445 156.085C158.482 155.986 158.508 155.875 158.522 155.752C158.536 155.63 158.539 155.496 158.531 155.353C158.522 155.208 158.502 155.054 158.471 154.889C158.44 154.724 158.397 154.547 158.343 154.359C158.289 154.174 158.232 154.003 158.172 153.846C158.112 153.689 158.046 153.547 157.975 153.419C157.907 153.291 157.833 153.177 157.756 153.08C157.679 152.98 157.596 152.897 157.511 152.826C157.457 152.781 157.402 152.744 157.343 152.715C157.283 152.687 157.223 152.667 157.157 152.652C157.092 152.641 157.026 152.635 156.955 152.638C156.884 152.641 156.813 152.652 156.736 152.672C156.659 152.692 156.591 152.718 156.528 152.746C156.465 152.778 156.408 152.812 156.357 152.855C156.306 152.897 156.263 152.943 156.226 152.997C156.189 153.051 156.157 153.108 156.135 153.174C156.135 153.174 156.135 153.177 156.135 153.179C156.135 153.179 156.135 153.182 156.135 153.185C156.135 153.188 156.135 153.188 156.135 153.191C156.135 153.191 156.135 153.194 156.135 153.197L156.132 153.188Z" fill="white"/>
</mask>
<g mask="url(#mask0_44_17303)">
<path d="M185.046 105.782L158.451 156.081C158.488 155.981 158.514 155.87 158.528 155.748C158.542 155.625 158.545 155.491 158.536 155.349C158.528 155.204 158.508 155.05 158.477 154.885C158.445 154.719 158.402 154.543 158.348 154.355C158.294 154.17 158.237 153.999 158.177 153.842C158.118 153.685 158.052 153.543 157.981 153.415C157.912 153.286 157.838 153.172 157.761 153.075C157.684 152.976 157.602 152.893 157.516 152.822C157.462 152.776 157.408 152.739 157.348 152.711C157.288 152.682 157.229 152.662 157.163 152.648C157.098 152.637 157.032 152.631 156.961 152.634C156.89 152.637 156.818 152.648 156.741 152.668C156.67 152.685 156.608 152.708 156.548 152.736C156.488 152.765 156.434 152.796 156.388 152.833C156.34 152.87 156.297 152.913 156.26 152.959C156.223 153.004 156.192 153.056 156.166 153.113L179.918 99.7169C179.972 99.6001 180.04 99.4946 180.117 99.4006C180.197 99.3038 180.288 99.2183 180.391 99.1414C180.493 99.0644 180.61 98.9961 180.738 98.9391C180.867 98.8821 181.006 98.8337 181.157 98.7938C181.323 98.7511 181.482 98.7254 181.636 98.7169C181.79 98.7083 181.938 98.7169 182.078 98.7397C182.22 98.7625 182.354 98.8052 182.485 98.8622C182.616 98.9192 182.738 98.9932 182.858 99.0844C183.049 99.2268 183.228 99.3978 183.402 99.6001C183.576 99.8023 183.741 100.033 183.898 100.295C184.055 100.557 184.206 100.848 184.345 101.17C184.488 101.492 184.619 101.842 184.744 102.224C184.87 102.609 184.972 102.97 185.046 103.312C185.123 103.654 185.171 103.973 185.197 104.27C185.223 104.566 185.223 104.842 185.197 105.096C185.171 105.349 185.12 105.58 185.043 105.788" fill="url(#paint3_linear_44_17303)"/>
<path d="M179.915 99.7141L156.163 153.11C156.163 153.11 156.157 153.118 156.157 153.124C156.157 153.13 156.152 153.133 156.152 153.138C156.152 153.144 156.149 153.15 156.146 153.153C156.146 153.158 156.143 153.164 156.14 153.167C156.14 153.167 156.14 153.17 156.14 153.172C156.14 153.172 156.14 153.175 156.14 153.178C156.14 153.181 156.14 153.181 156.14 153.184C156.14 153.184 156.14 153.187 156.14 153.19L179.858 99.8765C179.858 99.8765 179.858 99.8708 179.861 99.868C179.861 99.8651 179.861 99.8623 179.864 99.8594C179.864 99.8566 179.864 99.8537 179.867 99.8509C179.867 99.848 179.867 99.8452 179.87 99.8423C179.872 99.8309 179.878 99.8224 179.881 99.811C179.884 99.7996 179.89 99.791 179.895 99.7796C179.901 99.7682 179.904 99.7597 179.909 99.7483C179.915 99.7369 179.918 99.7284 179.924 99.717" fill="url(#paint4_linear_44_17303)"/>
</g>
<mask id="mask1_44_17303" style="mask-type:luminance" maskUnits="userSpaceOnUse" x="158" y="105" width="28" height="52">
<path d="M184.992 105.924L158.425 156.148C158.425 156.148 158.431 156.137 158.431 156.131C158.431 156.126 158.436 156.12 158.436 156.114C158.436 156.109 158.442 156.103 158.442 156.097C158.442 156.091 158.445 156.086 158.448 156.08L185.043 105.781C185.043 105.781 185.035 105.807 185.032 105.818C185.029 105.83 185.023 105.841 185.017 105.855C185.012 105.87 185.009 105.878 185.003 105.89C184.998 105.901 184.995 105.912 184.989 105.924H184.992Z" fill="white"/>
</mask>
<g mask="url(#mask1_44_17303)">
<path d="M184.992 105.924L158.425 156.149C158.425 156.149 158.431 156.138 158.431 156.132C158.431 156.126 158.436 156.12 158.436 156.115C158.436 156.109 158.442 156.103 158.442 156.098C158.442 156.092 158.445 156.086 158.448 156.081L185.043 105.782C185.043 105.782 185.034 105.807 185.032 105.819C185.029 105.83 185.023 105.842 185.017 105.856C185.012 105.87 185.009 105.879 185.003 105.89C184.997 105.901 184.995 105.913 184.989 105.924" fill="#7B0F13"/>
</g>
<path d="M189.832 125.318L160.405 165.423L164.029 149.161L196.861 91.4177L189.832 125.318Z" fill="url(#paint5_linear_44_17303)"/>
<path d="M190.189 106.027C190.172 106.058 190.155 106.093 190.137 106.124C190.12 106.155 190.103 106.19 190.083 106.221C190.066 106.252 190.046 106.286 190.029 106.318C189.784 106.737 189.494 107.121 189.155 107.477C188.815 107.831 188.434 108.152 188.004 108.44C187.573 108.728 187.098 108.984 186.573 109.207C186.049 109.429 185.482 109.617 184.867 109.774C184.448 109.879 184.038 109.962 183.636 110.021C183.234 110.081 182.838 110.118 182.451 110.133C182.063 110.147 181.684 110.135 181.311 110.104C180.941 110.073 180.576 110.016 180.22 109.936C179.864 109.856 179.522 109.756 179.197 109.634C178.87 109.511 178.559 109.369 178.26 109.204C177.964 109.039 177.679 108.853 177.411 108.645C177.143 108.437 176.89 108.207 176.65 107.956C176.411 107.705 176.189 107.443 175.984 107.175C175.779 106.907 175.591 106.628 175.42 106.343C175.249 106.058 175.098 105.762 174.961 105.46C174.824 105.158 174.707 104.845 174.608 104.523C174.508 104.207 174.428 103.888 174.368 103.568C174.308 103.249 174.269 102.933 174.246 102.614C174.226 102.295 174.223 101.976 174.246 101.657C174.266 101.338 174.303 101.016 174.36 100.697C174.368 100.643 174.38 100.588 174.391 100.534C174.402 100.48 174.414 100.426 174.425 100.372C174.437 100.318 174.451 100.266 174.465 100.212C174.479 100.158 174.494 100.107 174.511 100.056L161.359 148.991L153.719 153.124C153.71 153.149 153.705 153.175 153.696 153.201C153.69 153.226 153.682 153.252 153.676 153.278C153.67 153.303 153.665 153.329 153.659 153.354C153.653 153.38 153.648 153.406 153.645 153.434C153.616 153.591 153.596 153.745 153.585 153.901C153.574 154.055 153.571 154.212 153.579 154.366C153.585 154.52 153.602 154.676 153.628 154.83C153.653 154.984 153.688 155.138 153.73 155.295C153.773 155.451 153.824 155.602 153.884 155.75C153.944 155.899 154.012 156.041 154.086 156.181C154.163 156.32 154.246 156.454 154.337 156.585C154.428 156.716 154.528 156.842 154.636 156.964C154.744 157.087 154.856 157.198 154.978 157.3C155.098 157.403 155.226 157.494 155.36 157.574C155.494 157.654 155.636 157.725 155.784 157.785C155.933 157.844 156.086 157.896 156.249 157.936C156.411 157.976 156.576 158.004 156.744 158.021C156.913 158.038 157.086 158.047 157.263 158.041C157.44 158.035 157.619 158.021 157.804 157.995C157.989 157.97 158.175 157.93 158.368 157.881C158.65 157.81 158.91 157.722 159.152 157.617C159.391 157.511 159.611 157.391 159.81 157.255C160.009 157.118 160.186 156.967 160.346 156.796C160.502 156.628 160.639 156.443 160.756 156.243C160.764 156.229 160.773 156.212 160.781 156.198C160.79 156.183 160.799 156.166 160.807 156.152C160.816 156.138 160.824 156.121 160.833 156.107C160.841 156.092 160.85 156.075 160.856 156.058L190.246 105.93C190.229 105.964 190.214 105.996 190.197 106.027H190.189Z" fill="url(#paint6_linear_44_17303)"/>
<path d="M194.103 124.236L162.34 164.928L160.405 165.424L189.832 125.318L194.103 124.236Z" fill="#CA6100"/>
<path d="M181.24 110.338C181.613 110.37 181.992 110.381 182.379 110.367C182.767 110.353 183.163 110.316 183.565 110.256C183.966 110.196 184.379 110.113 184.795 110.008C185.411 109.851 185.981 109.663 186.502 109.441C187.026 109.219 187.502 108.962 187.932 108.675C188.362 108.387 188.747 108.065 189.083 107.712C189.419 107.358 189.713 106.971 189.958 106.552C190.203 106.133 190.394 105.697 190.53 105.247C190.667 104.797 190.75 104.33 190.781 103.846C190.81 103.364 190.787 102.863 190.71 102.35C190.633 101.837 190.505 101.307 190.322 100.76C190.14 100.219 189.926 99.7175 189.676 99.2531C189.425 98.7887 189.14 98.3642 188.821 97.9796C188.502 97.595 188.149 97.2474 187.761 96.9369C187.374 96.6292 186.952 96.3585 186.496 96.1249C186.04 95.8913 185.565 95.7061 185.072 95.5722C184.579 95.4355 184.069 95.3471 183.536 95.3101C183.006 95.2702 182.459 95.2788 181.889 95.3357C181.322 95.3927 180.736 95.4981 180.132 95.6491C179.721 95.7545 179.328 95.8713 178.958 96.0081C178.587 96.142 178.234 96.293 177.901 96.4582C177.568 96.6235 177.257 96.8058 176.964 97.0024C176.67 97.199 176.397 97.4126 176.146 97.6406C175.892 97.8685 175.664 98.1078 175.459 98.3585C175.254 98.6092 175.075 98.8713 174.921 99.1477C174.764 99.4212 174.636 99.7089 174.528 100.005C174.422 100.304 174.34 100.612 174.283 100.934C174.226 101.256 174.186 101.575 174.169 101.894C174.149 102.213 174.152 102.532 174.169 102.851C174.189 103.17 174.228 103.49 174.291 103.806C174.351 104.125 174.431 104.441 174.53 104.76C174.63 105.082 174.75 105.393 174.884 105.697C175.021 106.002 175.172 106.296 175.342 106.581C175.513 106.866 175.701 107.145 175.907 107.413C176.112 107.68 176.334 107.942 176.573 108.193C176.813 108.444 177.066 108.675 177.334 108.883C177.602 109.091 177.884 109.279 178.183 109.441C178.479 109.606 178.793 109.749 179.12 109.871C179.448 109.994 179.79 110.093 180.143 110.173C180.499 110.253 180.864 110.307 181.234 110.341L181.24 110.338ZM179.847 102.293C179.773 101.954 179.724 101.635 179.701 101.341C179.679 101.048 179.679 100.774 179.707 100.524C179.733 100.273 179.787 100.045 179.861 99.84C179.912 99.7061 179.975 99.5864 180.055 99.4753C180.134 99.3642 180.226 99.2673 180.334 99.179C180.442 99.0907 180.565 99.0166 180.701 98.9511C180.838 98.8856 180.989 98.8343 181.154 98.7916C181.32 98.7488 181.479 98.7232 181.633 98.7146C181.787 98.7061 181.935 98.7146 182.075 98.7374C182.217 98.7602 182.351 98.8029 182.482 98.8599C182.613 98.9169 182.736 98.991 182.855 99.0821C183.046 99.2246 183.226 99.3955 183.399 99.5978C183.573 99.8001 183.738 100.031 183.895 100.293C184.052 100.555 184.203 100.846 184.342 101.168C184.485 101.49 184.616 101.84 184.741 102.222C184.867 102.606 184.969 102.968 185.043 103.31C185.12 103.652 185.169 103.971 185.194 104.267C185.22 104.564 185.22 104.84 185.194 105.094C185.169 105.347 185.117 105.578 185.04 105.786C184.995 105.923 184.935 106.048 184.861 106.162C184.784 106.276 184.696 106.376 184.587 106.467C184.482 106.555 184.359 106.635 184.223 106.7C184.086 106.766 183.935 106.82 183.767 106.863C183.599 106.905 183.439 106.931 183.283 106.94C183.126 106.948 182.975 106.94 182.83 106.914C182.684 106.888 182.545 106.846 182.408 106.786C182.274 106.726 182.143 106.649 182.02 106.555C181.83 106.415 181.65 106.242 181.476 106.039C181.303 105.837 181.137 105.603 180.981 105.339C180.824 105.074 180.676 104.78 180.533 104.455C180.394 104.131 180.26 103.774 180.137 103.39C180.015 103.005 179.915 102.643 179.841 102.302L179.847 102.293ZM194.1 124.239L201.029 90.3643L196.861 91.4184L189.832 125.321L194.1 124.239ZM211.317 119.828C211.946 119.669 212.527 119.475 213.057 119.247C213.59 119.019 214.072 118.757 214.505 118.458C214.938 118.162 215.322 117.831 215.658 117.467C215.995 117.102 216.28 116.706 216.516 116.273C216.752 115.843 216.935 115.395 217.063 114.931C217.191 114.467 217.262 113.988 217.279 113.492C217.297 112.997 217.26 112.487 217.166 111.96C217.072 111.432 216.926 110.891 216.724 110.333C216.522 109.774 216.285 109.259 216.017 108.78C215.747 108.301 215.445 107.866 215.106 107.467C214.767 107.068 214.396 106.709 213.989 106.39C213.582 106.071 213.143 105.789 212.667 105.546C212.194 105.304 211.701 105.113 211.194 104.971C210.684 104.829 210.157 104.737 209.613 104.695C209.069 104.652 208.505 104.66 207.921 104.717C207.339 104.774 206.738 104.883 206.12 105.039C205.704 105.145 205.311 105.267 204.938 105.404C204.564 105.541 204.211 105.695 203.875 105.866C203.542 106.037 203.228 106.222 202.935 106.427C202.641 106.629 202.368 106.848 202.114 107.085C201.861 107.321 201.633 107.566 201.431 107.826C201.228 108.085 201.052 108.353 200.901 108.635C200.75 108.917 200.624 109.21 200.525 109.512C200.425 109.817 200.351 110.133 200.305 110.461C200.257 110.789 200.228 111.116 200.22 111.447C200.211 111.774 200.223 112.105 200.254 112.432C200.285 112.76 200.337 113.091 200.411 113.418C200.482 113.749 200.576 114.076 200.687 114.407C200.798 114.737 200.929 115.056 201.074 115.367C201.223 115.677 201.385 115.982 201.567 116.276C201.75 116.569 201.946 116.854 202.163 117.13C202.379 117.407 202.613 117.672 202.861 117.931C203.111 118.19 203.374 118.424 203.656 118.64C203.935 118.854 204.231 119.048 204.539 119.219C204.849 119.39 205.174 119.538 205.513 119.663C205.852 119.789 206.205 119.894 206.576 119.977C206.946 120.059 207.319 120.119 207.704 120.156C208.086 120.193 208.476 120.205 208.869 120.193C209.265 120.182 209.667 120.145 210.074 120.088C210.482 120.028 210.898 119.945 211.319 119.837L211.317 119.828ZM208.405 116.259C208.205 116.113 208.015 115.934 207.832 115.726C207.65 115.518 207.473 115.276 207.305 115.005C207.137 114.734 206.975 114.43 206.824 114.096C206.67 113.763 206.525 113.395 206.388 112.999C206.251 112.603 206.137 112.23 206.054 111.883C205.969 111.532 205.912 111.207 205.878 110.905C205.847 110.603 205.838 110.321 205.861 110.065C205.881 109.809 205.926 109.572 206 109.361C206.043 109.225 206.1 109.096 206.174 108.982C206.248 108.868 206.337 108.766 206.442 108.675C206.547 108.584 206.667 108.507 206.804 108.438C206.941 108.373 207.092 108.316 207.26 108.276C207.428 108.236 207.59 108.207 207.747 108.199C207.903 108.19 208.057 108.199 208.205 108.222C208.354 108.247 208.496 108.287 208.633 108.344C208.77 108.401 208.903 108.475 209.029 108.566C209.228 108.715 209.419 108.891 209.601 109.099C209.787 109.307 209.96 109.546 210.131 109.817C210.299 110.088 210.462 110.39 210.616 110.72C210.77 111.054 210.918 111.418 211.057 111.811C211.197 112.207 211.311 112.581 211.399 112.931C211.488 113.281 211.547 113.612 211.582 113.917C211.616 114.222 211.624 114.507 211.607 114.766C211.59 115.025 211.544 115.264 211.47 115.478C211.422 115.615 211.359 115.74 211.282 115.854C211.205 115.968 211.111 116.071 211.003 116.162C210.895 116.253 210.772 116.33 210.633 116.398C210.493 116.464 210.339 116.521 210.171 116.564C210 116.606 209.838 116.632 209.678 116.64C209.519 116.649 209.368 116.64 209.22 116.615C209.072 116.589 208.932 116.546 208.795 116.487C208.658 116.427 208.53 116.35 208.405 116.256V116.259Z" fill="url(#paint7_linear_44_17303)"/>
<path d="M193.664 123.819L200.365 91.0588L197.297 91.8338L190.499 124.623L193.664 123.819ZM181.285 109.828C181.636 109.859 181.998 109.868 182.362 109.856C182.73 109.842 183.109 109.808 183.49 109.751C183.872 109.694 184.271 109.614 184.673 109.512L184.69 109.506C185.268 109.358 185.812 109.178 186.305 108.968C186.795 108.76 187.248 108.517 187.65 108.247C188.046 107.982 188.405 107.683 188.716 107.355C189.023 107.033 189.294 106.674 189.519 106.292C189.741 105.911 189.918 105.509 190.043 105.096C190.169 104.686 190.245 104.252 190.271 103.811C190.3 103.366 190.277 102.899 190.206 102.423C190.134 101.939 190.009 101.435 189.838 100.922C189.667 100.412 189.462 99.9306 189.225 99.4947C188.992 99.0645 188.724 98.6628 188.428 98.3038C188.134 97.9477 187.801 97.6201 187.445 97.3352C187.086 97.0503 186.69 96.7938 186.265 96.5802C185.841 96.3636 185.396 96.1899 184.938 96.0645C184.479 95.9391 183.995 95.8565 183.502 95.8195C183.003 95.7825 182.482 95.791 181.946 95.8451C181.408 95.8993 180.841 96.0018 180.243 96.1528C179.858 96.2497 179.485 96.3636 179.137 96.4919C178.784 96.6201 178.448 96.7625 178.134 96.9192C177.824 97.073 177.528 97.2468 177.254 97.4292C176.983 97.6115 176.727 97.8109 176.493 98.0218C176.263 98.2297 176.049 98.4548 175.861 98.6827C175.676 98.9106 175.51 99.1528 175.368 99.4007C175.228 99.6485 175.109 99.9106 175.012 100.178C174.915 100.449 174.841 100.734 174.79 101.025C174.736 101.324 174.699 101.629 174.681 101.925C174.664 102.221 174.664 102.523 174.681 102.819C174.701 103.113 174.738 103.415 174.795 103.711C174.852 104.007 174.926 104.309 175.02 104.606C175.114 104.908 175.228 105.204 175.354 105.486C175.482 105.771 175.624 106.05 175.784 106.318C175.944 106.586 176.12 106.851 176.314 107.101C176.505 107.352 176.718 107.6 176.946 107.839C177.166 108.07 177.402 108.284 177.65 108.475C177.895 108.666 178.16 108.839 178.434 108.99C178.707 109.141 179 109.278 179.3 109.389C179.602 109.503 179.924 109.597 180.254 109.671C180.587 109.745 180.932 109.797 181.28 109.828H181.285ZM179.348 102.398C179.271 102.039 179.217 101.694 179.194 101.378C179.169 101.05 179.171 100.745 179.2 100.466C179.231 100.176 179.294 99.9021 179.385 99.6542C179.451 99.4804 179.536 99.318 179.642 99.1727C179.747 99.0246 179.872 98.8935 180.015 98.7796C180.154 98.6656 180.314 98.5688 180.485 98.4861C180.65 98.4092 180.832 98.3437 181.026 98.2953H181.032C181.226 98.244 181.419 98.2126 181.604 98.2041C181.795 98.1927 181.983 98.2041 182.163 98.2326C182.345 98.2639 182.522 98.318 182.69 98.3921C182.855 98.4662 183.018 98.5602 183.163 98.6713C183.382 98.8337 183.593 99.0331 183.79 99.2611C183.981 99.4833 184.166 99.7397 184.337 100.025C184.505 100.304 184.664 100.617 184.815 100.956C184.963 101.292 185.103 101.663 185.231 102.056C185.362 102.458 185.468 102.839 185.547 103.193C185.63 103.557 185.684 103.902 185.71 104.218C185.738 104.546 185.738 104.856 185.71 105.139C185.681 105.435 185.619 105.708 185.533 105.939C185.473 106.121 185.394 106.29 185.294 106.438C185.191 106.592 185.069 106.728 184.926 106.848C184.79 106.965 184.63 107.067 184.453 107.15C184.288 107.23 184.106 107.295 183.904 107.346C183.707 107.398 183.51 107.426 183.32 107.438C183.126 107.449 182.935 107.438 182.75 107.403C182.565 107.369 182.382 107.315 182.211 107.238C182.04 107.161 181.875 107.064 181.727 106.95C181.508 106.788 181.297 106.589 181.097 106.358C180.906 106.136 180.724 105.876 180.55 105.586C180.382 105.304 180.223 104.988 180.075 104.643C179.926 104.304 179.787 103.928 179.661 103.532C179.533 103.133 179.428 102.751 179.354 102.395L179.348 102.398ZM211.194 119.326H211.203C211.798 119.173 212.356 118.985 212.858 118.771C213.356 118.557 213.815 118.307 214.22 118.03C214.618 117.757 214.977 117.449 215.285 117.116C215.59 116.785 215.855 116.415 216.071 116.022C216.288 115.628 216.459 115.213 216.573 114.791C216.687 114.369 216.755 113.925 216.769 113.472C216.784 113.013 216.75 112.534 216.664 112.044C216.576 111.549 216.436 111.03 216.245 110.503C216.054 109.973 215.826 109.478 215.573 109.027C215.319 108.58 215.032 108.164 214.715 107.794C214.402 107.423 214.052 107.084 213.673 106.788C213.294 106.489 212.878 106.224 212.436 105.999C211.997 105.774 211.533 105.594 211.057 105.46C210.584 105.329 210.083 105.241 209.573 105.201C209.06 105.161 208.522 105.167 207.972 105.221C207.419 105.275 206.838 105.378 206.234 105.532C205.841 105.631 205.465 105.748 205.114 105.876C204.761 106.005 204.425 106.153 204.109 106.312C203.798 106.472 203.499 106.648 203.225 106.837C202.955 107.025 202.698 107.23 202.462 107.449C202.231 107.663 202.017 107.893 201.832 108.13C201.65 108.364 201.488 108.611 201.351 108.865C201.214 109.119 201.1 109.386 201.012 109.66C200.921 109.936 200.855 110.227 200.809 110.523C200.764 110.828 200.738 111.138 200.73 111.446C200.721 111.754 200.733 112.064 200.764 112.369C200.795 112.68 200.844 112.99 200.909 113.295C200.978 113.606 201.066 113.919 201.171 114.227C201.277 114.537 201.402 114.845 201.539 115.136C201.678 115.429 201.835 115.717 202.003 115.993C202.174 116.269 202.362 116.54 202.567 116.799C202.77 117.059 202.995 117.315 203.231 117.56C203.462 117.799 203.713 118.022 203.969 118.218C204.225 118.415 204.502 118.597 204.789 118.754C205.077 118.913 205.382 119.05 205.695 119.167C206.012 119.284 206.345 119.383 206.69 119.46C207.037 119.537 207.393 119.594 207.752 119.628C208.114 119.663 208.485 119.674 208.858 119.663C209.231 119.651 209.619 119.617 210.006 119.56C210.396 119.503 210.798 119.423 211.2 119.321L211.194 119.326ZM208.59 116.95C208.419 116.873 208.251 116.777 208.103 116.663C207.875 116.495 207.656 116.292 207.448 116.056C207.245 115.825 207.052 115.56 206.869 115.267C206.69 114.979 206.519 114.654 206.356 114.301C206.197 113.953 206.043 113.569 205.901 113.158C205.758 112.745 205.641 112.355 205.553 111.993C205.462 111.626 205.399 111.272 205.365 110.948C205.328 110.617 205.322 110.301 205.345 110.013C205.368 109.714 205.425 109.435 205.505 109.198C205.562 109.016 205.638 108.845 205.738 108.691C205.838 108.537 205.96 108.395 206.103 108.275C206.24 108.156 206.399 108.053 206.576 107.968C206.741 107.885 206.929 107.819 207.126 107.768H207.129C207.328 107.717 207.525 107.686 207.713 107.674C207.906 107.663 208.1 107.674 208.282 107.703C208.468 107.734 208.65 107.785 208.827 107.859C208.997 107.931 209.166 108.025 209.331 108.144C209.559 108.312 209.778 108.517 209.983 108.751C210.185 108.979 210.379 109.244 210.562 109.537C210.741 109.825 210.915 110.147 211.077 110.497C211.237 110.842 211.393 111.224 211.539 111.634C211.684 112.047 211.804 112.438 211.895 112.799C211.986 113.17 212.052 113.523 212.091 113.851C212.128 114.187 212.137 114.503 212.117 114.794C212.094 115.096 212.04 115.378 211.955 115.637C211.892 115.817 211.809 115.985 211.707 116.136C211.604 116.287 211.476 116.426 211.334 116.546C211.194 116.663 211.034 116.765 210.855 116.851C210.687 116.93 210.499 116.999 210.297 117.05C210.097 117.101 209.898 117.133 209.707 117.141C209.51 117.153 209.317 117.141 209.134 117.11C208.946 117.076 208.764 117.022 208.59 116.945V116.95Z" fill="url(#paint8_linear_44_17303)"/>
<path d="M175.958 157.621L159.895 176.826C159.451 177.356 158.944 177.851 158.371 178.31C157.798 178.769 157.16 179.193 156.456 179.583C155.753 179.971 154.986 180.324 154.154 180.643C153.323 180.959 152.425 181.242 151.465 181.487C150.719 181.677 150.001 181.828 149.311 181.94C148.622 182.051 147.961 182.125 147.325 182.159C146.693 182.193 146.086 182.187 145.511 182.142C144.935 182.096 144.385 182.014 143.864 181.891C143.345 181.769 142.838 181.612 142.345 181.424C141.853 181.236 141.377 181.014 140.912 180.757C140.448 180.504 139.998 180.216 139.562 179.894C139.126 179.575 138.704 179.222 138.3 178.837C138.149 178.697 138.001 178.549 137.853 178.395C137.704 178.239 137.559 178.073 137.414 177.903C137.269 177.729 137.126 177.549 136.981 177.358C136.838 177.167 136.696 176.971 136.556 176.763L123.642 157.709C123.947 158.162 124.257 158.595 124.571 159.008C124.884 159.424 125.2 159.82 125.519 160.199C125.838 160.578 126.16 160.94 126.485 161.282C126.81 161.623 127.14 161.948 127.471 162.253C128.371 163.099 129.306 163.874 130.274 164.578C131.243 165.282 132.246 165.914 133.283 166.475C134.32 167.036 135.391 167.524 136.494 167.94C137.596 168.356 138.733 168.697 139.901 168.968C141.072 169.236 142.306 169.418 143.605 169.515C144.904 169.609 146.269 169.618 147.699 169.541C149.129 169.461 150.622 169.296 152.177 169.042C153.733 168.789 155.354 168.447 157.038 168.017C159.206 167.464 161.229 166.831 163.103 166.119C164.978 165.407 166.704 164.618 168.283 163.752C169.861 162.886 171.288 161.94 172.567 160.917C173.847 159.897 174.975 158.8 175.958 157.626V157.621Z" fill="url(#paint9_linear_44_17303)"/>
<mask id="mask2_44_17303" style="mask-type:luminance" maskUnits="userSpaceOnUse" x="123" y="157" width="53" height="26">
<path d="M175.958 157.622L159.895 176.827C159.451 177.357 158.944 177.852 158.371 178.311C157.798 178.77 157.16 179.194 156.456 179.585C155.753 179.972 154.986 180.325 154.154 180.644C153.323 180.961 152.425 181.243 151.465 181.488C150.719 181.679 150.001 181.83 149.311 181.941C148.622 182.052 147.961 182.126 147.325 182.16C146.693 182.194 146.086 182.189 145.511 182.143C144.935 182.097 144.385 182.015 143.864 181.892C143.345 181.77 142.838 181.613 142.345 181.425C141.853 181.237 141.377 181.015 140.912 180.758C140.448 180.505 139.998 180.217 139.562 179.895C139.126 179.576 138.704 179.223 138.3 178.838C138.149 178.699 138.001 178.55 137.853 178.397C137.704 178.24 137.559 178.075 137.414 177.904C137.269 177.73 137.126 177.55 136.981 177.36C136.838 177.169 136.696 176.972 136.556 176.764L123.642 157.71C123.947 158.163 124.257 158.596 124.571 159.009C124.884 159.425 125.2 159.821 125.519 160.2C125.838 160.579 126.16 160.941 126.485 161.283C126.81 161.625 127.14 161.949 127.471 162.254C128.371 163.1 129.306 163.875 130.274 164.579C131.243 165.283 132.246 165.915 133.283 166.476C134.32 167.038 135.391 167.525 136.494 167.941C137.596 168.357 138.733 168.699 139.901 168.969C141.072 169.237 142.306 169.419 143.605 169.516C144.904 169.61 146.268 169.619 147.699 169.542C149.129 169.462 150.622 169.297 152.177 169.043C153.733 168.79 155.354 168.448 157.038 168.018C159.206 167.465 161.228 166.833 163.103 166.12C164.978 165.408 166.704 164.619 168.283 163.753C169.861 162.887 171.288 161.941 172.567 160.918C173.847 159.898 174.975 158.801 175.958 157.628V157.622Z" fill="white"/>
</mask>
<g mask="url(#mask2_44_17303)">
<path d="M175.958 157.622L159.895 176.827C159.451 177.357 158.944 177.852 158.371 178.311C157.798 178.77 157.16 179.194 156.456 179.585C155.753 179.972 154.986 180.325 154.154 180.644C153.323 180.961 152.425 181.243 151.465 181.488C150.719 181.679 150.001 181.83 149.311 181.941C148.622 182.052 147.961 182.126 147.325 182.16C146.693 182.194 146.086 182.189 145.511 182.143C144.935 182.097 144.385 182.015 143.864 181.892C143.345 181.77 142.838 181.613 142.345 181.425C141.853 181.237 141.377 181.015 140.912 180.758C140.448 180.505 139.998 180.217 139.562 179.895C139.126 179.576 138.704 179.223 138.3 178.838C138.149 178.699 138.001 178.55 137.853 178.397C137.704 178.24 137.559 178.075 137.414 177.904C137.269 177.73 137.126 177.55 136.981 177.36C136.838 177.169 136.696 176.972 136.556 176.764L123.642 157.71C123.947 158.163 124.257 158.596 124.571 159.009C124.884 159.425 125.2 159.821 125.519 160.2C125.838 160.579 126.16 160.941 126.485 161.283C126.81 161.625 127.14 161.949 127.471 162.254C128.371 163.1 129.306 163.875 130.274 164.579C131.243 165.283 132.246 165.915 133.283 166.476C134.32 167.038 135.391 167.525 136.494 167.941C137.596 168.357 138.733 168.699 139.901 168.969C141.072 169.237 142.306 169.419 143.605 169.516C144.904 169.61 146.268 169.619 147.699 169.542C149.129 169.462 150.622 169.297 152.177 169.043C153.733 168.79 155.354 168.448 157.038 168.018C159.206 167.465 161.228 166.833 163.103 166.12C164.978 165.408 166.704 164.619 168.283 163.753C169.861 162.887 171.288 161.941 172.567 160.918C173.847 159.898 174.975 158.801 175.958 157.628" fill="url(#paint10_linear_44_17303)"/>
</g>
<path d="M156.707 166.774C155.075 167.19 153.482 167.526 151.975 167.771C150.471 168.016 149.009 168.178 147.63 168.255C146.263 168.332 144.941 168.324 143.702 168.233C142.474 168.141 141.291 167.968 140.189 167.714C139.083 167.458 137.989 167.13 136.947 166.737C135.904 166.344 134.876 165.877 133.895 165.344C132.915 164.814 131.95 164.204 131.032 163.537C130.112 162.871 129.212 162.122 128.354 161.315C127.736 160.745 127.129 160.11 126.539 159.415C125.944 158.714 125.354 157.931 124.779 157.09C124.2 156.247 123.628 155.321 123.072 154.338C122.517 153.355 121.964 152.287 121.428 151.167C120.893 150.048 120.377 148.874 119.893 147.68C119.408 146.486 118.947 145.241 118.514 143.979C118.084 142.717 117.673 141.401 117.294 140.07C116.916 138.743 116.559 137.361 116.229 135.959C115.428 132.546 114.844 129.324 114.491 126.378C114.143 123.484 114.012 120.774 114.095 118.327C114.178 115.928 114.474 113.712 114.973 111.743C115.463 109.814 116.161 108.068 117.049 106.549C117.941 105.025 119.038 103.595 120.314 102.301C121.594 101.005 123.089 99.8029 124.759 98.7317C126.44 97.6519 128.348 96.6718 130.428 95.82C132.488 94.9738 134.779 94.2303 137.234 93.6035L137.354 93.5721C138.559 93.2673 139.736 93.008 140.85 92.8001C141.958 92.5921 143.035 92.4297 144.055 92.3157C145.066 92.2018 146.046 92.1363 146.967 92.1163C147.878 92.0964 148.761 92.1249 149.585 92.1961C150.422 92.2702 151.243 92.3756 152.018 92.5066C152.793 92.6377 153.548 92.8001 154.263 92.9881C154.978 93.1761 155.67 93.3955 156.32 93.6377C156.969 93.8798 157.602 94.1562 158.194 94.4553C158.807 94.7659 159.402 95.0907 159.964 95.4211C160.522 95.7516 161.069 96.0992 161.585 96.4553C162.095 96.8086 162.59 97.179 163.058 97.5579C163.522 97.9339 163.969 98.33 164.385 98.7288C164.804 99.1305 165.223 99.5664 165.63 100.019C166.041 100.475 166.448 100.962 166.844 101.464C167.243 101.971 167.639 102.509 168.023 103.068C168.411 103.629 168.796 104.222 169.169 104.828C169.904 106.011 170.607 107.236 171.268 108.472C171.929 109.709 172.562 110.997 173.149 112.296C173.738 113.601 174.3 114.948 174.815 116.307C175.334 117.68 175.821 119.093 176.263 120.512C177.266 123.746 178.072 126.854 178.659 129.749C179.248 132.66 179.63 135.438 179.793 137.999C179.958 140.56 179.909 142.979 179.647 145.181C179.388 147.375 178.909 149.412 178.228 151.236C177.553 153.045 176.599 154.743 175.397 156.281C174.18 157.84 172.667 159.281 170.909 160.569C169.123 161.877 167.032 163.059 164.693 164.082C162.328 165.119 159.647 166.022 156.727 166.765H156.71L156.707 166.774ZM139.431 103.857C138.474 104.102 137.596 104.447 136.821 104.885C136.024 105.338 135.314 105.9 134.716 106.558C134.118 107.213 133.616 107.977 133.22 108.826C132.836 109.658 132.545 110.592 132.357 111.603C132.172 112.595 132.089 113.769 132.109 115.088C132.129 116.381 132.243 117.857 132.454 119.478C132.665 121.09 132.975 122.897 133.377 124.851C133.779 126.803 134.289 128.962 134.887 131.267C135.497 133.612 136.123 135.8 136.75 137.768C137.385 139.757 138.038 141.575 138.687 143.17C139.348 144.794 140.029 146.233 140.71 147.449C141.408 148.703 142.132 149.763 142.861 150.603C143.599 151.449 144.371 152.176 145.157 152.757C145.969 153.358 146.821 153.828 147.69 154.153C148.573 154.483 149.494 154.674 150.425 154.714C151.348 154.757 152.303 154.652 153.263 154.409C153.892 154.25 154.494 154.036 155.055 153.78C155.619 153.518 156.157 153.204 156.653 152.842C157.149 152.481 157.61 152.067 158.032 151.609C158.448 151.156 158.833 150.649 159.172 150.102C159.516 149.549 159.816 148.939 160.058 148.284C160.297 147.649 160.491 146.951 160.633 146.213C160.773 145.495 160.87 144.717 160.921 143.899C160.969 143.093 160.975 142.236 160.935 141.344C160.898 140.458 160.801 139.452 160.647 138.355C160.496 137.276 160.288 136.079 160.029 134.8C159.77 133.523 159.454 132.136 159.089 130.672C158.727 129.216 158.303 127.637 157.833 125.979C157.146 123.563 156.454 121.333 155.776 119.355C155.1 117.384 154.417 115.595 153.741 114.036C153.063 112.472 152.38 111.102 151.702 109.957C151.006 108.783 150.297 107.803 149.588 107.048C148.878 106.29 148.129 105.646 147.357 105.133C146.571 104.609 145.739 104.205 144.89 103.934C144.035 103.663 143.14 103.518 142.229 103.504C141.331 103.492 140.4 103.606 139.454 103.846L139.437 103.851L139.431 103.857Z" fill="url(#paint11_linear_44_17303)"/>
<path d="M155.77 119.361C155.095 117.39 154.411 115.601 153.736 114.042C153.058 112.478 152.374 111.108 151.696 109.963C151.001 108.789 150.291 107.809 149.582 107.054C148.873 106.296 148.123 105.652 147.351 105.139C146.565 104.615 145.733 104.21 144.884 103.94C144.029 103.669 143.135 103.524 142.223 103.51C141.326 103.498 140.394 103.612 139.448 103.851L139.431 103.857C138.474 104.102 137.596 104.447 136.821 104.886C136.024 105.339 135.314 105.9 134.716 106.558C134.118 107.213 133.616 107.977 133.22 108.826C132.836 109.658 132.545 110.592 132.357 111.604C132.172 112.595 132.089 113.769 132.109 115.088C132.129 116.381 132.243 117.857 132.454 119.478C132.665 121.091 132.975 122.897 133.377 124.851C133.779 126.803 134.289 128.962 134.887 131.267C135.497 133.612 136.123 135.8 136.75 137.769C137.386 139.757 138.038 141.575 138.688 143.17C139.349 144.794 140.029 146.233 140.71 147.449C141.408 148.703 142.132 149.763 142.861 150.603C143.599 151.449 144.371 152.176 145.158 152.757C145.97 153.358 146.821 153.828 147.69 154.153C148.574 154.484 149.494 154.674 150.425 154.714C151.348 154.757 152.303 154.652 153.263 154.41C153.893 154.25 154.494 154.036 155.055 153.78C155.619 153.518 156.158 153.204 156.653 152.843C157.149 152.481 157.611 152.068 158.032 151.609C158.448 151.156 158.833 150.649 159.172 150.102C159.516 149.549 159.816 148.939 160.058 148.284C160.297 147.649 160.491 146.951 160.633 146.213C160.773 145.495 160.87 144.717 160.921 143.9C160.969 143.093 160.975 142.236 160.935 141.344C160.898 140.458 160.801 139.452 160.648 138.355C160.497 137.276 160.289 136.079 160.029 134.8C159.77 133.524 159.454 132.136 159.089 130.672C158.727 129.216 158.303 127.638 157.833 125.98C157.146 123.564 156.454 121.333 155.776 119.356L155.77 119.361ZM157.844 130.985C158.209 132.444 158.516 133.8 158.773 135.059C159.029 136.321 159.232 137.481 159.38 138.538C159.528 139.598 159.619 140.552 159.656 141.404C159.693 142.256 159.687 143.065 159.642 143.826C159.596 144.589 159.508 145.304 159.377 145.974C159.246 146.643 159.072 147.267 158.858 147.843C158.642 148.418 158.385 148.948 158.083 149.429C157.781 149.911 157.451 150.35 157.086 150.749C156.722 151.145 156.326 151.501 155.898 151.814C155.471 152.127 155.009 152.395 154.519 152.623C154.026 152.851 153.505 153.033 152.95 153.176C152.109 153.39 151.286 153.478 150.485 153.444C149.685 153.407 148.901 153.247 148.14 152.962C147.38 152.677 146.639 152.267 145.921 151.734C145.203 151.202 144.505 150.546 143.83 149.769C143.158 148.991 142.491 148.011 141.83 146.828C141.172 145.649 140.519 144.267 139.876 142.689C139.235 141.116 138.599 139.344 137.972 137.381C137.349 135.427 136.733 133.281 136.129 130.948C135.534 128.652 135.035 126.535 134.633 124.595C134.235 122.663 133.933 120.903 133.725 119.316C133.52 117.735 133.406 116.321 133.388 115.074C133.371 113.831 133.448 112.755 133.616 111.84C133.787 110.928 134.041 110.102 134.383 109.367C134.725 108.632 135.149 107.985 135.662 107.424C136.175 106.863 136.77 106.39 137.454 106.002C138.138 105.615 138.907 105.313 139.764 105.096C140.605 104.883 141.417 104.783 142.206 104.794C142.995 104.806 143.759 104.928 144.499 105.165C145.24 105.401 145.955 105.749 146.648 106.21C147.34 106.672 148.009 107.247 148.653 107.937C149.3 108.626 149.947 109.521 150.599 110.621C151.252 111.723 151.907 113.037 152.568 114.558C153.229 116.085 153.895 117.826 154.565 119.783C155.237 121.749 155.918 123.934 156.602 126.341C157.072 127.988 157.485 129.541 157.85 130.994L157.844 130.985Z" fill="url(#paint12_linear_44_17303)"/>
<path d="M177.479 120.134C177.026 118.678 176.536 117.25 176.006 115.854C175.479 114.464 174.912 113.102 174.311 111.769C173.71 110.441 173.072 109.142 172.394 107.874C171.719 106.61 171.006 105.373 170.257 104.165C169.87 103.533 169.476 102.926 169.072 102.345C168.67 101.763 168.263 101.208 167.847 100.678C167.431 100.148 167.009 99.6466 166.579 99.168C166.149 98.6893 165.713 98.2363 165.269 97.809C164.824 97.3817 164.354 96.9686 163.861 96.5668C163.368 96.1651 162.85 95.7777 162.308 95.4045C161.767 95.0312 161.2 94.6694 160.61 94.3218C160.021 93.9743 159.408 93.6381 158.767 93.3162C158.129 92.9942 157.462 92.7036 156.764 92.4444C156.066 92.1851 155.343 91.9543 154.585 91.7549C153.83 91.5555 153.044 91.3874 152.229 91.2506C151.414 91.1139 150.568 91.0056 149.693 90.9259C148.818 90.8489 147.901 90.8204 146.935 90.8404C145.972 90.8603 144.964 90.9287 143.91 91.0455C142.856 91.1623 141.756 91.3276 140.611 91.5441C139.465 91.7578 138.274 92.0227 137.038 92.3361C134.465 92.9857 132.101 93.7549 129.938 94.6409C127.776 95.527 125.819 96.5355 124.064 97.6609C122.306 98.7891 120.75 100.04 119.4 101.41C118.044 102.786 116.893 104.285 115.941 105.909C114.987 107.538 114.249 109.379 113.728 111.436C113.203 113.501 112.898 115.783 112.81 118.29C112.722 120.809 112.856 123.558 113.215 126.538C113.574 129.538 114.161 132.777 114.975 136.259C115.309 137.683 115.668 139.074 116.055 140.43C116.443 141.789 116.856 143.114 117.294 144.401C117.736 145.692 118.203 146.948 118.696 148.168C119.192 149.39 119.713 150.575 120.263 151.726C120.813 152.877 121.374 153.962 121.95 154.977C122.525 155.994 123.112 156.943 123.713 157.82C124.314 158.7 124.927 159.509 125.554 160.25C126.18 160.991 126.819 161.66 127.468 162.259C128.368 163.105 129.303 163.88 130.272 164.583C131.24 165.287 132.243 165.92 133.28 166.481C134.317 167.042 135.388 167.529 136.491 167.945C137.593 168.361 138.73 168.703 139.898 168.974C141.069 169.242 142.303 169.424 143.602 169.521C144.901 169.615 146.266 169.623 147.696 169.546C149.126 169.467 150.619 169.301 152.175 169.048C153.73 168.794 155.351 168.452 157.035 168.022C160.038 167.256 162.759 166.338 165.197 165.27C167.633 164.202 169.787 162.985 171.656 161.618C173.522 160.253 175.1 158.74 176.397 157.085C177.687 155.433 178.696 153.635 179.419 151.698C180.14 149.766 180.636 147.649 180.909 145.347C181.18 143.054 181.231 140.581 181.06 137.931C180.892 135.296 180.505 132.487 179.904 129.51C179.305 126.552 178.496 123.43 177.476 120.148L177.479 120.134ZM178.653 129.749C179.243 132.661 179.625 135.438 179.787 138C179.952 140.561 179.904 142.98 179.642 145.182C179.382 147.376 178.904 149.413 178.223 151.236C177.548 153.045 176.593 154.743 175.391 156.282C174.174 157.84 172.662 159.282 170.904 160.569C169.118 161.877 167.026 163.059 164.687 164.082C162.323 165.119 159.642 166.022 156.722 166.766H156.704C155.072 167.185 153.479 167.521 151.972 167.769C150.468 168.014 149.007 168.176 147.628 168.253C146.26 168.33 144.938 168.321 143.699 168.23C142.471 168.139 141.289 167.965 140.186 167.712C139.081 167.455 137.987 167.128 136.944 166.734C135.901 166.341 134.873 165.874 133.893 165.341C132.913 164.811 131.947 164.202 131.029 163.535C130.109 162.868 129.209 162.119 128.351 161.313C127.733 160.743 127.126 160.108 126.537 159.413C125.941 158.712 125.351 157.928 124.776 157.088C124.198 156.245 123.625 155.319 123.069 154.336C122.514 153.353 121.961 152.284 121.426 151.165C120.89 150.045 120.374 148.871 119.89 147.678C119.406 146.484 118.944 145.239 118.511 143.977C118.081 142.715 117.671 141.398 117.292 140.068C116.913 138.74 116.557 137.359 116.226 135.957C115.426 132.544 114.842 129.322 114.488 126.376C114.141 123.481 114.01 120.772 114.092 118.325C114.175 115.926 114.471 113.709 114.97 111.741C115.46 109.812 116.158 108.065 117.047 106.547C117.938 105.023 119.035 103.592 120.312 102.299C121.591 101.003 123.086 99.8004 124.756 98.7292C126.437 97.6495 128.346 96.6694 130.425 95.8176C132.485 94.9714 134.776 94.2278 137.232 93.6011L137.351 93.5697C138.556 93.2649 139.733 93.0056 140.847 92.7976C141.955 92.5897 143.032 92.4273 144.052 92.3133C145.064 92.1994 146.044 92.1338 146.964 92.1139C147.875 92.0939 148.759 92.1224 149.582 92.1937C150.42 92.2677 151.24 92.3731 152.015 92.5042C152.79 92.6352 153.545 92.7976 154.26 92.9857C154.975 93.1737 155.667 93.3931 156.317 93.6352C156.967 93.8774 157.599 94.1538 158.192 94.4529C158.804 94.7634 159.4 95.0882 159.961 95.4187C160.519 95.7492 161.066 96.0968 161.582 96.4529C162.092 96.8062 162.588 97.1765 163.055 97.5554C163.519 97.9315 163.967 98.3275 164.382 98.7264C164.801 99.1281 165.22 99.564 165.627 100.017C166.038 100.473 166.445 100.96 166.841 101.461C167.24 101.969 167.636 102.507 168.021 103.065C168.408 103.627 168.793 104.219 169.166 104.826C169.901 106.008 170.605 107.233 171.266 108.47C171.927 109.706 172.559 110.994 173.146 112.293C173.736 113.598 174.297 114.946 174.813 116.305C175.331 117.678 175.818 119.091 176.26 120.51C177.263 123.743 178.069 126.852 178.656 129.746L178.653 129.749Z" fill="url(#paint13_linear_44_17303)"/>
<g style="mix-blend-mode:screen">
<path style="mix-blend-mode:screen" d="M189.867 100.945C189.696 100.435 189.491 99.9537 189.254 99.5178C189.021 99.0876 188.753 98.6859 188.456 98.327C188.163 97.9708 187.83 97.6432 187.474 97.3583C187.115 97.0734 186.719 96.817 186.294 96.6033C185.87 96.3868 185.425 96.213 184.966 96.0877C184.508 95.9623 184.023 95.8797 183.531 95.8426C183.032 95.8056 182.511 95.8141 181.975 95.8683C181.437 95.9224 180.87 96.025 180.271 96.176C179.887 96.2728 179.514 96.3868 179.166 96.515C178.813 96.6432 178.476 96.7857 178.163 96.9423C177.853 97.099 177.556 97.27 177.283 97.4523C177.012 97.6346 176.756 97.8341 176.522 98.0449C176.291 98.2557 176.078 98.4779 175.89 98.7059C175.704 98.9338 175.539 99.1759 175.397 99.4238C175.257 99.6717 175.137 99.9338 175.041 100.202C174.944 100.472 174.87 100.757 174.818 101.048C174.764 101.347 174.727 101.652 174.71 101.948C174.693 102.244 174.693 102.546 174.71 102.843C174.73 103.136 174.767 103.438 174.824 103.734C174.881 104.031 174.955 104.333 175.049 104.629C175.143 104.931 175.257 105.227 175.382 105.509C175.511 105.794 175.653 106.073 175.813 106.341C175.972 106.609 176.149 106.874 176.343 107.125C176.533 107.375 176.747 107.623 176.975 107.863C177.194 108.093 177.431 108.307 177.679 108.498C177.924 108.689 178.189 108.862 178.462 109.013C178.736 109.164 179.029 109.301 179.328 109.412C179.63 109.526 179.952 109.62 180.283 109.694C180.616 109.768 180.961 109.82 181.308 109.851C181.659 109.882 182.021 109.891 182.385 109.88C182.753 109.865 183.132 109.831 183.513 109.774C183.895 109.717 184.294 109.637 184.693 109.535L184.71 109.529C185.288 109.381 185.833 109.202 186.325 108.991C186.815 108.783 187.268 108.541 187.67 108.27C188.066 108.005 188.425 107.706 188.736 107.378C189.043 107.056 189.314 106.697 189.539 106.316C189.761 105.934 189.938 105.532 190.063 105.119C190.189 104.709 190.266 104.276 190.291 103.834C190.32 103.39 190.297 102.922 190.226 102.447C190.154 101.962 190.029 101.458 189.858 100.945H189.867ZM185.736 105.162C185.707 105.458 185.645 105.731 185.559 105.962C185.499 106.145 185.419 106.313 185.32 106.461C185.217 106.615 185.095 106.751 184.952 106.871C184.815 106.988 184.656 107.09 184.479 107.173C184.314 107.253 184.132 107.318 183.929 107.37C183.733 107.421 183.536 107.449 183.345 107.461C183.152 107.472 182.961 107.461 182.776 107.427C182.59 107.392 182.408 107.338 182.237 107.261C182.066 107.184 181.901 107.088 181.753 106.974C181.533 106.811 181.323 106.612 181.123 106.381C180.932 106.159 180.75 105.9 180.576 105.609C180.408 105.327 180.249 105.011 180.1 104.666C179.952 104.327 179.813 103.951 179.687 103.555C179.559 103.156 179.454 102.774 179.38 102.418C179.303 102.059 179.249 101.714 179.226 101.398C179.2 101.071 179.203 100.766 179.231 100.486C179.263 100.196 179.325 99.9224 179.417 99.6745C179.482 99.5007 179.568 99.3383 179.673 99.193C179.778 99.0449 179.904 98.9138 180.046 98.7999C180.186 98.6859 180.345 98.5891 180.516 98.5064C180.682 98.4295 180.864 98.364 181.058 98.3156H181.063C181.26 98.2643 181.451 98.2329 181.636 98.2244C181.827 98.213 182.015 98.2244 182.194 98.2529C182.377 98.2842 182.553 98.3383 182.721 98.4124C182.887 98.4865 183.049 98.5805 183.194 98.6916C183.414 98.854 183.625 99.0534 183.821 99.2814C184.012 99.5036 184.197 99.76 184.368 100.045C184.536 100.324 184.696 100.637 184.847 100.977C184.995 101.313 185.135 101.683 185.263 102.076C185.394 102.478 185.499 102.86 185.579 103.213C185.662 103.578 185.716 103.922 185.741 104.239C185.77 104.566 185.77 104.877 185.741 105.159L185.736 105.162Z" fill="url(#paint14_linear_44_17303)"/>
<path style="mix-blend-mode:screen" d="M190.53 124.645L193.696 123.842L200.396 91.0813L197.325 91.8562L190.53 124.645Z" fill="url(#paint15_linear_44_17303)"/>
<path style="mix-blend-mode:screen" d="M216.693 112.067C216.604 111.571 216.465 111.053 216.274 110.526C216.083 109.996 215.855 109.5 215.602 109.05C215.348 108.603 215.06 108.187 214.744 107.816C214.431 107.446 214.08 107.107 213.701 106.811C213.322 106.511 212.906 106.246 212.465 106.021C212.026 105.796 211.562 105.617 211.086 105.483C210.613 105.352 210.112 105.264 209.602 105.224C209.089 105.184 208.55 105.19 208 105.244C207.448 105.298 206.867 105.4 206.263 105.554C205.869 105.654 205.493 105.771 205.143 105.899C204.79 106.027 204.453 106.175 204.137 106.335C203.827 106.494 203.528 106.671 203.254 106.859C202.983 107.047 202.727 107.252 202.491 107.472C202.26 107.685 202.046 107.916 201.861 108.152C201.679 108.386 201.516 108.634 201.379 108.887C201.243 109.141 201.129 109.409 201.04 109.682C200.949 109.959 200.884 110.249 200.838 110.546C200.793 110.85 200.767 111.161 200.758 111.469C200.75 111.776 200.761 112.087 200.793 112.392C200.824 112.702 200.872 113.013 200.938 113.318C201.006 113.628 201.095 113.942 201.2 114.249C201.305 114.56 201.431 114.865 201.567 115.158C201.707 115.452 201.864 115.739 202.032 116.016C202.203 116.292 202.391 116.563 202.596 116.822C202.798 117.081 203.023 117.338 203.26 117.583C203.491 117.822 203.741 118.044 203.998 118.241C204.254 118.437 204.53 118.62 204.818 118.776C205.106 118.936 205.411 119.073 205.724 119.189C206.04 119.306 206.374 119.406 206.718 119.483C207.066 119.56 207.422 119.617 207.781 119.651C208.143 119.685 208.513 119.697 208.887 119.685C209.26 119.674 209.647 119.64 210.035 119.583C210.425 119.526 210.827 119.446 211.228 119.343H211.237C211.832 119.189 212.391 119.001 212.892 118.788C213.391 118.574 213.849 118.323 214.254 118.047C214.653 117.773 215.012 117.466 215.32 117.132C215.624 116.802 215.889 116.432 216.106 116.038C216.322 115.645 216.49 115.229 216.607 114.808C216.721 114.386 216.79 113.942 216.804 113.489C216.818 113.03 216.784 112.551 216.698 112.061L216.693 112.067ZM212.149 114.822C212.126 115.124 212.072 115.406 211.986 115.665C211.924 115.845 211.841 116.013 211.738 116.164C211.636 116.315 211.508 116.454 211.365 116.574C211.226 116.691 211.066 116.793 210.887 116.879C210.718 116.959 210.53 117.027 210.328 117.078C210.129 117.13 209.929 117.161 209.738 117.169C209.542 117.181 209.348 117.169 209.166 117.138C208.978 117.104 208.795 117.05 208.622 116.973C208.451 116.896 208.283 116.799 208.134 116.685C207.906 116.517 207.687 116.315 207.479 116.078C207.277 115.848 207.083 115.583 206.901 115.289C206.721 115.001 206.55 114.677 206.388 114.323C206.228 113.976 206.075 113.591 205.932 113.181C205.79 112.768 205.673 112.377 205.585 112.016C205.493 111.648 205.431 111.295 205.397 110.97C205.359 110.64 205.354 110.323 205.377 110.036C205.399 109.736 205.456 109.457 205.536 109.221C205.593 109.038 205.67 108.868 205.77 108.714C205.869 108.56 205.992 108.417 206.134 108.298C206.271 108.178 206.431 108.076 206.607 107.99C206.773 107.907 206.961 107.842 207.16 107.791H207.163C207.362 107.739 207.559 107.708 207.747 107.697C207.941 107.685 208.134 107.697 208.317 107.725C208.502 107.756 208.684 107.808 208.858 107.882C209.029 107.953 209.197 108.047 209.362 108.167C209.59 108.335 209.81 108.54 210.015 108.774C210.217 109.001 210.411 109.266 210.593 109.56C210.773 109.848 210.946 110.17 211.109 110.52C211.268 110.865 211.425 111.246 211.57 111.657C211.716 112.07 211.835 112.46 211.926 112.822C212.018 113.192 212.083 113.546 212.123 113.873C212.16 114.209 212.169 114.526 212.149 114.816V114.822Z" fill="url(#paint16_linear_44_17303)"/>
<path style="mix-blend-mode:screen" d="M174.813 116.306C174.297 114.95 173.739 113.599 173.146 112.294C172.559 110.995 171.924 109.71 171.266 108.471C170.605 107.235 169.901 106.01 169.166 104.827C168.796 104.22 168.408 103.628 168.021 103.067C167.636 102.511 167.237 101.97 166.841 101.463C166.445 100.958 166.038 100.471 165.628 100.018C165.22 99.5652 164.801 99.1293 164.383 98.7276C163.967 98.3287 163.519 97.9327 163.055 97.5567C162.588 97.1777 162.092 96.8045 161.582 96.4541C161.066 96.098 160.522 95.7504 159.961 95.4199C159.4 95.0894 158.804 94.7647 158.192 94.4541C157.599 94.155 156.967 93.8786 156.317 93.6365C155.668 93.3943 154.975 93.1749 154.26 92.9869C153.548 92.7989 152.79 92.6365 152.015 92.5054C151.237 92.3744 150.42 92.2689 149.582 92.1949C148.759 92.1236 147.878 92.0952 146.964 92.1151C146.044 92.135 145.064 92.2006 144.052 92.3145C143.032 92.4285 141.955 92.5909 140.847 92.7989C139.733 93.0068 138.557 93.2689 137.351 93.5709L137.232 93.6023C134.776 94.229 132.485 94.9726 130.426 95.8188C128.346 96.6706 126.437 97.6507 124.756 98.7304C123.087 99.8017 121.591 101.004 120.312 102.3C119.035 103.594 117.938 105.024 117.047 106.548C116.158 108.067 115.46 109.813 114.97 111.742C114.471 113.71 114.175 115.927 114.092 118.326C114.007 120.773 114.141 123.482 114.488 126.377C114.842 129.32 115.426 132.545 116.226 135.958C116.46 136.952 116.711 137.927 116.97 138.887C118.397 138.499 119.827 138.12 121.272 137.753C126.138 136.514 130.97 135.42 135.753 134.457C135.46 133.431 135.169 132.366 134.884 131.263C134.286 128.958 133.779 126.799 133.374 124.847C132.973 122.896 132.662 121.086 132.451 119.474C132.24 117.853 132.124 116.377 132.106 115.084C132.089 113.765 132.172 112.591 132.354 111.599C132.542 110.588 132.833 109.653 133.218 108.822C133.611 107.973 134.115 107.209 134.713 106.554C135.314 105.896 136.021 105.334 136.819 104.881C137.594 104.443 138.471 104.095 139.428 103.853L139.445 103.847C140.388 103.608 141.323 103.494 142.22 103.505C143.132 103.52 144.027 103.662 144.881 103.936C145.733 104.206 146.562 104.611 147.348 105.135C148.121 105.648 148.87 106.294 149.579 107.049C150.286 107.804 150.998 108.782 151.693 109.958C152.371 111.104 153.058 112.477 153.733 114.038C154.408 115.596 155.092 117.386 155.767 119.357C156.445 121.334 157.138 123.565 157.824 125.981C158.294 127.639 158.719 129.217 159.081 130.673C159.089 130.71 159.098 130.744 159.106 130.782C165.779 130.032 172.28 129.571 178.568 129.377C177.989 126.585 177.214 123.608 176.251 120.508C175.813 119.089 175.326 117.676 174.804 116.303L174.813 116.306Z" fill="url(#paint17_linear_44_17303)"/>
</g>
<path style="mix-blend-mode:screen" opacity="0.5" d="M127.198 140.04C133.189 138.764 137.697 136.093 137.267 134.074C136.837 132.055 131.632 131.452 125.641 132.728C119.65 134.003 115.142 136.674 115.571 138.694C116.001 140.713 121.207 141.315 127.198 140.04Z" fill="url(#paint18_radial_44_17303)"/>
<path style="mix-blend-mode:screen" d="M179.003 152.703C177.248 156.441 175.277 159.21 174.599 158.894C173.921 158.575 174.793 155.287 176.548 151.552C178.303 147.814 180.274 145.045 180.952 145.361C181.63 145.68 180.758 148.968 179.003 152.703Z" fill="url(#paint19_radial_44_17303)"/>
<path style="mix-blend-mode:screen" d="M133.22 167.993C129.363 165.953 126.673 163.472 127.215 162.449C127.756 161.426 131.32 162.25 135.177 164.292C139.035 166.332 141.724 168.814 141.183 169.837C140.642 170.859 137.078 170.036 133.22 167.993Z" fill="url(#paint20_radial_44_17303)"/>
<path style="mix-blend-mode:screen" d="M154.502 131.642C152.22 122.685 152.189 114.959 154.431 114.389C156.673 113.816 160.342 120.617 162.624 129.574C164.906 138.531 164.938 146.258 162.696 146.827C160.454 147.4 156.784 140.6 154.502 131.642Z" fill="url(#paint21_radial_44_17303)"/>
<g style="mix-blend-mode:screen">
<path d="M155.77 119.361C155.095 117.39 154.411 115.601 153.736 114.042C153.058 112.478 152.374 111.108 151.696 109.963C151.001 108.789 150.291 107.809 149.582 107.054C148.873 106.296 148.123 105.652 147.351 105.139C146.565 104.615 145.733 104.21 144.884 103.94C144.029 103.669 143.135 103.524 142.223 103.51C141.326 103.498 140.394 103.612 139.448 103.851L139.431 103.857C138.474 104.102 137.596 104.447 136.821 104.886C136.024 105.339 135.314 105.9 134.716 106.558C134.118 107.213 133.616 107.977 133.22 108.826C132.836 109.658 132.545 110.592 132.357 111.604C132.172 112.595 132.089 113.769 132.109 115.088C132.129 116.381 132.243 117.857 132.454 119.478C132.665 121.091 132.975 122.897 133.377 124.851C133.779 126.803 134.289 128.962 134.887 131.267C135.497 133.612 136.123 135.8 136.75 137.769C137.386 139.757 138.038 141.575 138.688 143.17C139.348 144.794 140.029 146.233 140.71 147.449C141.408 148.703 142.132 149.763 142.861 150.603C143.599 151.449 144.371 152.176 145.158 152.757C145.97 153.358 146.821 153.828 147.69 154.153C148.573 154.484 149.494 154.674 150.425 154.714C151.348 154.757 152.303 154.652 153.263 154.41C153.893 154.25 154.494 154.036 155.055 153.78C155.619 153.518 156.157 153.204 156.653 152.843C157.149 152.481 157.61 152.068 158.032 151.609C158.448 151.156 158.833 150.649 159.172 150.102C159.516 149.549 159.816 148.939 160.058 148.284C160.297 147.649 160.491 146.951 160.633 146.213C160.773 145.495 160.87 144.717 160.921 143.9C160.969 143.093 160.975 142.236 160.935 141.344C160.898 140.458 160.801 139.452 160.647 138.355C160.496 137.276 160.289 136.079 160.029 134.8C159.77 133.524 159.454 132.136 159.089 130.672C158.727 129.216 158.303 127.638 157.833 125.98C157.146 123.564 156.454 121.333 155.776 119.356L155.77 119.361ZM157.844 130.985C158.209 132.444 158.516 133.8 158.773 135.059C159.029 136.321 159.232 137.481 159.38 138.538C159.528 139.598 159.619 140.552 159.656 141.404C159.693 142.256 159.687 143.065 159.642 143.826C159.596 144.589 159.508 145.304 159.377 145.974C159.246 146.643 159.072 147.267 158.858 147.843C158.642 148.418 158.385 148.948 158.083 149.429C157.781 149.911 157.451 150.35 157.086 150.749C156.722 151.145 156.326 151.501 155.898 151.814C155.471 152.127 155.009 152.395 154.519 152.623C154.026 152.851 153.505 153.033 152.95 153.176C152.109 153.39 151.286 153.478 150.485 153.444C149.685 153.407 148.901 153.247 148.14 152.962C147.38 152.677 146.639 152.267 145.921 151.734C145.203 151.202 144.505 150.546 143.83 149.769C143.158 148.991 142.491 148.011 141.83 146.828C141.172 145.649 140.519 144.267 139.876 142.689C139.235 141.116 138.599 139.344 137.972 137.381C137.348 135.427 136.733 133.281 136.129 130.948C135.534 128.652 135.035 126.535 134.633 124.595C134.235 122.663 133.933 120.903 133.725 119.316C133.519 117.735 133.405 116.321 133.388 115.074C133.371 113.831 133.448 112.755 133.616 111.84C133.787 110.928 134.041 110.102 134.383 109.367C134.725 108.632 135.149 107.985 135.662 107.424C136.175 106.863 136.77 106.39 137.454 106.002C138.138 105.615 138.907 105.313 139.764 105.096C140.605 104.883 141.417 104.783 142.206 104.794C142.995 104.806 143.759 104.928 144.499 105.165C145.24 105.401 145.955 105.749 146.648 106.21C147.34 106.672 148.009 107.247 148.653 107.937C149.3 108.626 149.947 109.521 150.599 110.621C151.252 111.723 151.907 113.037 152.568 114.558C153.229 116.085 153.895 117.826 154.565 119.783C155.237 121.749 155.918 123.934 156.602 126.341C157.072 127.988 157.485 129.541 157.85 130.994L157.844 130.985Z" fill="url(#paint22_radial_44_17303)"/>
</g>
<g style="mix-blend-mode:screen">
<path d="M155.77 119.361C155.095 117.39 154.411 115.601 153.736 114.042C153.058 112.478 152.374 111.108 151.696 109.963C151.001 108.789 150.291 107.809 149.582 107.054C148.873 106.296 148.123 105.652 147.351 105.139C146.565 104.615 145.733 104.21 144.884 103.94C144.029 103.669 143.135 103.524 142.223 103.51C141.326 103.498 140.394 103.612 139.448 103.851L139.431 103.857C138.474 104.102 137.596 104.447 136.821 104.886C136.024 105.339 135.314 105.9 134.716 106.558C134.118 107.213 133.616 107.977 133.22 108.826C132.836 109.658 132.545 110.592 132.357 111.604C132.172 112.595 132.089 113.769 132.109 115.088C132.129 116.381 132.243 117.857 132.454 119.478C132.665 121.091 132.975 122.897 133.377 124.851C133.779 126.803 134.289 128.962 134.887 131.267C135.497 133.612 136.123 135.8 136.75 137.769C137.386 139.757 138.038 141.575 138.688 143.17C139.348 144.794 140.029 146.233 140.71 147.449C141.408 148.703 142.132 149.763 142.861 150.603C143.599 151.449 144.371 152.176 145.158 152.757C145.97 153.358 146.821 153.828 147.69 154.153C148.573 154.484 149.494 154.674 150.425 154.714C151.348 154.757 152.303 154.652 153.263 154.41C153.893 154.25 154.494 154.036 155.055 153.78C155.619 153.518 156.157 153.204 156.653 152.843C157.149 152.481 157.61 152.068 158.032 151.609C158.448 151.156 158.833 150.649 159.172 150.102C159.516 149.549 159.816 148.939 160.058 148.284C160.297 147.649 160.491 146.951 160.633 146.213C160.773 145.495 160.87 144.717 160.921 143.9C160.969 143.093 160.975 142.236 160.935 141.344C160.898 140.458 160.801 139.452 160.647 138.355C160.496 137.276 160.289 136.079 160.029 134.8C159.77 133.524 159.454 132.136 159.089 130.672C158.727 129.216 158.303 127.638 157.833 125.98C157.146 123.564 156.454 121.333 155.776 119.356L155.77 119.361ZM157.844 130.985C158.209 132.444 158.516 133.8 158.773 135.059C159.029 136.321 159.232 137.481 159.38 138.538C159.528 139.598 159.619 140.552 159.656 141.404C159.693 142.256 159.687 143.065 159.642 143.826C159.596 144.589 159.508 145.304 159.377 145.974C159.246 146.643 159.072 147.267 158.858 147.843C158.642 148.418 158.385 148.948 158.083 149.429C157.781 149.911 157.451 150.35 157.086 150.749C156.722 151.145 156.326 151.501 155.898 151.814C155.471 152.127 155.009 152.395 154.519 152.623C154.026 152.851 153.505 153.033 152.95 153.176C152.109 153.39 151.286 153.478 150.485 153.444C149.685 153.407 148.901 153.247 148.14 152.962C147.38 152.677 146.639 152.267 145.921 151.734C145.203 151.202 144.505 150.546 143.83 149.769C143.158 148.991 142.491 148.011 141.83 146.828C141.172 145.649 140.519 144.267 139.876 142.689C139.235 141.116 138.599 139.344 137.972 137.381C137.348 135.427 136.733 133.281 136.129 130.948C135.534 128.652 135.035 126.535 134.633 124.595C134.235 122.663 133.933 120.903 133.725 119.316C133.519 117.735 133.405 116.321 133.388 115.074C133.371 113.831 133.448 112.755 133.616 111.84C133.787 110.928 134.041 110.102 134.383 109.367C134.725 108.632 135.149 107.985 135.662 107.424C136.175 106.863 136.77 106.39 137.454 106.002C138.138 105.615 138.907 105.313 139.764 105.096C140.605 104.883 141.417 104.783 142.206 104.794C142.995 104.806 143.759 104.928 144.499 105.165C145.24 105.401 145.955 105.749 146.648 106.21C147.34 106.672 148.009 107.247 148.653 107.937C149.3 108.626 149.947 109.521 150.599 110.621C151.252 111.723 151.907 113.037 152.568 114.558C153.229 116.085 153.895 117.826 154.565 119.783C155.237 121.749 155.918 123.934 156.602 126.341C157.072 127.988 157.485 129.541 157.85 130.994L157.844 130.985Z" fill="url(#paint23_radial_44_17303)"/>
</g>
<g style="mix-blend-mode:screen">
<path d="M155.77 119.361C155.095 117.39 154.411 115.601 153.736 114.042C153.058 112.478 152.374 111.108 151.696 109.963C151.001 108.789 150.291 107.809 149.582 107.054C148.873 106.296 148.123 105.652 147.351 105.139C146.565 104.615 145.733 104.21 144.884 103.94C144.029 103.669 143.135 103.524 142.223 103.51C141.326 103.498 140.394 103.612 139.448 103.851L139.431 103.857C138.474 104.102 137.596 104.447 136.821 104.886C136.024 105.339 135.314 105.9 134.716 106.558C134.118 107.213 133.616 107.977 133.22 108.826C132.836 109.658 132.545 110.592 132.357 111.604C132.172 112.595 132.089 113.769 132.109 115.088C132.129 116.381 132.243 117.857 132.454 119.478C132.665 121.091 132.975 122.897 133.377 124.851C133.779 126.803 134.289 128.962 134.887 131.267C135.497 133.612 136.123 135.8 136.75 137.769C137.386 139.757 138.038 141.575 138.688 143.17C139.348 144.794 140.029 146.233 140.71 147.449C141.408 148.703 142.132 149.763 142.861 150.603C143.599 151.449 144.371 152.176 145.158 152.757C145.97 153.358 146.821 153.828 147.69 154.153C148.573 154.484 149.494 154.674 150.425 154.714C151.348 154.757 152.303 154.652 153.263 154.41C153.893 154.25 154.494 154.036 155.055 153.78C155.619 153.518 156.157 153.204 156.653 152.843C157.149 152.481 157.61 152.068 158.032 151.609C158.448 151.156 158.833 150.649 159.172 150.102C159.516 149.549 159.816 148.939 160.058 148.284C160.297 147.649 160.491 146.951 160.633 146.213C160.773 145.495 160.87 144.717 160.921 143.9C160.969 143.093 160.975 142.236 160.935 141.344C160.898 140.458 160.801 139.452 160.647 138.355C160.496 137.276 160.289 136.079 160.029 134.8C159.77 133.524 159.454 132.136 159.089 130.672C158.727 129.216 158.303 127.638 157.833 125.98C157.146 123.564 156.454 121.333 155.776 119.356L155.77 119.361ZM157.844 130.985C158.209 132.444 158.516 133.8 158.773 135.059C159.029 136.321 159.232 137.481 159.38 138.538C159.528 139.598 159.619 140.552 159.656 141.404C159.693 142.256 159.687 143.065 159.642 143.826C159.596 144.589 159.508 145.304 159.377 145.974C159.246 146.643 159.072 147.267 158.858 147.843C158.642 148.418 158.385 148.948 158.083 149.429C157.781 149.911 157.451 150.35 157.086 150.749C156.722 151.145 156.326 151.501 155.898 151.814C155.471 152.127 155.009 152.395 154.519 152.623C154.026 152.851 153.505 153.033 152.95 153.176C152.109 153.39 151.286 153.478 150.485 153.444C149.685 153.407 148.901 153.247 148.14 152.962C147.38 152.677 146.639 152.267 145.921 151.734C145.203 151.202 144.505 150.546 143.83 149.769C143.158 148.991 142.491 148.011 141.83 146.828C141.172 145.649 140.519 144.267 139.876 142.689C139.235 141.116 138.599 139.344 137.972 137.381C137.348 135.427 136.733 133.281 136.129 130.948C135.534 128.652 135.035 126.535 134.633 124.595C134.235 122.663 133.933 120.903 133.725 119.316C133.519 117.735 133.405 116.321 133.388 115.074C133.371 113.831 133.448 112.755 133.616 111.84C133.787 110.928 134.041 110.102 134.383 109.367C134.725 108.632 135.149 107.985 135.662 107.424C136.175 106.863 136.77 106.39 137.454 106.002C138.138 105.615 138.907 105.313 139.764 105.096C140.605 104.883 141.417 104.783 142.206 104.794C142.995 104.806 143.759 104.928 144.499 105.165C145.24 105.401 145.955 105.749 146.648 106.21C147.34 106.672 148.009 107.247 148.653 107.937C149.3 108.626 149.947 109.521 150.599 110.621C151.252 111.723 151.907 113.037 152.568 114.558C153.229 116.085 153.895 117.826 154.565 119.783C155.237 121.749 155.918 123.934 156.602 126.341C157.072 127.988 157.485 129.541 157.85 130.994L157.844 130.985Z" fill="url(#paint24_radial_44_17303)"/>
</g>
<g style="mix-blend-mode:screen">
<path d="M155.77 119.361C155.095 117.39 154.411 115.601 153.736 114.042C153.058 112.478 152.374 111.108 151.696 109.963C151.001 108.789 150.291 107.809 149.582 107.054C148.873 106.296 148.123 105.652 147.351 105.139C146.565 104.615 145.733 104.21 144.884 103.94C144.029 103.669 143.135 103.524 142.223 103.51C141.326 103.498 140.394 103.612 139.448 103.851L139.431 103.857C138.474 104.102 137.596 104.447 136.821 104.886C136.024 105.339 135.314 105.9 134.716 106.558C134.118 107.213 133.616 107.977 133.22 108.826C132.836 109.658 132.545 110.592 132.357 111.604C132.172 112.595 132.089 113.769 132.109 115.088C132.129 116.381 132.243 117.857 132.454 119.478C132.665 121.091 132.975 122.897 133.377 124.851C133.779 126.803 134.289 128.962 134.887 131.267C135.497 133.612 136.123 135.8 136.75 137.769C137.386 139.757 138.038 141.575 138.688 143.17C139.348 144.794 140.029 146.233 140.71 147.449C141.408 148.703 142.132 149.763 142.861 150.603C143.599 151.449 144.371 152.176 145.158 152.757C145.97 153.358 146.821 153.828 147.69 154.153C148.573 154.484 149.494 154.674 150.425 154.714C151.348 154.757 152.303 154.652 153.263 154.41C153.893 154.25 154.494 154.036 155.055 153.78C155.619 153.518 156.157 153.204 156.653 152.843C157.149 152.481 157.61 152.068 158.032 151.609C158.448 151.156 158.833 150.649 159.172 150.102C159.516 149.549 159.816 148.939 160.058 148.284C160.297 147.649 160.491 146.951 160.633 146.213C160.773 145.495 160.87 144.717 160.921 143.9C160.969 143.093 160.975 142.236 160.935 141.344C160.898 140.458 160.801 139.452 160.647 138.355C160.496 137.276 160.289 136.079 160.029 134.8C159.77 133.524 159.454 132.136 159.089 130.672C158.727 129.216 158.303 127.638 157.833 125.98C157.146 123.564 156.454 121.333 155.776 119.356L155.77 119.361ZM157.844 130.985C158.209 132.444 158.516 133.8 158.773 135.059C159.029 136.321 159.232 137.481 159.38 138.538C159.528 139.598 159.619 140.552 159.656 141.404C159.693 142.256 159.687 143.065 159.642 143.826C159.596 144.589 159.508 145.304 159.377 145.974C159.246 146.643 159.072 147.267 158.858 147.843C158.642 148.418 158.385 148.948 158.083 149.429C157.781 149.911 157.451 150.35 157.086 150.749C156.722 151.145 156.326 151.501 155.898 151.814C155.471 152.127 155.009 152.395 154.519 152.623C154.026 152.851 153.505 153.033 152.95 153.176C152.109 153.39 151.286 153.478 150.485 153.444C149.685 153.407 148.901 153.247 148.14 152.962C147.38 152.677 146.639 152.267 145.921 151.734C145.203 151.202 144.505 150.546 143.83 149.769C143.158 148.991 142.491 148.011 141.83 146.828C141.172 145.649 140.519 144.267 139.876 142.689C139.235 141.116 138.599 139.344 137.972 137.381C137.348 135.427 136.733 133.281 136.129 130.948C135.534 128.652 135.035 126.535 134.633 124.595C134.235 122.663 133.933 120.903 133.725 119.316C133.519 117.735 133.405 116.321 133.388 115.074C133.371 113.831 133.448 112.755 133.616 111.84C133.787 110.928 134.041 110.102 134.383 109.367C134.725 108.632 135.149 107.985 135.662 107.424C136.175 106.863 136.77 106.39 137.454 106.002C138.138 105.615 138.907 105.313 139.764 105.096C140.605 104.883 141.417 104.783 142.206 104.794C142.995 104.806 143.759 104.928 144.499 105.165C145.24 105.401 145.955 105.749 146.648 106.21C147.34 106.672 148.009 107.247 148.653 107.937C149.3 108.626 149.947 109.521 150.599 110.621C151.252 111.723 151.907 113.037 152.568 114.558C153.229 116.085 153.895 117.826 154.565 119.783C155.237 121.749 155.918 123.934 156.602 126.341C157.072 127.988 157.485 129.541 157.85 130.994L157.844 130.985Z" fill="url(#paint25_radial_44_17303)"/>
</g>
<g style="mix-blend-mode:screen">
<path d="M155.77 119.361C155.095 117.39 154.411 115.601 153.736 114.042C153.058 112.478 152.374 111.108 151.696 109.963C151.001 108.789 150.291 107.809 149.582 107.054C148.873 106.296 148.123 105.652 147.351 105.139C146.565 104.615 145.733 104.21 144.884 103.94C144.029 103.669 143.135 103.524 142.223 103.51C141.326 103.498 140.394 103.612 139.448 103.851L139.431 103.857C138.474 104.102 137.596 104.447 136.821 104.886C136.024 105.339 135.314 105.9 134.716 106.558C134.118 107.213 133.616 107.977 133.22 108.826C132.836 109.658 132.545 110.592 132.357 111.604C132.172 112.595 132.089 113.769 132.109 115.088C132.129 116.381 132.243 117.857 132.454 119.478C132.665 121.091 132.975 122.897 133.377 124.851C133.779 126.803 134.289 128.962 134.887 131.267C135.497 133.612 136.123 135.8 136.75 137.769C137.386 139.757 138.038 141.575 138.688 143.17C139.348 144.794 140.029 146.233 140.71 147.449C141.408 148.703 142.132 149.763 142.861 150.603C143.599 151.449 144.371 152.176 145.158 152.757C145.97 153.358 146.821 153.828 147.69 154.153C148.573 154.484 149.494 154.674 150.425 154.714C151.348 154.757 152.303 154.652 153.263 154.41C153.893 154.25 154.494 154.036 155.055 153.78C155.619 153.518 156.157 153.204 156.653 152.843C157.149 152.481 157.61 152.068 158.032 151.609C158.448 151.156 158.833 150.649 159.172 150.102C159.516 149.549 159.816 148.939 160.058 148.284C160.297 147.649 160.491 146.951 160.633 146.213C160.773 145.495 160.87 144.717 160.921 143.9C160.969 143.093 160.975 142.236 160.935 141.344C160.898 140.458 160.801 139.452 160.647 138.355C160.496 137.276 160.289 136.079 160.029 134.8C159.77 133.524 159.454 132.136 159.089 130.672C158.727 129.216 158.303 127.638 157.833 125.98C157.146 123.564 156.454 121.333 155.776 119.356L155.77 119.361ZM157.844 130.985C158.209 132.444 158.516 133.8 158.773 135.059C159.029 136.321 159.232 137.481 159.38 138.538C159.528 139.598 159.619 140.552 159.656 141.404C159.693 142.256 159.687 143.065 159.642 143.826C159.596 144.589 159.508 145.304 159.377 145.974C159.246 146.643 159.072 147.267 158.858 147.843C158.642 148.418 158.385 148.948 158.083 149.429C157.781 149.911 157.451 150.35 157.086 150.749C156.722 151.145 156.326 151.501 155.898 151.814C155.471 152.127 155.009 152.395 154.519 152.623C154.026 152.851 153.505 153.033 152.95 153.176C152.109 153.39 151.286 153.478 150.485 153.444C149.685 153.407 148.901 153.247 148.14 152.962C147.38 152.677 146.639 152.267 145.921 151.734C145.203 151.202 144.505 150.546 143.83 149.769C143.158 148.991 142.491 148.011 141.83 146.828C141.172 145.649 140.519 144.267 139.876 142.689C139.235 141.116 138.599 139.344 137.972 137.381C137.348 135.427 136.733 133.281 136.129 130.948C135.534 128.652 135.035 126.535 134.633 124.595C134.235 122.663 133.933 120.903 133.725 119.316C133.519 117.735 133.405 116.321 133.388 115.074C133.371 113.831 133.448 112.755 133.616 111.84C133.787 110.928 134.041 110.102 134.383 109.367C134.725 108.632 135.149 107.985 135.662 107.424C136.175 106.863 136.77 106.39 137.454 106.002C138.138 105.615 138.907 105.313 139.764 105.096C140.605 104.883 141.417 104.783 142.206 104.794C142.995 104.806 143.759 104.928 144.499 105.165C145.24 105.401 145.955 105.749 146.648 106.21C147.34 106.672 148.009 107.247 148.653 107.937C149.3 108.626 149.947 109.521 150.599 110.621C151.252 111.723 151.907 113.037 152.568 114.558C153.229 116.085 153.895 117.826 154.565 119.783C155.237 121.749 155.918 123.934 156.602 126.341C157.072 127.988 157.485 129.541 157.85 130.994L157.844 130.985Z" fill="url(#paint26_radial_44_17303)"/>
</g>
<path style="mix-blend-mode:screen" d="M139.634 108.374C144.324 106.845 147.625 104.07 147.008 102.176C146.39 100.282 142.088 99.9868 137.398 101.516C132.708 103.045 129.407 105.82 130.025 107.714C130.642 109.608 134.945 109.903 139.634 108.374Z" fill="url(#paint27_radial_44_17303)"/>
<path opacity="0.2" d="M175.818 203.534C175.61 203.403 175.419 203.3 175.248 203.224L174.191 202.648L159.895 193.511C159.451 193.229 158.944 192.964 158.371 192.719C157.798 192.474 157.16 192.246 156.457 192.038C155.753 191.83 154.986 191.642 154.155 191.471C153.323 191.301 152.425 191.152 151.465 191.021C150.719 190.919 150.001 190.839 149.311 190.779C148.622 190.719 147.961 190.679 147.326 190.662C146.693 190.645 146.086 190.648 145.511 190.671C144.935 190.694 144.385 190.739 143.864 190.805C143.346 190.87 142.838 190.953 142.346 191.056C141.853 191.155 141.377 191.275 140.912 191.412C140.448 191.548 139.998 191.702 139.562 191.873C139.126 192.044 138.705 192.232 138.3 192.437C138.149 192.511 138.001 192.591 137.853 192.674C137.705 192.756 137.559 192.845 137.414 192.939C137.269 193.03 137.126 193.13 136.981 193.229C136.838 193.332 136.696 193.437 136.556 193.548L128.314 200.05C127.645 200.403 127.234 200.719 127.158 200.961L123.645 203.734C123.645 203.734 123.67 203.716 123.682 203.705C123.095 204.167 122.519 204.662 121.955 205.195C121.38 205.736 120.819 206.318 120.269 206.933C119.719 207.548 119.198 208.181 118.702 208.833C118.471 209.138 118.246 209.449 118.027 209.762H187.245L175.818 203.537V203.534Z" fill="url(#paint28_linear_44_17303)"/>
<path style="mix-blend-mode:multiply" d="M145.431 200.946C172.291 200.946 194.066 195.916 194.066 189.712C194.066 183.508 172.291 178.479 145.431 178.479C118.571 178.479 96.796 183.508 96.796 189.712C96.796 195.916 118.571 200.946 145.431 200.946Z" fill="url(#paint29_radial_44_17303)"/>
<path style="mix-blend-mode:multiply" d="M199.498 193.088C199.762 190.72 182.889 186.9 161.812 184.554C140.736 182.208 123.436 182.226 123.172 184.594C122.909 186.962 139.781 190.782 160.858 193.128C181.935 195.473 199.235 195.455 199.498 193.088Z" fill="url(#paint30_radial_44_17303)"/>
<path style="mix-blend-mode:multiply" d="M133.087 193.131C154.163 190.786 171.036 186.965 170.773 184.597C170.509 182.23 153.209 182.212 132.132 184.557C111.056 186.903 94.183 190.724 94.4465 193.091C94.71 195.459 112.01 195.477 133.087 193.131Z" fill="url(#paint31_radial_44_17303)"/>
<path d="M103.301 199.398L96.7847 207.479C95.373 206.938 93.87 206.194 92.3401 205.265L100.195 195.524C101.427 196.822 102.473 198.133 103.301 199.398Z" fill="#D83033"/>
<path d="M100.197 195.524L92.342 205.265C91.0241 204.465 89.6861 203.528 88.3691 202.466L96.6191 192.235C97.9362 193.297 99.1355 194.405 100.197 195.524Z" fill="#DA4434"/>
<path d="M107.429 204.018L104.803 207.276C104.228 207.988 103.331 208.384 102.2 208.49L106.445 203.225L107.429 204.018Z" fill="#CE2439"/>
<path d="M104.609 201.747L106.443 203.226L102.199 208.49C100.723 208.628 98.851 208.271 96.7837 207.479L103.3 199.398C103.827 200.205 104.267 200.993 104.609 201.747Z" fill="#D82633"/>
<path d="M88.1995 187.221L81.6833 195.301C80.471 193.449 79.7258 191.695 79.5477 190.224L83.7926 184.959L85.6265 186.438C86.4363 186.613 87.2993 186.875 88.1995 187.221Z" fill="#FFBD59"/>
<path d="M80.1832 187.424L82.8098 184.166L83.7934 184.96L79.5486 190.224C79.4124 189.097 79.6089 188.136 80.1832 187.424Z" fill="#FFC759"/>
<path d="M88.3666 202.465C87.0495 201.403 85.8506 200.294 84.7891 199.176L92.6436 189.435C93.9615 190.235 95.2995 191.172 96.6166 192.234L88.3666 202.465Z" fill="#FF6F37"/>
<path d="M92.6445 189.435L84.7899 199.176C83.5579 197.878 82.5123 196.567 81.6841 195.302L88.2002 187.221C89.612 187.762 91.1146 188.507 92.6445 189.435Z" fill="#FF9756"/>
<path d="M82.8095 184.166C80.5314 186.991 84.1952 193.726 90.9937 199.207C97.7922 204.689 105.15 206.843 107.428 204.018C109.706 201.193 106.042 194.458 99.2438 188.976C92.4453 183.495 85.0879 181.341 82.8095 184.166Z" fill="url(#paint32_linear_44_17303)"/>
<path d="M83.9162 184.946C81.887 187.463 85.2819 193.567 91.4989 198.58C97.716 203.593 104.401 205.618 106.43 203.101C108.459 200.584 105.065 194.48 98.8475 189.467C92.6304 184.454 85.9458 182.43 83.9162 184.946Z" fill="url(#paint33_linear_44_17303)"/>
<path d="M83.9645 185.666C82.0702 188.015 85.4043 193.846 91.4115 198.69C97.4187 203.534 103.824 205.557 105.719 203.207C107.613 200.858 104.279 195.027 98.2716 190.183C92.2644 185.339 85.8588 183.316 83.9645 185.666Z" fill="url(#paint34_linear_44_17303)"/>
<g opacity="0.44">
<path d="M82.8081 184.166C84.1675 182.479 87.3362 182.567 91.1152 184.076L91.4608 184.972L90.8768 185.696L95.0089 202.033C93.6768 201.227 92.3237 200.281 90.9924 199.207C84.1943 193.725 80.5301 186.991 82.8081 184.166Z" fill="#FFE6F7"/>
</g>
<path fill-rule="evenodd" clip-rule="evenodd" d="M93.4224 192.251L94.2926 193.071L94.2947 193.071C96.4289 192.425 98.2985 192.189 98.6818 192.55C99.0661 192.912 97.8378 193.752 95.8524 194.538L98.6419 197.165L96.8066 197.803L94.0171 195.176C91.8795 195.822 90.0073 196.06 89.623 195.699C89.2388 195.337 90.4694 194.496 92.4584 193.709L91.5882 192.889L89.0495 193.772L87.7225 192.522L94.6342 190.119L95.9611 191.369L93.4224 192.251ZM95.6139 194.314L95.6148 194.315L95.6158 194.316C97.3702 193.623 98.4792 192.917 98.1816 192.637C97.884 192.356 96.279 192.594 94.3952 193.166L95.3671 194.081C95.3181 194.103 95.0536 194.22 94.4871 194.417C94.0153 194.581 93.6572 194.684 93.5318 194.72L92.5589 193.803C90.7999 194.496 89.6883 195.205 89.9859 195.485C90.2844 195.766 91.893 195.527 93.7795 194.953L93.7785 194.952C93.9009 194.915 94.2437 194.81 94.7179 194.645C95.3108 194.439 95.5651 194.334 95.6139 194.314Z" fill="white"/>
<path d="M195.929 188.551L203.189 197.554C204.762 196.951 206.437 196.122 208.141 195.087L199.389 184.234C198.017 185.68 196.852 187.141 195.929 188.551Z" fill="#D83033"/>
<path d="M199.39 184.235L208.142 195.088C209.61 194.196 211.101 193.152 212.568 191.969L203.376 180.57C201.909 181.753 200.573 182.989 199.39 184.235Z" fill="#DA4434"/>
<path d="M191.331 193.699L194.257 197.328C194.897 198.122 195.897 198.563 197.156 198.68L192.427 192.815L191.331 193.699Z" fill="#CE2439"/>
<path d="M194.47 191.168L192.427 192.815L197.157 198.681C198.801 198.835 200.886 198.437 203.19 197.554L195.93 188.551C195.341 189.45 194.852 190.328 194.47 191.168Z" fill="#D82633"/>
<path d="M212.753 174.984L220.013 183.987C221.364 181.923 222.194 179.969 222.392 178.33L217.663 172.464L215.62 174.112C214.718 174.307 213.756 174.599 212.753 174.984Z" fill="#FFBD59"/>
<path d="M221.687 175.21L218.76 171.581L217.664 172.464L222.394 178.33C222.546 177.074 222.327 176.003 221.687 175.21Z" fill="#FFC759"/>
<path d="M212.568 191.968C214.035 190.785 215.371 189.55 216.554 188.303L207.802 177.45C206.334 178.342 204.843 179.386 203.376 180.569L212.568 191.968Z" fill="#FF6F37"/>
<path d="M207.802 177.451L216.554 188.304C217.927 186.857 219.092 185.397 220.014 183.987L212.754 174.984C211.181 175.587 209.507 176.416 207.802 177.451Z" fill="#FF9756"/>
<path d="M218.76 171.581C221.298 174.729 217.216 182.232 209.641 188.34C202.067 194.447 193.869 196.847 191.331 193.699C188.792 190.551 192.875 183.048 200.449 176.94C208.024 170.832 216.222 168.433 218.76 171.581Z" fill="url(#paint35_linear_44_17303)"/>
<path d="M217.526 172.449C219.787 175.253 216.004 182.054 209.077 187.64C202.151 193.226 194.702 195.48 192.441 192.677C190.18 189.873 193.963 183.072 200.89 177.486C207.816 171.9 215.264 169.645 217.526 172.449Z" fill="url(#paint36_linear_44_17303)"/>
<path d="M217.474 173.251C219.584 175.869 215.869 182.366 209.177 187.763C202.484 193.16 195.347 195.414 193.236 192.796C191.126 190.179 194.841 183.682 201.533 178.285C208.226 172.888 215.363 170.634 217.474 173.251Z" fill="url(#paint37_linear_44_17303)"/>
<g opacity="0.44">
<path d="M218.761 171.58C217.246 169.702 213.716 169.799 209.505 171.481L209.12 172.479L209.771 173.286L205.167 191.487C206.651 190.589 208.158 189.535 209.642 188.339C217.216 182.231 221.299 174.728 218.761 171.58Z" fill="#FFE6F7"/>
</g>
<path fill-rule="evenodd" clip-rule="evenodd" d="M208.276 180.332L207.289 181.368L207.29 181.369C209.814 181.387 211.41 181.717 210.976 182.173C210.54 182.63 208.216 183.064 205.523 183.222L202.361 186.541L200.036 186.603L203.199 183.285C200.673 183.265 199.071 182.937 199.507 182.48C199.942 182.023 202.269 181.589 204.967 181.43L205.953 180.395L202.738 180.481L204.243 178.902L212.995 178.667L211.491 180.246L208.276 180.332ZM205.796 182.937L205.795 182.939L205.794 182.94C208.169 182.802 210.17 182.46 210.508 182.106C210.845 181.752 209.409 181.502 207.178 181.488L206.076 182.644C206.004 182.65 205.624 182.682 204.907 182.701C204.309 182.717 203.894 182.71 203.751 182.706L204.854 181.549C202.475 181.686 200.469 182.029 200.131 182.383C199.793 182.738 201.233 182.988 203.471 183.001L203.472 183C203.615 183.001 204.025 183.002 204.625 182.986C205.376 182.966 205.727 182.943 205.796 182.937Z" fill="white"/>
<defs>
<filter id="filter0_f_44_17303" x="0.937378" y="0.802979" width="282.093" height="282.094" filterUnits="userSpaceOnUse" color-interpolation-filters="sRGB">
<feFlood flood-opacity="0" result="BackgroundImageFix"/>
<feBlend mode="normal" in="SourceGraphic" in2="BackgroundImageFix" result="shape"/>
<feGaussianBlur stdDeviation="33.5" result="effect1_foregroundBlur_44_17303"/>
</filter>
<linearGradient id="paint0_linear_44_17303" x1="211.95" y1="103.145" x2="167.393" y2="151.088" gradientUnits="userSpaceOnUse">
<stop stop-color="white"/>
<stop offset="0.313676" stop-color="#FFA500"/>
<stop offset="0.858354" stop-color="#991200"/>
<stop offset="1" stop-color="#FFA500"/>
</linearGradient>
<linearGradient id="paint1_linear_44_17303" x1="216.107" y1="103.061" x2="170.619" y2="157.758" gradientUnits="userSpaceOnUse">
<stop stop-color="white"/>
<stop offset="0.313676" stop-color="#FFA500"/>
<stop offset="0.858354" stop-color="#991200"/>
<stop offset="1" stop-color="#FFA500"/>
</linearGradient>
<linearGradient id="paint2_linear_44_17303" x1="184.748" y1="94.9206" x2="177.845" y2="111.761" gradientUnits="userSpaceOnUse">
<stop stop-color="#D70506"/>
<stop offset="0.72" stop-color="#7B0F13"/>
</linearGradient>
<linearGradient id="paint3_linear_44_17303" x1="185.435" y1="93.2412" x2="140.86" y2="122.71" gradientUnits="userSpaceOnUse">
<stop stop-color="white"/>
<stop offset="0.313676" stop-color="#FFA500"/>
<stop offset="0.858354" stop-color="#991200"/>
<stop offset="1" stop-color="#FFA500"/>
</linearGradient>
<linearGradient id="paint4_linear_44_17303" x1="181.543" y1="93.4519" x2="174.613" y2="110.361" gradientUnits="userSpaceOnUse">
<stop stop-color="#D70506"/>
<stop offset="0.72" stop-color="#7B0F13"/>
</linearGradient>
<linearGradient id="paint5_linear_44_17303" x1="197.135" y1="84.3582" x2="140.269" y2="120.93" gradientUnits="userSpaceOnUse">
<stop stop-color="white"/>
<stop offset="0.313676" stop-color="#FFA500"/>
<stop offset="0.858354" stop-color="#991200"/>
<stop offset="1" stop-color="#FFA500"/>
</linearGradient>
<linearGradient id="paint6_linear_44_17303" x1="190.522" y1="94.5241" x2="142.437" y2="134.224" gradientUnits="userSpaceOnUse">
<stop stop-color="white"/>
<stop offset="0.313676" stop-color="#FFA500"/>
<stop offset="0.858354" stop-color="#991200"/>
<stop offset="1" stop-color="#FFA500"/>
</linearGradient>
<linearGradient id="paint7_linear_44_17303" x1="195.719" y1="90.3643" x2="195.719" y2="125.321" gradientUnits="userSpaceOnUse">
<stop stop-color="#FFA500"/>
<stop offset="1" stop-color="#FD720E"/>
</linearGradient>
<linearGradient id="paint8_linear_44_17303" x1="199.413" y1="122.357" x2="191.977" y2="93.1637" gradientUnits="userSpaceOnUse">
<stop stop-color="#006DC4"/>
<stop offset="0.36" stop-color="#00A1F7"/>
<stop offset="0.68" stop-color="#00B1F5"/>
<stop offset="0.99" stop-color="#02D4FF"/>
</linearGradient>
<linearGradient id="paint9_linear_44_17303" x1="150.017" y1="159.103" x2="154.834" y2="189.474" gradientUnits="userSpaceOnUse">
<stop stop-color="#FF0000"/>
<stop offset="0.5" stop-color="#7B0F13"/>
<stop offset="1" stop-color="#531619"/>
</linearGradient>
<linearGradient id="paint10_linear_44_17303" x1="140.827" y1="153.709" x2="151.24" y2="196.517" gradientUnits="userSpaceOnUse">
<stop offset="0.011651" stop-color="#CA0000"/>
<stop offset="0.32" stop-color="#FFA500"/>
<stop offset="0.71" stop-color="#990000"/>
<stop offset="1" stop-color="#750000"/>
</linearGradient>
<linearGradient id="paint11_linear_44_17303" x1="136.511" y1="93.2075" x2="156.998" y2="167.059" gradientUnits="userSpaceOnUse">
<stop offset="0.01" stop-color="#F81B1B"/>
<stop offset="0.32" stop-color="#F52C00"/>
<stop offset="0.64" stop-color="#F70000"/>
<stop offset="1" stop-color="#FFA500"/>
</linearGradient>
<linearGradient id="paint12_linear_44_17303" x1="152.964" y1="154.486" x2="140.029" y2="103.703" gradientUnits="userSpaceOnUse">
<stop stop-color="#FF4E02"/>
<stop offset="0.32" stop-color="#FFA500"/>
<stop offset="0.64" stop-color="#F75900"/>
<stop offset="0.83" stop-color="#8A2323"/>
<stop offset="1" stop-color="#C40000"/>
</linearGradient>
<linearGradient id="paint13_linear_44_17303" x1="156.465" y1="168.153" x2="137.147" y2="92.3102" gradientUnits="userSpaceOnUse">
<stop stop-color="white"/>
<stop offset="0.32" stop-color="#F59300"/>
<stop offset="0.64" stop-color="#F57F20"/>
<stop offset="0.83" stop-color="#FF4F4F"/>
<stop offset="1" stop-color="#FFA500"/>
</linearGradient>
<linearGradient id="paint14_linear_44_17303" x1="182.508" y1="95.8426" x2="185.949" y2="117.553" gradientUnits="userSpaceOnUse">
<stop stop-color="white"/>
<stop offset="0.64" stop-color="#FFA500"/>
</linearGradient>
<linearGradient id="paint15_linear_44_17303" x1="195.468" y1="91.1352" x2="218.871" y2="130.244" gradientUnits="userSpaceOnUse">
<stop stop-color="white"/>
<stop offset="0.64" stop-color="#FFA500"/>
</linearGradient>
<linearGradient id="paint16_linear_44_17303" x1="208.789" y1="105.221" x2="212.341" y2="127.589" gradientUnits="userSpaceOnUse">
<stop stop-color="white"/>
<stop offset="0.64" stop-color="#FFA500"/>
</linearGradient>
<linearGradient id="paint17_linear_44_17303" x1="147.4" y1="133.203" x2="139.904" y2="89.7476" gradientUnits="userSpaceOnUse">
<stop stop-color="#EF0E00"/>
<stop offset="0.869792" stop-color="white"/>
</linearGradient>
<radialGradient id="paint18_radial_44_17303" cx="0" cy="0" r="1" gradientUnits="userSpaceOnUse" gradientTransform="translate(126.582 136.845) rotate(77.98) scale(3.771 11.0845)">
<stop stop-color="white"/>
<stop offset="1"/>
</radialGradient>
<radialGradient id="paint19_radial_44_17303" cx="0" cy="0" r="1" gradientUnits="userSpaceOnUse" gradientTransform="translate(177.514 152.156) rotate(25.13) scale(1.34255 7.47995)">
<stop stop-color="#FFDFDF"/>
<stop offset="1"/>
</radialGradient>
<radialGradient id="paint20_radial_44_17303" cx="0" cy="0" r="1" gradientUnits="userSpaceOnUse" gradientTransform="translate(134.061 166.031) rotate(117.87) scale(2.09292 7.9167)">
<stop stop-color="#FFDFDF"/>
<stop offset="1"/>
</radialGradient>
<radialGradient id="paint21_radial_44_17303" cx="0" cy="0" r="1" gradientUnits="userSpaceOnUse" gradientTransform="translate(158.301 130.813) rotate(165.71) scale(4.15843 16.7122)">
<stop stop-color="#FFDFDF"/>
<stop offset="1"/>
</radialGradient>
<radialGradient id="paint22_radial_44_17303" cx="0" cy="0" r="1" gradientUnits="userSpaceOnUse" gradientTransform="translate(158.258 130.326) rotate(-14.29) scale(18.0512)">
<stop stop-color="white"/>
<stop offset="1"/>
</radialGradient>
<radialGradient id="paint23_radial_44_17303" cx="0" cy="0" r="1" gradientUnits="userSpaceOnUse" gradientTransform="translate(115.295 106.808) rotate(-14.29) scale(19.4785)">
<stop stop-color="white"/>
<stop offset="1"/>
</radialGradient>
<radialGradient id="paint24_radial_44_17303" cx="0" cy="0" r="1" gradientUnits="userSpaceOnUse" gradientTransform="translate(178.243 152.104) rotate(-14.29) scale(15.9258)">
<stop stop-color="white"/>
<stop offset="1"/>
</radialGradient>
<radialGradient id="paint25_radial_44_17303" cx="0" cy="0" r="1" gradientUnits="userSpaceOnUse" gradientTransform="translate(133.524 165.473) rotate(-14.29) scale(22.1651)">
<stop stop-color="white"/>
<stop offset="1"/>
</radialGradient>
<radialGradient id="paint26_radial_44_17303" cx="0" cy="0" r="1" gradientUnits="userSpaceOnUse" gradientTransform="translate(138.918 104.836) rotate(-14.29) scale(13.1253)">
<stop stop-color="white"/>
<stop offset="1"/>
</radialGradient>
<radialGradient id="paint27_radial_44_17303" cx="0" cy="0" r="1" gradientUnits="userSpaceOnUse" gradientTransform="translate(138.468 104.787) rotate(71.94) scale(3.6328 8.93063)">
<stop stop-color="#FFDFDF"/>
<stop offset="1"/>
</radialGradient>
<linearGradient id="paint28_linear_44_17303" x1="152.636" y1="189.828" x2="152.636" y2="210.4" gradientUnits="userSpaceOnUse">
<stop stop-color="#FFA500"/>
<stop offset="0.26" stop-color="#F5C773"/>
<stop offset="0.59" stop-color="#F5B43C"/>
<stop offset="1" stop-color="white" stop-opacity="0"/>
</linearGradient>
<radialGradient id="paint29_radial_44_17303" cx="0" cy="0" r="1" gradientUnits="userSpaceOnUse" gradientTransform="translate(145.686 190.311) scale(48.5062 11.4651)">
<stop stop-color="#FFA500"/>
<stop offset="1" stop-color="white"/>
</radialGradient>
<radialGradient id="paint30_radial_44_17303" cx="0" cy="0" r="1" gradientUnits="userSpaceOnUse" gradientTransform="translate(160.282 189.283) rotate(6.35) scale(38.8125 4.41051)">
<stop stop-color="#FFA500"/>
<stop offset="1" stop-color="white"/>
</radialGradient>
<radialGradient id="paint31_radial_44_17303" cx="0" cy="0" r="1" gradientUnits="userSpaceOnUse" gradientTransform="translate(130.378 188.864) rotate(173.65) scale(38.8125 4.41051)">
<stop stop-color="#FFA500"/>
<stop offset="1" stop-color="white"/>
</radialGradient>
<linearGradient id="paint32_linear_44_17303" x1="107.339" y1="203.946" x2="83.9322" y2="185.071" gradientUnits="userSpaceOnUse">
<stop offset="1e-08" stop-color="#FFAD3D"/>
<stop offset="1" stop-color="#FFB73D"/>
</linearGradient>
<linearGradient id="paint33_linear_44_17303" x1="107.311" y1="203.811" x2="87.8353" y2="188.106" gradientUnits="userSpaceOnUse">
<stop stop-color="#FFC83D"/>
<stop offset="1" stop-color="#D83334"/>
</linearGradient>
<linearGradient id="paint34_linear_44_17303" x1="105.532" y1="203.057" x2="89.9421" y2="190.486" gradientUnits="userSpaceOnUse">
<stop stop-color="#FF8439"/>
<stop offset="0.5362" stop-color="#FFB53D"/>
<stop offset="1" stop-color="#FFCF3D"/>
</linearGradient>
<linearGradient id="paint35_linear_44_17303" x1="191.43" y1="193.619" x2="217.509" y2="172.589" gradientUnits="userSpaceOnUse">
<stop offset="1e-08" stop-color="#FFAD3D"/>
<stop offset="1" stop-color="#FFB73D"/>
</linearGradient>
<linearGradient id="paint36_linear_44_17303" x1="191.46" y1="193.468" x2="213.159" y2="175.97" gradientUnits="userSpaceOnUse">
<stop stop-color="#FFC83D"/>
<stop offset="1" stop-color="#D83334"/>
</linearGradient>
<linearGradient id="paint37_linear_44_17303" x1="193.444" y1="192.629" x2="210.814" y2="178.622" gradientUnits="userSpaceOnUse">
<stop stop-color="#FF8439"/>
<stop offset="0.5362" stop-color="#FFB53D"/>
<stop offset="1" stop-color="#FFCF3D"/>
</linearGradient>
</defs>
</svg>
